<?xml version="1.0" encoding="UTF-8"?><svg id="Calque_2" xmlns="http://www.w3.org/2000/svg" viewBox="0 0 205.36 219.13"><g id="Calque_1-2"><path d="m59.07,219.13c-4.78,0-9.52-.49-14.17-1.45-6.99-1.49-13.45-3.49-19.19-5.95-5.73-2.47-10.83-5.07-15.15-7.74-4.45-2.76-7.5-5.01-9.34-6.89l-1.21-1.24,39.05-50.26,1.49,2.49c2.9,4.86,6.22,9.31,9.86,13.23,3.7,3.94,7.39,7.31,10.98,9.99,3.65,2.73,7.25,4.72,10.71,5.92,3.42,1.23,6.52,1.7,9.21,1.42,1.93-.21,3.5-.81,4.78-1.81,1.31-1.02,2.33-2.31,3.1-3.94.76-1.6,1.26-3.39,1.5-5.32.2-1.93.2-3.86,0-5.85-.48-4.67-2.21-9.48-5.17-14.32-.16-.29-.29-.48-.42-.68l-.2-.3c-2.9-4.72-6.47-9.88-10.61-15.36-4.23-5.57-8.88-11.95-14.23-19.5-5.11-7.19-9.93-15.46-14.33-24.58-4.47-9.18-8.35-19.73-11.5-31.35-.75-2.74-1.37-5.34-1.9-7.92-2.04-9.63-3.24-20.33-3.55-31.79l-.05-1.84,60.82-6.27-.63,2.71c-.96,4.13-1.44,8.35-1.41,12.56,0,4.41.25,9.09.75,13.94.42,3.97,1,8.04,1.71,12.16,1.4-3.54,2.87-6.86,4.39-9.92,4.09-8.28,8.71-15.35,13.72-21.02,4.97-5.59,10.23-9.89,15.63-12.79,5.49-2.93,10.88-4.67,16.04-5.2,5.77-.6,11.39-.12,16.71,1.4,5.34,1.53,10.16,4.05,14.31,7.51,4.13,3.47,7.64,7.92,10.44,13.24,2.81,5.36,4.6,11.61,5.32,18.58.56,5.56,0,11.62-1.67,18.03-1.7,6.54-3.54,12.53-5.63,18.32-2.08,5.88-3.98,11.35-5.73,16.38-1.63,4.74-2.31,8.54-2.02,11.28.16,1.68.91,2.85,2.37,3.68,1.12.63,3.62,1.27,9.07.7.96-.1,2.76-.56,5.9-2.22,2.74-1.4,5.72-3.45,9.13-6.27l1.6-1.32,5.8,7.7-.64,1.13c-1.59,2.81-4.08,6.1-7.63,10.05-3.45,3.84-7.51,7.64-12.08,11.31-4.59,3.68-9.69,6.95-15.17,9.73-5.62,2.82-11.37,4.55-17.1,5.14-6.69.69-12.26.52-17.03-.51-4.79-1.04-8.72-2.66-12.02-4.97-3.25-2.29-5.77-5.15-7.5-8.51-1.69-3.32-2.75-7.01-3.16-10.97-.69-6.85.05-14.57,2.21-22.96,2.2-8.43,4.69-16.78,7.39-24.82,2.55-7.59,5.05-15.47,7.43-23.41,2.12-7.13,2.94-13.23,2.43-18.14-.21-2.1-.8-3.56-1.74-4.32-.8-.65-1.95-.88-3.52-.72-1.62.16-4.5,1.42-9.1,6.49-3.95,4.38-7.7,9.84-11.13,16.21-3.46,6.43-6.32,13.42-8.49,20.78-.91,3.15-1.55,6.14-1.91,8.88,1.01,3.96,2.06,7.91,3.13,11.9,2.43,9.12,4.77,18.28,6.95,27.23,2.2,9.01,3.75,17.92,4.61,26.47,1.35,12.91.85,24.16-1.48,33.41-2.32,9.26-5.77,17.01-10.25,23.03-4.44,6.01-9.73,10.61-15.7,13.66-5.88,3.03-11.76,4.84-17.47,5.4-2.44.25-4.87.38-7.3.38Zm-53.75-23.64c1.67,1.42,4.09,3.11,7.33,5.12,4.15,2.56,9.07,5.07,14.63,7.47,5.5,2.36,11.71,4.28,18.44,5.71,6.61,1.38,13.43,1.72,20.26,1.01,5.22-.51,10.61-2.19,16.05-4.99,5.43-2.77,10.25-6.98,14.33-12.5,4.17-5.61,7.39-12.89,9.59-21.64,2.22-8.8,2.68-19.58,1.38-32.04-.84-8.38-2.36-17.1-4.52-25.93-2.17-8.91-4.5-18.05-6.93-27.14-1.11-4.12-2.19-8.22-3.24-12.31l-.09-.36.05-.37c.38-3.05,1.08-6.37,2.09-9.87,2.26-7.64,5.22-14.89,8.81-21.55,3.58-6.65,7.51-12.36,11.68-16.99,4.44-4.89,8.25-7.44,11.64-7.77,2.62-.27,4.78.25,6.43,1.59,1.79,1.46,2.87,3.81,3.19,7,.57,5.42-.3,12.04-2.57,19.68-2.39,7.98-4.9,15.9-7.47,23.54-2.67,7.95-5.13,16.21-7.31,24.55-2.04,7.93-2.74,15.19-2.1,21.57.35,3.48,1.28,6.69,2.74,9.56,1.43,2.77,3.53,5.16,6.25,7.07,2.86,1.99,6.32,3.42,10.59,4.34,4.3.93,9.61,1.08,15.79.44,5.25-.54,10.54-2.14,15.72-4.74,5.23-2.65,10.1-5.77,14.48-9.28,4.4-3.53,8.31-7.19,11.61-10.87,2.84-3.16,5.01-5.92,6.47-8.24l-1.73-2.3c-2.98,2.35-5.69,4.13-8.22,5.43-2.95,1.56-5.43,2.46-7.33,2.65-5.27.56-9.02.16-11.43-1.2-2.57-1.47-4.08-3.8-4.36-6.74-.35-3.35.38-7.6,2.22-12.97,1.74-5.04,3.65-10.53,5.74-16.43,2.05-5.69,3.86-11.57,5.53-17.99,1.55-5.95,2.07-11.55,1.56-16.63-.66-6.46-2.31-12.23-4.88-17.14-2.55-4.86-5.74-8.91-9.46-12.04-3.72-3.1-8.05-5.37-12.86-6.74-4.83-1.38-9.95-1.81-15.22-1.27-4.64.47-9.55,2.07-14.57,4.75-4.98,2.67-9.87,6.68-14.53,11.92-4.78,5.4-9.2,12.18-13.14,20.15-2.38,4.79-4.63,10.23-6.68,16.18l-2.35,6.8-1.47-7.04c-1.38-6.62-2.43-13.18-3.1-19.52-.51-4.99-.77-9.81-.77-14.34-.03-3.59.29-7.2.95-10.77l-51.69,5.33c.38,10.53,1.53,20.37,3.41,29.26.51,2.51,1.11,5.02,1.84,7.68,3.09,11.39,6.87,21.71,11.24,30.67,4.31,8.93,9.02,17,14,24.02,5.32,7.51,9.95,13.86,14.16,19.4,4.22,5.58,7.86,10.85,10.82,15.65l.16.24c.18.28.36.56.53.86,3.22,5.26,5.15,10.64,5.68,15.9.24,2.24.24,4.5,0,6.71-.29,2.38-.92,4.58-1.86,6.56-1.03,2.17-2.46,3.98-4.25,5.37-1.86,1.45-4.14,2.33-6.8,2.62-3.31.35-6.99-.2-10.96-1.62-3.82-1.33-7.79-3.51-11.76-6.49-3.78-2.82-7.65-6.34-11.51-10.46-3.21-3.45-6.17-7.29-8.84-11.44L5.31,195.49Z" style="fill:#8e0648;"/></g></svg>