<?xml version="1.0" encoding="UTF-8"?>
<svg id="Calque_2" xmlns="http://www.w3.org/2000/svg" viewBox="0 0 730.16 278.37">
    <g id="Calque_1-2">
        <path
            d="m57.63,219.25c0,28.26-10.98,49.39-33.75,57.08-8.78,2.74-23.87,1.92-23.87,1.92l.55-29.09c28.54,0,26.34-26.07,26.34-26.07V60.37h31.01l-.27,158.88Zm-15.1-175.9c-12.07,0-21.68-9.88-21.68-21.68S30.46,0,42.53,0s21.68,9.6,21.68,21.68-9.6,21.68-21.68,21.68Z"
            style="fill:#de5836;" />
        <path
            d="m211.29,126.23l-104.82,13.45c0,41.71,39.79,40.06,39.79,40.06,32.93,0,35.67-29.36,35.67-29.36l27.99,9.06s-6.59,48.3-62.57,48.3c0,0-71.89,3.29-71.89-73.82s71.89-74.09,71.89-74.09c63.11,0,63.94,56.8,63.94,59v7.41Zm-104.55-7.41l75.19-9.88c0-5.21-5.76-23.87-40.61-20.85,0,0-36.5,2.47-34.58,30.73Z"
            style="fill:#de5836;" />
        <path
            d="m353.69,92.91v-33.1h-31v76.3c0,42.23-39.23,41.96-39.23,41.96-33.76,1.67-30.21-43.9-30.21-43.9V59.81h-31.27v85.35s-2.73,67.22,57.9,62.27c20.31-1.64,37.32-13.42,40.9-39.23h7.68l-8.23,39.23h33.46v-76.63l-8.62-35.8,8.53-2.06.09-.03Z"
            style="fill:#de5836;" />
        <path
            d="m581.72,59.81c-22.23,0-68.89,5.77-68.89,74.08,0,9.29.91,17.43,2.52,24.53.79-.76,1.58-1.58,2.4-2.46l2.43-2.64,8.32,8.44-.85,2.1c-1.21,2.98-3.22,6.53-6.16,10.81l-.21.3c-.03.06-.06.09-.12.15,14.45,28.87,44.18,32.61,60.57,32.61,21.41,0,68.86-6.86,68.86-73.84s-49.13-74.08-68.86-74.08Zm0,120.21c-13.18,0-38.14-3.58-38.14-46.12s24.41-46.09,38.14-46.09c12.9,0,38.14,3.28,38.14,46.09s-25.81,46.12-38.14,46.12Z"
            style="fill:#de5836;" />
        <path
            d="m665.95,60.37c20.86,0,20.86-31.01,20.86-31.01h17.01v31.01h26.34v23.87h-26.34v75.46s-.28,19.48,25.52,19.48l.82,28.54s-14.82.82-23.32-2.2c-36.22-12.07-33.21-52.41-33.21-52.41v-68.88h-13.44v-23.87h5.76Z"
            style="fill:#de5836;" />
        <path
            d="m520.17,153.33l-2.43,2.64c-.82.88-1.61,1.7-2.4,2.46l-.18.18c-1.82,1.76-3.52,3.22-5.04,4.31-2.98,2.03-4.37,2.52-4.86,2.64-2.37.55-4.25.82-5.71.82-1.09,0-1.73-.15-2.06-.3-1.03-.39-1.58-1-1.85-2.13-.58-2.4-.39-5.89.52-10.35,1.03-5.04,2.13-10.48,3.34-16.27,1.28-6.07,2.31-12.24,3.04-18.31.79-6.53.52-12.54-.79-17.88-1.61-6.77-4.19-12.66-7.65-17.52-3.46-4.86-7.5-8.81-12.02-11.69-4.62-2.85-9.72-4.71-15.15-5.5-2.1-.3-4.16-.43-6.13-.43-3.49,0-7.04.43-10.54,1.28-5.1,1.21-10.2,3.64-15.12,7.23-4.89,3.49-9.47,8.38-13.6,14.54-4.07,6.04-7.59,13.45-10.54,22.1-1.97,5.83-3.67,12.48-5.04,19.77-.12-.24-.21-.49-.33-.7-.24-.55-.52-1.09-.76-1.61-1.64-3.7-2.91-7.38-3.76-10.96-1.09-4.58-1.46-9.5-1.03-14.57.43-4.95,2-10.63,4.71-16.85l2.73-6.29-53.8,12.96-.09.03-8.53,2.06,8.62,35.8,22.41,93.03.79,3.31,61.3-14.79,3.31-.79-.79-3.31c-2.16-8.9-4.68-17-7.53-24.08-2.95-7.23-5.95-13.82-8.93-19.52-.94-2-1.7-4.22-2.22-6.35-1.34-5.59-1.46-11.96-.42-18.89,1.09-7.23,2.88-14.15,5.34-20.56,2.4-6.41,5.19-11.96,8.32-16.52,3.61-5.22,5.89-6.47,6.92-6.74.49-.12.91-.18,1.28-.18.67,0,1.82,0,2.58,3.19,1.06,4.37,1.03,10.11,0,16.97-1.15,7.23-2.52,15.03-4.07,23.2-1.61,8.35-2.91,16.64-3.86,24.65-1.03,8.5-.73,16.15.85,22.65.97,3.98,2.52,7.53,4.65,10.51,2.19,3.19,5.13,5.77,8.74,7.65,3.55,1.82,7.83,2.95,12.66,3.34,4.86.33,10.44-.21,16.73-1.73,5.59-1.34,10.99-3.8,16.09-7.29,5.01-3.43,9.53-7.29,13.45-11.39,3.7-3.95,7.04-8.02,9.84-12.05.06-.06.09-.09.12-.15l.21-.3c2.95-4.28,4.95-7.83,6.16-10.81l.85-2.1-8.32-8.44Zm-1.4,18.58c-.12.21-.27.39-.39.61-2.73,3.98-5.95,7.92-9.81,12.02-3.76,3.98-8.11,7.62-12.84,10.9-4.77,3.25-9.75,5.53-14.85,6.74-4.86,1.15-9.11,1.73-12.9,1.73-.91,0-1.82-.06-2.64-.09-4.43-.36-8.11-1.34-11.2-2.95-3.07-1.61-5.56-3.8-7.41-6.44-1.88-2.7-3.22-5.74-4.07-9.23-1.49-6.16-1.73-13.33-.79-21.34.97-8.05,2.28-16.24,3.83-24.38,1.61-8.32,2.98-16.15,4.07-23.29,1.18-7.41,1.15-13.63-.03-18.49-1.15-4.86-4.04-6.86-8.41-5.77-2.76.67-5.83,3.43-9.14,8.26-3.31,4.8-6.25,10.63-8.81,17.34-2.55,6.83-4.4,14-5.5,21.31-1.15,7.5-.97,14.33.49,20.34.61,2.58,1.46,4.98,2.52,7.2,2.91,5.65,5.86,12.11,8.74,19.25,2.82,6.95,5.28,14.76,7.32,23.14l-57.26,13.78-30.06-124.76,51.37-12.39c-2.67,6.22-4.25,12.05-4.71,17.37-.49,5.47-.09,10.78,1.12,15.79.94,3.95,2.31,7.83,4.01,11.57,1.85,4.13,3.8,8.05,5.92,11.9l.55,1,.15-1.12c1.52-11.39,3.73-21.31,6.53-29.54,2.85-8.35,6.22-15.48,10.08-21.19,3.89-5.77,8.14-10.32,12.69-13.6,4.52-3.28,9.17-5.5,13.81-6.62,3.19-.76,6.44-1.15,9.62-1.15,1.94,0,3.83.12,5.56.36,4.95.73,9.53,2.4,13.66,5.01,4.13,2.55,7.83,6.13,11.02,10.63,3.16,4.46,5.53,9.93,7.04,16.21,1.21,4.98,1.43,10.54.7,16.58-.73,5.98-1.73,12.02-2.98,17.91l-.21,1c-1.12,5.53-2.19,10.63-3.13,15.36-1.03,5.01-1.21,9.05-.49,11.96.52,2.28,1.91,3.89,4.07,4.8,2.16.85,5.28.76,10.11-.39,1.55-.36,3.55-1.43,6.13-3.22,1.37-.94,2.76-2.06,4.25-3.49,1.12-1,2.31-2.19,3.7-3.7l3.76,3.86c-.94,2.34-2.52,5.16-4.8,8.62-.15.21-.27.39-.42.61Z"
            style="fill:#383c89;" />
    </g>
</svg>
