<?xml version="1.0" encoding="UTF-8"?>
<svg width="372" height="264" fill="none" version="1.1" viewBox="0 0 372 264" xmlns="http://www.w3.org/2000/svg">
<g transform="translate(-50.5)">
<g transform="matrix(1 0 0 1 88 37.5)" fill="none">
<path d="m66.5 78.3c41.5 0 73-22 96.5-57 23.5-35 90.5-21 124 0 33 21 15 121-78.5 181s-190-33-205-60c-15-27 33-63.5 63-63.5z" fill="#8c0846"/>
</g>
<g transform="matrix(.998 0 0 .998 36.5 -20.5)">
<path d="m194 169s-18.8 2.22-25.7 7.77c-1.1 0.896-2.12 1.89-3.05 2.97-4.35 5.07-6.98 11.4-7.54 18l-2.51 27.6 0.201 4.56c0.152 3.43 1.62 6.66 4.09 9.04 2.47 2.37 5.77 3.7 9.19 3.72l77.5 0.528s10.2-11.4 7.51-29c-0.628-4.14-1.63-18.4-5.56-27.1-2.08-4.62-5.25-10.3-13.6-12.6l-19.6-5.54z" fill="#262626"/>
<g fill="#455a64">
<path d="m176 191c-0.074-0.199-0.127-0.406-0.158-0.617-0.085-0.396-0.217-0.972-0.391-1.68-0.463-1.84-1.07-3.64-1.82-5.39-0.756-1.74-1.65-3.41-2.67-5.01-0.396-0.618-0.723-1.1-0.961-1.44-0.128-0.166-0.241-0.342-0.338-0.528 0.161 0.141 0.304 0.301 0.428 0.475 0.259 0.317 0.612 0.792 1.03 1.39 1.08 1.58 2.01 3.26 2.77 5.02 0.754 1.75 1.34 3.57 1.75 5.43 0.153 0.718 0.254 1.3 0.306 1.71 0.044 0.208 0.062 0.421 0.053 0.633z"/>
<path d="m179 223c-0.079 0-0.908-6.02-1.85-13.5s-1.65-13.5-1.58-13.5c0.068-5e-3 0.903 6.02 1.85 13.5s1.66 13.5 1.58 13.5z"/>
<path d="m176 194c-0.461-0.133-0.904-0.321-1.32-0.56-2.06-1.05-3.96-2.38-5.64-3.98-0.368-0.309-0.695-0.664-0.972-1.06 0.386 0.279 0.753 0.584 1.1 0.913 0.671 0.57 1.61 1.34 2.71 2.11s2.11 1.4 2.9 1.83c0.427 0.214 0.839 0.459 1.23 0.734z"/>
<path d="m226 199c-0.026-0.315-0.026-0.631 0-0.945 5e-3 -0.369 0.03-0.738 0.074-1.1 0.047-0.428 0.079-0.919 0.185-1.45 0.087-0.586 0.205-1.17 0.353-1.74 0.132-0.629 0.344-1.28 0.528-1.96 0.993-2.97 2.54-5.72 4.57-8.11 0.48-0.528 0.924-1.06 1.39-1.5 0.416-0.423 0.853-0.825 1.31-1.2 0.401-0.369 0.802-0.649 1.14-0.913 0.289-0.228 0.59-0.44 0.903-0.634 0.257-0.181 0.527-0.344 0.808-0.485-0.233 0.208-0.482 0.399-0.744 0.57-0.248 0.174-0.528 0.391-0.871 0.67-0.344 0.28-0.724 0.565-1.12 0.935-0.39 0.37-0.839 0.76-1.27 1.22-0.433 0.459-0.887 0.966-1.36 1.5-1.98 2.38-3.51 5.1-4.52 8.03-0.216 0.676-0.438 1.32-0.575 1.93-0.137 0.617-0.285 1.19-0.386 1.72-0.1 0.528-0.158 1.01-0.221 1.44-0.064 0.428-0.101 0.787-0.122 1.09-5e-3 0.313-0.032 0.625-0.079 0.935z"/>
<path d="m218 231c-0.075-0.318-0.094-0.647-0.058-0.971 0.036-0.462 0.18-0.908 0.422-1.3 0.241-0.395 0.572-0.727 0.967-0.969 2.24-2.36 4.94-4.24 7.93-5.53l-0.079 0.111c0.106-0.993 0.216-2.02 0.296-3.08 0.3-3.86 0.353-7.74 0.158-11.6-0.069-1.48-0.174-2.69-0.232-3.52-0.032-0.391-0.058-0.708-0.08-0.956-0.012-0.112-0.012-0.225 0-0.338 0.035 0.108 0.056 0.22 0.064 0.333 0.037 0.243 0.079 0.56 0.132 0.95 0.09 0.829 0.227 2.03 0.322 3.52 0.251 3.88 0.224 7.78-0.079 11.7-0.079 1.06-0.19 2.11-0.301 3.09v0.079l-0.074 0.032c-2.97 1.26-5.66 3.1-7.92 5.4-0.431 0.254-0.787 0.619-1.03 1.06-0.182 0.327-0.298 0.685-0.343 1.06-0.132 0.676-0.058 0.993-0.095 0.998z"/>
<path d="m240 228c-0.047 0.026-0.449-0.734-1.33-1.79-1.15-1.37-2.56-2.51-4.14-3.34-0.87-0.452-1.79-0.806-2.74-1.06-0.777-0.195-1.58-0.3-2.38-0.312-1.37 0-2.22 0.159-2.23 0.106 0.189-0.072 0.386-0.12 0.586-0.143 0.543-0.094 1.09-0.147 1.64-0.158 0.819-0.017 1.64 0.072 2.43 0.264 0.974 0.239 1.92 0.593 2.8 1.06 1.62 0.844 3.04 2.02 4.17 3.46 0.339 0.432 0.644 0.889 0.913 1.37 0.11 0.17 0.198 0.352 0.264 0.544z"/>
<path d="m240 221c0 0.047-0.644-0.248-1.72-0.528-0.625-0.156-1.26-0.265-1.9-0.327-0.788-0.073-1.58-0.094-2.37-0.064-1.44 0.074-2.86 0.292-4.26 0.65-1.06 0.279-1.72 0.528-1.73 0.47 0.134-0.091 0.279-0.162 0.433-0.212 0.407-0.171 0.823-0.319 1.25-0.443 1.4-0.422 2.84-0.67 4.3-0.739 0.804-0.03 1.61-2e-3 2.41 0.084 0.652 0.077 1.3 0.208 1.93 0.391 0.241 0.069 0.479 0.15 0.713 0.243 0.181 0.06 0.357 0.134 0.528 0.221 0.152 0.063 0.295 0.149 0.422 0.254z"/>
</g>
<path d="m225 138c-1.55-6.57-4.31-13.3-9.76-17.3-4.85-3.55-11.9-4.9-17.9-4.46-2.95 0.222-6.25 1.7-8.78 3.24-3.46 2.11-4.83 6.21-6.42 9.95-3.17 7.49-2.41 17.5 0 20.2l31.4 15.3c5.37-3.02 11.2-7.08 12.4-13.1 0.839-4.11 0.037-9.72-0.924-13.8z" fill="#ec8166"/>
<path d="m214 126-19.6-5.08c-6.28-0.707-10.5 7.01-11 13.3-0.485 7-0.808 15.6 0 20.8 1.58 10.5 9.65 13 9.65 13s0 9.14 0.058 12.3l9.14 27.8 13-27.8 2-50.5c0.028-0.93-0.296-1.84-0.908-2.54s-1.47-1.15-2.39-1.25z" fill="#ffbe9d"/>
<g fill="#262626">
<path d="m186 143c-5e-3 0.352 0.128 0.691 0.37 0.946 0.241 0.256 0.572 0.407 0.924 0.422 0.17 0.014 0.343-6e-3 0.506-0.059s0.314-0.138 0.444-0.25 0.236-0.249 0.312-0.403c0.076-0.153 0.121-0.321 0.131-0.492 8e-3 -0.352-0.123-0.692-0.364-0.949s-0.572-0.409-0.924-0.424c-0.172-0.014-0.344 6e-3 -0.508 0.059s-0.315 0.139-0.446 0.251c-0.13 0.113-0.237 0.251-0.313 0.405-0.077 0.154-0.121 0.322-0.132 0.494z"/>
<path d="m185 139c0.164 0.174 1.19-0.576 2.64-0.56 1.45 0.016 2.51 0.744 2.67 0.57 0.074-0.079-0.09-0.396-0.554-0.739-0.619-0.434-1.36-0.668-2.11-0.671-0.756-9e-3 -1.5 0.222-2.11 0.66-0.465 0.344-0.618 0.66-0.534 0.74z"/>
<path d="m200 143c-6e-3 0.351 0.126 0.691 0.366 0.946 0.241 0.255 0.572 0.407 0.923 0.422 0.171 0.014 0.343-6e-3 0.507-0.059 0.163-0.052 0.314-0.137 0.445-0.25 0.13-0.112 0.237-0.249 0.313-0.402 0.077-0.154 0.122-0.321 0.134-0.493 6e-3 -0.351-0.126-0.691-0.366-0.948-0.241-0.256-0.571-0.408-0.923-0.425-0.171-0.015-0.344 5e-3 -0.509 0.058-0.164 0.053-0.315 0.138-0.446 0.251-0.13 0.113-0.237 0.25-0.313 0.405s-0.121 0.323-0.131 0.495z"/>
<path d="m199 139c0.163 0.179 1.19-0.57 2.64-0.555 1.45 0.016 2.51 0.745 2.67 0.571 0.074-0.08-0.089-0.396-0.554-0.74-0.619-0.434-1.36-0.67-2.11-0.675-0.757-8e-3 -1.5 0.225-2.11 0.665-0.465 0.338-0.618 0.655-0.533 0.734z"/>
<path d="m194 150c0-0.085-0.892-0.248-2.35-0.444-0.375-0.042-0.724-0.116-0.782-0.369-0.032-0.384 0.057-0.768 0.254-1.1l1.11-2.81c1.55-4 2.67-7.3 2.51-7.36-0.158-0.058-1.55 3.14-3.1 7.14-0.375 0.987-0.729 1.93-1.06 2.83-0.24 0.444-0.313 0.959-0.206 1.45 0.055 0.128 0.138 0.242 0.243 0.333 0.105 0.092 0.23 0.158 0.364 0.195 0.204 0.061 0.416 0.093 0.628 0.095 1.46 0.105 2.37 0.116 2.38 0.037z"/>
</g>
<path d="m193 168 0.058 2.64c10.5 1.06 14-6.28 14-6.28-4.27 2.5-9.16 3.76-14.1 3.64z" fill="#eb996e"/>
<path d="m199 153c-0.211-0.321-0.497-0.586-0.834-0.77s-0.715-0.283-1.1-0.286c-0.54-0.043-1.08 0.06-1.57 0.298-0.488 0.237-0.903 0.601-1.2 1.05-0.212 0.42-0.259 0.904-0.132 1.36 0.101 0.232 0 0.121 0.201 0.28 0.598 0.622 1.34 1.09 2.16 1.36 0.442 0.113 0.908 0.091 1.34-0.063 0.429-0.154 0.802-0.434 1.07-0.803 0.235-0.358 0.365-0.775 0.377-1.2 0.013-0.428-0.094-0.851-0.308-1.22z" fill="#eb996e"/>
<path d="m198 151c-0.238 0-0.254 1.58-1.58 2.67-1.33 1.08-3.03 0.929-3.05 1.15 0 0.1 0.375 0.311 1.08 0.332 0.923 0.022 1.82-0.285 2.54-0.866 0.691-0.555 1.14-1.36 1.25-2.24 0.053-0.655-0.132-1.05-0.237-1.04z" fill="#262626"/>
<path d="m198 134c0.143 0.396 1.58 0.217 3.3 0.433 1.71 0.217 3.07 0.692 3.3 0.338 0.105-0.169-0.132-0.528-0.687-0.924-0.737-0.474-1.57-0.773-2.44-0.876-0.87-0.102-1.75-5e-3 -2.58 0.285-0.628 0.248-0.945 0.554-0.887 0.744z" fill="#ec8166"/>
<path d="m185 134c0.254 0.327 1.26 0 2.46 0 1.2 0 2.22 0.237 2.46-0.106 0.105-0.163-0.053-0.496-0.497-0.813-0.594-0.378-1.29-0.572-1.99-0.555-0.704 0.017-1.39 0.243-1.96 0.65-0.428 0.322-0.571 0.66-0.46 0.824z" fill="#ec8166"/>
<path d="m214 143c0.143-0.063 5.85-1.88 5.81 3.99-0.042 5.87-5.94 4.6-5.94 4.44-0.011-0.169 0.137-8.43 0.137-8.43z" fill="#ffbe9d"/>
<path d="m216 149s0.1 0.074 0.269 0.153c0.245 0.101 0.521 0.101 0.766 0 0.623-0.222 1.15-1.2 1.19-2.25 0.017-0.504-0.076-1-0.274-1.47-0.053-0.185-0.15-0.354-0.284-0.492-0.133-0.138-0.299-0.241-0.482-0.3-0.117-0.03-0.24-0.019-0.349 0.031-0.11 0.05-0.199 0.136-0.253 0.243-0.079 0.164-0.047 0.28-0.074 0.291-0.026 0.01-0.127-0.101-0.079-0.343 0.034-0.146 0.118-0.275 0.238-0.365 0.162-0.119 0.365-0.171 0.564-0.142 0.24 0.05 0.464 0.16 0.648 0.321 0.185 0.161 0.326 0.367 0.408 0.597 0.244 0.511 0.36 1.07 0.338 1.64-0.047 1.18-0.665 2.29-1.52 2.52-0.158 0.043-0.324 0.05-0.485 0.022-0.162-0.029-0.315-0.092-0.45-0.186-0.174-0.126-0.2-0.258-0.179-0.269z" fill="#eb996e"/>
<path d="m218 151c0.026-0.032 0.253 0.243 0.216 0.771-4e-3 0.159-0.043 0.315-0.114 0.458-0.071 0.142-0.173 0.267-0.298 0.366-0.167 0.102-0.357 0.162-0.552 0.176-0.196 0.014-0.392-0.019-0.572-0.097-0.188-0.06-0.358-0.166-0.494-0.308-0.137-0.142-0.235-0.315-0.288-0.505-0.064-0.31-7e-3 -0.633 0.159-0.903 0.29-0.454 0.66-0.497 0.66-0.465s-0.28 0.159-0.476 0.565c-0.113 0.227-0.141 0.488-0.079 0.734 0.049 0.143 0.13 0.272 0.239 0.377 0.108 0.104 0.24 0.182 0.384 0.225 0.136 0.062 0.284 0.092 0.434 0.087 0.149-4e-3 0.295-0.043 0.427-0.113 0.099-0.075 0.182-0.169 0.244-0.276 0.063-0.107 0.104-0.225 0.12-0.347 0.023-0.248 0.02-0.498-0.01-0.745z" fill="#262626"/>
<g fill="#ec8166">
<path d="m183 136c0.792-1.7 2.33-2.94 3.96-3.87 1.63-0.929 3.4-1.58 5.02-2.54 3.76-2.2 6.57-5.71 7.89-9.86-2.89-1.49-6.48-1.32-9.4 0.122-2.89 1.53-5.18 4-6.47 7-1.28 3-1.89 6.24-1.79 9.5"/>
<path d="m215 124c-4.34-4.12-12.5-6.4-18.2-4.47 0.839 4.94 4.57 10.5 7.85 14.3s5.28 10.5 12.5 8.22c0.491-0.154 1.06 0.295 1.5 0.031 0.357-0.265 0.603-0.652 0.692-1.09 0.904-2.95 0.978-6.09 0.215-9.08-0.762-2.99-2.33-5.71-4.54-7.87z"/>
<path d="m183 143c-0.343 0.063-0.696 0.043-1.03-0.058-0.926-0.268-1.72-0.858-2.25-1.66-0.761-1.21-1.08-2.64-0.893-4.06 0.071-0.821 0.209-1.64 0.412-2.43 0.19-0.839 0.454-1.68 0.739-2.54 1.03-2.93 2.58-5.65 4.57-8.03 0.603-0.718 1.25-1.4 1.93-2.04l0.571-0.501c0.064-0.064 0.137-0.119 0.216-0.164-0.217 0.265-0.454 0.514-0.708 0.745-0.448 0.485-1.12 1.17-1.85 2.11-1.92 2.39-3.43 5.1-4.45 7.99-0.288 0.822-0.535 1.66-0.739 2.51-0.205 0.784-0.346 1.58-0.422 2.39-0.191 1.36 0.088 2.74 0.792 3.92 0.49 0.782 1.24 1.37 2.11 1.66 0.327 0.084 0.661 0.137 0.998 0.159z"/>
<path d="m233 125c0-2.76-0.776-5.61-2.64-7.62-2.6-2.8-7.16-3.43-10.6-1.65-3.4 1.78-5.43 5.7-5.2 9.5 0.152 1.92 0.769 3.77 1.8 5.39s2.44 2.97 4.1 3.93l2.42-0.275c2.43 1.28 5.61 0.375 7.48-1.63 1.87-2.01 2.59-4.9 2.59-7.64z"/>
</g>
<g fill="#fff">
<path d="m218 123s-0.031 0.074-0.121 0.195c-0.125 0.184-0.261 0.36-0.407 0.528-0.525 0.628-1.12 1.19-1.78 1.68-2.18 1.65-4.88 2.48-7.61 2.33s-5.32-1.27-7.31-3.15c-0.599-0.558-1.13-1.18-1.58-1.86-0.164-0.238-0.264-0.438-0.344-0.57-0.079-0.132-0.11-0.206-0.1-0.212 0.635 0.906 1.36 1.74 2.16 2.5 0.888 0.802 1.89 1.47 2.98 1.97 2.67 1.28 5.73 1.44 8.52 0.464 1.13-0.382 2.2-0.93 3.17-1.63 0.884-0.663 1.7-1.42 2.42-2.25z"/>
<path d="m221 131c-0.058 0.072-0.124 0.137-0.196 0.195-0.193 0.19-0.4 0.366-0.617 0.528-0.793 0.594-1.68 1.06-2.61 1.37-1.4 0.465-2.87 0.664-4.34 0.586-1.8-0.091-3.57-0.547-5.2-1.34-1.61-0.817-3.08-1.89-4.35-3.17-1.04-1.03-1.97-2.16-2.79-3.37-0.557-0.813-1.07-1.66-1.53-2.53-0.169-0.306-0.28-0.528-0.365-0.718-0.043-0.083-0.078-0.169-0.105-0.259 0.062 0.073 0.115 0.153 0.158 0.238l0.401 0.686c0.354 0.602 0.877 1.46 1.58 2.47 0.832 1.19 1.77 2.3 2.81 3.31 1.26 1.24 2.71 2.28 4.29 3.08 1.59 0.775 3.32 1.23 5.09 1.33 1.44 0.085 2.89-0.094 4.27-0.528 0.938-0.294 1.83-0.724 2.64-1.28 0.555-0.38 0.84-0.634 0.861-0.602z"/>
<path d="m230 122s-0.074 0.137-0.248 0.359c-0.251 0.31-0.528 0.598-0.829 0.861-0.441 0.396-0.918 0.749-1.42 1.06-0.623 0.374-1.28 0.685-1.96 0.929-0.686 0.23-1.39 0.394-2.11 0.491-0.588 0.071-1.18 0.088-1.77 0.053-0.398-0.023-0.793-0.078-1.18-0.164-0.147-0.018-0.29-0.061-0.423-0.127 0-0.047 0.623 0.08 1.61 0.095 2.6 0.042 5.13-0.843 7.14-2.5 0.766-0.607 1.17-1.06 1.2-1.06z"/>
<path d="m232 126c0.069 0.148 0.095 0.313 0.074 0.475-0.022 0.447-0.181 0.876-0.454 1.23-0.407 0.519-0.939 0.924-1.55 1.18-0.719 0.323-1.47 0.573-2.24 0.744-1.4 0.315-2.84 0.378-4.26 0.185-0.428-0.061-0.853-0.148-1.27-0.259-0.156-0.031-0.306-0.088-0.444-0.169 0-0.047 0.66 0.132 1.74 0.233 1.4 0.134 2.81 0.047 4.18-0.259 1.58-0.375 3.04-0.919 3.7-1.77 0.265-0.323 0.438-0.711 0.502-1.12 0.037-0.301 5e-3 -0.465 0.026-0.465z"/>
</g>
<path d="m219 233c-0.095 0.023-0.193 0.032-0.291 0.027h-0.834c-1.03-0.017-2.05-0.115-3.06-0.296-3.36-0.579-6.53-1.98-9.21-4.09-2.68-2.11-4.8-4.85-6.17-7.97-0.416-0.939-0.755-1.91-1.01-2.9-0.1-0.348-0.142-0.628-0.185-0.813-0.023-0.096-0.039-0.193-0.047-0.29 0.132 0.345 0.243 0.697 0.332 1.06 0.301 0.975 0.666 1.93 1.09 2.86 1.4 3.07 3.51 5.76 6.16 7.84s5.76 3.49 9.08 4.12c0.998 0.196 2.01 0.323 3.02 0.38 0.723 0.069 1.12 0.074 1.12 0.095z" fill="#455a64"/>
<path d="m194 232c-0.082-0.033-0.16-0.076-0.233-0.127l-0.639-0.412-2.32-1.57c-2.53-1.72-5.18-3.27-7.92-4.62-2.73-1.35-5.66-2.28-8.66-2.77-0.915-0.136-1.84-0.22-2.76-0.253-0.341 3e-3 -0.681-0.011-1.02-0.043 0.085-0.024 0.174-0.034 0.264-0.031 0.168 0 0.427-0.037 0.755-0.032 0.932-0.011 1.86 0.045 2.79 0.169 3.05 0.433 6.01 1.35 8.78 2.72 2.75 1.37 5.39 2.94 7.89 4.72 0.967 0.665 1.74 1.22 2.27 1.61l0.607 0.454c0.137 0.1 0.206 0.158 0.201 0.195z" fill="#455a64"/>
<g fill="#ffbe9d">
<path d="m221 230-36 1.82 2.79 10.6 48 0.222z"/>
<path d="m187 232s-11.6-5.81-13.1-5.87c-1.1-0.037-7.5 1.06-10.4 1.56-0.553 0.076-1.05 0.368-1.39 0.812-0.338 0.445-0.487 1-0.413 1.56 0.076 0.396 0.283 0.754 0.588 1.02 0.304 0.263 0.689 0.417 1.09 0.435-0.425 0.212-0.773 0.551-0.995 0.971s-0.306 0.898-0.241 1.37c0.232 1.67 2.3 1.72 2.3 1.72-0.089 0.095-0.172 0.195-0.248 0.301-0.207 0.29-0.333 0.63-0.366 0.984-0.032 0.355 0.03 0.712 0.181 1.03 0.151 0.323 0.385 0.6 0.679 0.802 0.293 0.202 0.635 0.322 0.99 0.348l0.94 0.069s-1.15 0.702-0.961 1.84c0.369 2.19 5.36 1.86 5.36 1.86l17.1-0.121z"/>
<path d="m164 225c0.163 0.713 0.57 2.23 1.91 2.74l6.75-1.28s-5.33-0.977-6.18-1.73c-0.339-0.31-0.713-0.58-1.11-0.803-0.163-0.078-0.345-0.108-0.525-0.088s-0.351 0.09-0.493 0.202-0.25 0.262-0.312 0.432c-0.061 0.17-0.075 0.354-0.037 0.531z"/>
</g>
<g fill="#eb996e">
<path d="m169 227c0 0.116-1.35 0.459-3.07 0.691-1.72 0.233-3.1 0.375-3.13 0.248-0.021-0.126 1.35-0.459 3.07-0.691 1.72-0.233 3.13-0.375 3.13-0.248z"/>
<path d="m168 231c0.032 0.116-1.14 0.528-2.64 0.681-1.5 0.153-2.73 0.058-2.72-0.058s1.2-0.211 2.67-0.386c1.47-0.174 2.66-0.359 2.69-0.237z"/>
<path d="m172 230c0.111 0.048 0.037 0.438-0.307 0.745-0.343 0.306-0.739 0.332-0.776 0.221s0.211-0.311 0.481-0.554c0.269-0.243 0.491-0.465 0.602-0.412z"/>
<path d="m170 235c0 0.121-1.29 0.38-2.91 0.57-1.62 0.19-2.94 0.248-2.96 0.127-0.022-0.121 1.28-0.375 2.91-0.565s2.95-0.253 2.96-0.132z"/>
<path d="m173 233c0.053 0 0.179 0.101 0.253 0.359 0.088 0.351 0.038 0.723-0.14 1.04s-0.47 0.551-0.815 0.657c-0.264 0.074-0.433 0.027-0.439-0.031-5e-3 -0.059 0.555-0.286 0.866-0.845 0.312-0.56 0.164-1.13 0.275-1.18z"/>
<path d="m171 239c0 0.121-1.18 0.253-2.64 0.296-1.46 0.042-2.67-0.027-2.67-0.148 0-0.122 1.18-0.254 2.64-0.296 1.46-0.042 2.67 0.032 2.67 0.148z"/>
<path d="m175 236c0.053 0 0.158 0.116 0.19 0.386 0.03 0.34-0.047 0.682-0.222 0.976-0.406 0.676-0.929 0.977-1 0.909-0.074-0.069 0.28-0.56 0.613-1.12 0.332-0.565 0.311-1.11 0.422-1.15z"/>
</g>
<path d="m157 237c-2.36-1.12-10.3-4.22-10.3-4.22l-3.86-26.4-15.7 2.36s9.15 33.6 11.6 33.9 16.5 0 16.5 0l4.57-0.069s-1.17-4.77-2.83-5.55z" fill="#9b6e65"/>
<path d="m146 242c-0.235 0.159-0.505 0.259-0.787 0.291-0.673 0.128-1.37 0.103-2.03-0.074-0.662-0.176-1.28-0.499-1.8-0.945-0.223-0.172-0.404-0.392-0.528-0.645 0.037-0.031 0.254 0.196 0.66 0.491 0.527 0.381 1.12 0.662 1.75 0.829 0.628 0.166 1.28 0.218 1.93 0.154 0.266-0.055 0.536-0.089 0.808-0.101z" fill="#704c45"/>
<path d="m155 243c-0.037 0.026-0.364-0.528-0.966-1.33-0.347-0.469-0.756-0.89-1.21-1.25-0.585-0.414-1.23-0.731-1.92-0.94-1.26-0.438-2.46-1.01-3.6-1.7-0.486-0.258-0.945-0.562-1.37-0.908 0.509 0.206 1 0.453 1.47 0.739 1.15 0.636 2.36 1.18 3.6 1.61 0.712 0.219 1.38 0.556 1.98 0.998 0.471 0.382 0.881 0.835 1.21 1.34 0.229 0.34 0.439 0.693 0.629 1.06 0.079 0.119 0.14 0.249 0.179 0.386z" fill="#704c45"/>
<path d="m109 119-5.81 4s-7.23-0.433-12.5 1.35c-2.91 0.993-6.44 2.19-10.3 6.06-3.49 3.53-6.01 7.91-7.3 12.7l-7.03 58.5-10.7 41.3h71v-52.3l6.8-24s-1.76-2.77-1.71-3.87c0.053-1.1 4.02-26.7 4.02-26.7l-8.09-9.68z" fill="#de5836"/>
<path d="m134 135s4.02 1.88 5 8.89 8.1 61.2 8.1 61.2-7.86 1.82-15 2.64l-9.03 1.54-0.227-36.2z" fill="#de5836"/>
<g opacity=".2">
<path d="m80.4 242c12.1-14.5 14-35.4 26.2-49.8l-7.48 4.22c1.33-12.5 2.6-25.4-1.58-37.2-2.22 28.2-8.09 56-17.5 82.8" fill="#262626"/>
</g>
<path d="m99.7 136c-0.274 22.3-1.3 44.6-3.07 66.9-0.219 1.73-0.6 3.44-1.14 5.11-0.264 0.844-0.821 1.56-1.57 2.03-0.75 0.468-1.64 0.652-2.52 0.518l-14.6-2.2c-2.53-0.428-3.5-0.766-4.26-2.4-0.51-1.13-0.748-2.37-0.697-3.61 0.56-19.9-1.18-30.5 0-49.3" fill="#de5836"/>
<g fill="#262626">
<path d="m71.9 153v0.385c0 0.254-0.0264 0.644-0.0475 1.14-0.0528 1-0.121 2.48-0.18 4.38s-0.106 4.22-0.116 6.93c-0.0105 2.71 0.0423 5.78 0.137 9.18 0.19 6.8 0.528 14.9 0.396 23.9 0 1.12-0.0475 2.26-0.0739 3.42-0.0425 1.15 0.163 2.3 0.602 3.36 0.187 0.549 0.516 1.04 0.954 1.42 0.438 0.38 0.969 0.636 1.54 0.743 1.18 0.272 2.37 0.484 3.56 0.633l7.39 1.11 3.78 0.57c0.628 0.09 1.28 0.206 1.9 0.27 0.625 0.04 1.25-0.083 1.81-0.359 0.561-0.281 1.04-0.703 1.39-1.22 0.321-0.542 0.552-1.13 0.686-1.75 0.356-1.21 0.631-2.45 0.824-3.7 0.232-2.5 0.401-5 0.586-7.43 0.359-4.88 0.665-9.59 0.935-14.1 0.528-8.98 0.892-17.1 1.14-23.9 0.243-6.8 0.38-12.3 0.465-16.1 0.0423-1.9 0.0739-3.37 0.0951-4.38 0-0.496 0.0105-0.876 0.0316-1.14v1.14c0 1.01-0.0264 2.48-0.0475 4.38-0.0475 3.8-0.153 9.31-0.375 16.1-0.222 6.8-0.565 14.9-1.06 23.9-0.264 4.49-0.565 9.21-0.919 14.1-0.18 2.44-0.348 4.92-0.586 7.45-0.196 1.27-0.473 2.52-0.829 3.75-0.142 0.642-0.387 1.26-0.723 1.82-0.372 0.564-0.888 1.02-1.49 1.32-0.604 0.299-1.28 0.434-1.95 0.391-0.665-0.069-1.28-0.185-1.92-0.275l-11.2-1.68c-1.21-0.151-2.41-0.366-3.59-0.644-0.605-0.137-1.17-0.411-1.65-0.803-0.446-0.421-0.792-0.937-1.01-1.51-0.452-1.09-0.664-2.27-0.623-3.45 0.0282-1.15 0.0546-2.29 0.0792-3.41 0.164-8.98-0.174-17.1-0.333-23.9-0.0845-3.4-0.116-6.48-0.1-9.18 0.0159-2.7 0.0792-5.03 0.164-6.93s0.158-3.38 0.227-4.38l0.0792-1.14c0.0211-0.28 0.0369-0.412 0.0369-0.412z"/>
<path d="m126 211c-6e-3 -0.057-6e-3 -0.113 0-0.169v-0.491c0-0.454 0.037-1.09 0.063-1.9 0.032-1.65 0.238-4.03 0.581-6.96 0.216-1.46 0.396-3.07 0.739-4.75 0.158-0.856 0.301-1.74 0.496-2.64 0.196-0.898 0.391-1.84 0.597-2.79 0.855-3.81 1.95-7.96 2.97-12.3 2.11-8.75 2.87-16.9 2.7-22.8l-0.143-3.97c-0.063-1.17-0.179-2.18-0.243-2.99-0.063-0.819-0.116-1.44-0.153-1.9 0-0.206-0.026-0.364-0.032-0.491-5e-3 -0.127 0-0.169 0-0.169 0.018 0.053 0.029 0.108 0.032 0.164l0.063 0.491c0.048 0.449 0.117 1.08 0.206 1.89 0.09 0.808 0.206 1.82 0.285 2.99 0.08 1.17 0.117 2.51 0.185 3.98 0.217 5.9-0.501 14.1-2.64 22.9-1.02 4.39-2.11 8.53-2.99 12.3-0.211 0.951-0.412 1.88-0.613 2.78-0.2 0.903-0.338 1.78-0.528 2.64-0.348 1.7-0.528 3.3-0.765 4.75-0.37 2.92-0.602 5.28-0.666 6.95-0.052 0.807-0.089 1.44-0.121 1.9 0 0.206-0.026 0.364-0.037 0.491 7e-3 0.047 0.011 0.095 0.011 0.143z"/>
<path d="m126 175c-0.06 0.088-0.129 0.169-0.206 0.243l-0.628 0.655c-0.528 0.57-1.36 1.37-2.38 2.34-2.03 1.94-4.94 4.54-8.32 7.19-3.38 2.66-6.58 4.87-8.98 6.38-1.19 0.761-2.16 1.36-2.84 1.76l-0.787 0.448c-0.086 0.061-0.18 0.109-0.279 0.143 0.077-0.07 0.162-0.132 0.253-0.185l0.755-0.501c0.665-0.423 1.62-1.06 2.79-1.82 2.34-1.56 5.52-3.79 8.89-6.44 3.37-2.65 6.29-5.21 8.36-7.12 1.06-0.95 1.86-1.73 2.43-2.27l0.66-0.618c0.079-0.081 0.17-0.151 0.269-0.206z"/>
</g>
<g opacity=".2">
<path d="m134 164c-1.73 16.1-7.46 33.6-7.96 43.8 2.27-7.23 5.14-14.1 7.25-21.4s3.06-15.2 0.708-22.4z" fill="#262626"/>
</g>
<path d="m145 70.4c0.597-0.208 1.14-0.55 1.58-1 0.444-0.45 0.778-0.997 0.977-1.6 0.199-0.6 0.257-1.24 0.171-1.86-0.087-0.626-0.317-1.22-0.672-1.75-0.528-0.813-1.38-1.42-1.87-2.27-0.349-0.736-0.628-1.5-0.835-2.29-0.476-1.22-1.23-2.32-2.21-3.19-0.978-0.874-2.15-1.51-3.42-1.84-2.56-0.648-5.27-0.33-7.61 0.892-0.929 0.47-1.84 1.06-2.87 1.15s-1.98-0.317-2.96-0.528c-1.18-0.211-2.39-0.11-3.52 0.294-1.13 0.403-2.13 1.09-2.91 2.01-0.778 0.911-1.3 2.01-1.53 3.19-0.222 1.18-0.132 2.39 0.261 3.52-1.38 0.22-2.63 0.921-3.54 1.98-0.909 1.06-1.41 2.4-1.42 3.8s0.479 2.75 1.38 3.82c0.895 1.07 2.14 1.79 3.52 2.02 1.67 0.301 3.37-0.132 5.03-0.528 6.7-1.54 13.6-2.31 20.4-2.28" fill="#262626"/>
<path d="m110 107c-2.54-4.24-3.51-9.23-2.74-14.1 0.787-4.83 2.75-10.7 6.47-13.8-1.62-2.64-0.264-4.98 1.75-7.34 2.02-2.37 5.02-3.7 8.02-4.48 4.49-1.2 9.19-1.45 13.8-0.729 3.73 0.586 8.54 2.2 8.51 4.96-0.037 2.89-2.11 3.77-2.11 3.77 2.4 1.36 4.47 3.24 6.06 5.5 3.74 5.35 4.65 10.2 3.03 15.1-1.62 4.87-3.47 8.55-7.1 11.1" fill="#de5836"/>
<path d="m142 112c0.632-0.422 1.36-0.685 2.11-0.766l-0.137-0.037c0.136-2e-3 0.272 7e-3 0.406 0.027 0.253-0.011 0.505 0.03 0.741 0.121 0.237 0.091 0.452 0.229 0.632 0.407 0.722 0.47 1.24 1.19 1.46 2.03 0.149 0.732 0.094 1.49-0.159 2.2s-0.695 1.32-1.28 1.79c-0.445 0.448-1.02 0.749-1.64 0.866-0.621 0.116-1.26 0.041-1.84-0.214-0.577-0.256-1.06-0.681-1.39-1.22-0.33-0.538-0.49-1.16-0.458-1.79-0.05-0.652 0.067-1.31 0.338-1.9 0.272-0.595 0.689-1.11 1.21-1.5z" fill="#455a64"/>
<path d="m108 123 5.87-38.7c0.174-0.936 0.693-1.77 1.46-2.35s1.71-0.837 2.66-0.743l20.8-0.913c6.47 0.639 9.07 9.31 8.16 15.7-1.01 7.15-2.54 15.8-4.46 20.9-3.87 10.2-12.3 9.92-12.3 9.92s-1.58 7.33-2.41 11.2l-4.32 15.2z" fill="#9b6e65"/>
<g fill="#262626">
<path d="m143 105c-0.069 0.353-0.273 0.666-0.569 0.872-0.295 0.206-0.659 0.289-1.02 0.231-0.175-0.022-0.344-0.08-0.497-0.168-0.153-0.089-0.287-0.208-0.394-0.349s-0.184-0.302-0.228-0.473c-0.043-0.171-0.053-0.35-0.027-0.525 0.07-0.353 0.274-0.666 0.569-0.872 0.296-0.206 0.66-0.289 1.02-0.231 0.176 0.022 0.345 0.08 0.498 0.168 0.153 0.089 0.287 0.208 0.393 0.349 0.107 0.141 0.185 0.302 0.228 0.473 0.044 0.172 0.053 0.35 0.027 0.525z"/>
<path d="m145 100c-0.205 0.143-1.06-0.828-2.54-1.13-1.48-0.301-2.68 0.211-2.8 0-0.063-0.095 0.174-0.38 0.713-0.623 0.723-0.308 1.52-0.385 2.29-0.222 0.76 0.158 1.45 0.552 1.98 1.12 0.38 0.438 0.465 0.787 0.364 0.85z"/>
<path d="m130 102c-0.07 0.354-0.274 0.666-0.569 0.871-0.296 0.205-0.66 0.287-1.02 0.228-0.176-0.022-0.345-0.079-0.499-0.168-0.153-0.088-0.287-0.207-0.394-0.348s-0.184-0.303-0.228-0.474c-0.043-0.172-0.052-0.351-0.025-0.526 0.069-0.353 0.274-0.665 0.569-0.87 0.296-0.205 0.66-0.287 1.02-0.228 0.175 0.023 0.345 0.08 0.498 0.169s0.286 0.207 0.393 0.348 0.184 0.302 0.228 0.474c0.044 0.171 0.053 0.35 0.027 0.524z"/>
<path d="m130 97.6c-0.206 0.143-1.08-0.829-2.54-1.13-1.46-0.301-2.69 0.211-2.81 0-0.063-0.095 0.174-0.38 0.713-0.623 0.723-0.308 1.52-0.384 2.29-0.216 0.763 0.152 1.46 0.544 1.98 1.12 0.375 0.428 0.486 0.787 0.365 0.85z"/>
<path d="m133 110c0-0.085 0.95-0.053 2.47 0.063 0.38 0.042 0.749 0.037 0.866-0.201 0.116-0.378 0.116-0.783 0-1.16-0.164-0.977-0.338-2-0.528-3.07-0.697-4.37-1.12-7.92-0.945-7.95 0.174-0.0317 0.887 3.49 1.58 7.86 0.158 1.06 0.316 2.11 0.464 3.08 0.141 0.499 0.101 1.03-0.111 1.5-0.081 0.12-0.188 0.22-0.313 0.292-0.126 0.073-0.266 0.115-0.41 0.125-0.219 0.015-0.439 1e-3 -0.655-0.042-1.51-0.227-2.43-0.412-2.42-0.496z"/>
</g>
<path d="m131 127c-5-0.955-9.65-3.28-13.4-6.72 0 0 1.94 8 12.7 9.19z" fill="#704c45"/>
<path d="m132 113c-0.231-0.55-0.592-1.04-1.05-1.42s-1-0.643-1.59-0.766c-0.383-0.075-0.778-0.054-1.15 0.059s-0.714 0.316-0.991 0.59c-0.286 0.316-0.48 0.704-0.56 1.12s-0.044 0.85 0.106 1.25c0.189 0.418 0.499 0.77 0.891 1.01s0.847 0.355 1.3 0.332c0.87-0.094 1.7-0.398 2.43-0.887 0.223-0.104 0.42-0.258 0.575-0.449 0.081-0.106 0.133-0.232 0.149-0.364 0.017-0.133-2e-3 -0.268-0.054-0.391" fill="#704c45"/>
<g fill="#262626">
<path d="m129 110c0.238 0.032-0.084 1.62 1.06 3.03 1.14 1.4 2.85 1.58 2.81 1.8 0 0.106-0.438 0.233-1.16 0.106-0.932-0.181-1.77-0.684-2.37-1.42-0.574-0.708-0.85-1.61-0.771-2.52 0.08-0.676 0.333-1.03 0.428-0.998z"/>
<path d="m132 93.7c-0.227 0.37-1.65-0.121-3.41-0.269-1.76-0.148-3.24 0.0317-3.4-0.37-0.063-0.19 0.254-0.528 0.893-0.787 0.84-0.324 1.74-0.445 2.64-0.354 0.9 0.0741 1.77 0.364 2.53 0.845 0.586 0.38 0.834 0.76 0.734 0.934z"/>
<path d="m145 95.9c-0.327 0.28-1.26-0.275-2.47-0.528-1.21-0.254-2.28-0.238-2.44-0.634-0.069-0.19 0.163-0.491 0.676-0.713 0.68-0.252 1.42-0.296 2.12-0.127 0.705 0.169 1.34 0.544 1.84 1.08 0.359 0.412 0.422 0.781 0.279 0.924z"/>
</g>
<path d="m140 83.7s-9.9-2.27-19.8 7.33c-6.53 6.34-9.56 15.4-9.56 15.4l-0.064-18.5 4.6-7.43 7.69-2.4 13.2 2.05 4.39 3.48" fill="#de5836"/>
<path d="m120 80.5c16.6-0.428 28.1 7.51 27.8 20.4l4.96-7.47-6.11-11.7-8.5-4.27-18.7-1.12z" fill="#de5836"/>
<path d="m109 105c0.675-0.452 1.45-0.734 2.26-0.824l-0.148-0.042c0.147-2e-3 0.293 7e-3 0.438 0.026 0.27-0.017 0.54 0.021 0.794 0.112s0.487 0.233 0.685 0.416c0.783 0.507 1.35 1.29 1.58 2.19 0.157 0.788 0.096 1.6-0.177 2.36-0.272 0.756-0.746 1.42-1.37 1.93-0.48 0.482-1.09 0.807-1.76 0.932-0.668 0.125-1.36 0.045-1.98-0.231-0.622-0.276-1.14-0.734-1.5-1.31-0.356-0.579-0.527-1.25-0.491-1.93-0.046-0.696 0.083-1.39 0.375-2.02 0.293-0.633 0.739-1.18 1.3-1.6z" fill="#455a64"/>
<g fill="#fff">
<path d="m113 99.9c-0.247-0.0804-0.47-0.22-0.65-0.407-0.528-0.478-0.921-1.09-1.14-1.76-0.35-1.02-0.287-2.13 0.174-3.1 0.254-0.528 0.581-1.06 0.797-1.58 0.123-0.263 0.179-0.552 0.164-0.842s-0.1-0.572-0.248-0.821c-0.378-0.496-0.828-0.932-1.34-1.29-0.494-0.388-0.904-0.873-1.2-1.43-0.49-0.945-0.674-2.02-0.528-3.07 0.088-0.702 0.341-1.37 0.739-1.96 0.13-0.225 0.311-0.417 0.528-0.56-0.511 0.766-0.836 1.64-0.95 2.56-0.094 0.983 0.11 1.97 0.586 2.84 0.282 0.504 0.665 0.945 1.12 1.29 0.547 0.386 1.03 0.857 1.43 1.39 0.183 0.307 0.29 0.654 0.309 1.01s-0.049 0.713-0.198 1.04c-0.243 0.612-0.587 1.12-0.829 1.62-0.438 0.88-0.526 1.89-0.249 2.84 0.184 0.643 0.515 1.23 0.967 1.73 0.306 0.338 0.533 0.491 0.512 0.523z"/>
<path d="m115 77.8c-0.481 0.72-0.822 1.52-1 2.37-0.161 0.913-0.071 1.85 0.259 2.72 0.354 0.982 1.21 1.78 2.05 2.74 0.431 0.473 0.758 1.03 0.961 1.64 0.159 0.586 0.146 1.21-0.037 1.78-0.322 1.06-0.845 1.91-0.945 2.68-0.13 0.606-0.028 1.24 0.285 1.77 0.237 0.364 0.501 0.454 0.475 0.496-0.026 0.0422-0.069 0-0.185-0.0528-0.165-0.0802-0.311-0.196-0.428-0.338-0.199-0.274-0.343-0.585-0.421-0.915-0.078-0.33-0.089-0.672-0.033-1.01 0.074-0.871 0.592-1.75 0.861-2.75 0.148-0.507 0.148-1.05 0-1.55-0.19-0.546-0.49-1.05-0.882-1.47-0.786-0.908-1.72-1.78-2.11-2.88-0.341-0.937-0.405-1.95-0.185-2.93 0.14-0.648 0.413-1.26 0.803-1.8 0.312-0.375 0.523-0.528 0.539-0.512z"/>
<path d="m125 87.7s-0.153 0.137-0.449 0c-0.17-0.0815-0.31-0.217-0.396-0.385-0.112-0.225-0.146-0.482-0.095-0.729 0.085-0.528 0.528-1.06 0.65-1.58 0.121-0.528-0.227-1.14-0.782-1.58-0.6-0.407-1.1-0.95-1.45-1.58-0.262-0.544-0.389-1.14-0.37-1.75-0.029-0.556 0.148-1.1 0.496-1.54-0.106 0.504-0.168 1.02-0.185 1.53 0.026 0.552 0.17 1.09 0.423 1.58 0.34 0.583 0.807 1.08 1.37 1.46 0.307 0.244 0.563 0.546 0.755 0.887 0.192 0.346 0.239 0.754 0.132 1.14-0.221 0.692-0.638 1.11-0.734 1.55-0.054 0.16-0.057 0.333-9e-3 0.494s0.146 0.305 0.279 0.408c0.2 0.106 0.359 0.0686 0.364 0.106z"/>
<path d="m130 79.8s0.111 0 0.206 0.132c0.058 0.0977 0.094 0.207 0.104 0.321 0.01 0.113-6e-3 0.228-0.046 0.334-0.117 0.27-0.262 0.527-0.433 0.766-0.141 0.276-0.209 0.583-0.196 0.892 0.052 0.598 0.244 1.17 0.56 1.68 0.238 0.417 0.38 0.686 0.327 0.723-0.052 0.0369-0.274-0.164-0.586-0.554-0.439-0.518-0.7-1.16-0.744-1.84-0.017-0.392 0.084-0.78 0.29-1.11 0.201-0.296 0.402-0.48 0.491-0.671 0.05-0.104 0.078-0.217 0.082-0.333 5e-3 -0.115-0.014-0.23-0.055-0.338z"/>
<path d="m147 77.4s-0.064 0.164-0.264 0.391c-0.201 0.227-0.528 0.528-0.834 0.914-0.183 0.225-0.32 0.484-0.402 0.762-0.083 0.278-0.11 0.57-0.079 0.858 0.11 0.768 0.121 1.55 0.032 2.32-0.16 0.792-0.554 1.52-1.13 2.09-0.467 0.456-1.04 0.786-1.67 0.961-1.08 0.29-1.76 0.0422-1.74 0 0.557-0.0509 1.11-0.152 1.65-0.301 0.622-0.218 1.18-0.595 1.61-1.09 0.431-0.498 0.725-1.1 0.852-1.75 0.082-0.739 0.082-1.48 0-2.22-0.02-0.332 0.027-0.666 0.138-0.98 0.112-0.314 0.286-0.602 0.511-0.847 0.295-0.306 0.615-0.587 0.956-0.84 0.222-0.18 0.354-0.28 0.375-0.259z"/>
<path d="m153 86.4c0.048 0.0792-0.528 0.211-0.903 0.95-0.179 0.386-0.48 0.824-0.733 1.3-0.266 0.567-0.585 1.11-0.951 1.62-0.382 0.453-0.874 0.801-1.43 1.01s-1.15 0.277-1.74 0.192c-0.487-0.0234-0.948-0.227-1.29-0.57 0.037-0.0739 0.501 0.216 1.32 0.264 0.525 0.0327 1.05-0.0566 1.54-0.261 0.484-0.204 0.915-0.518 1.26-0.917 0.351-0.488 0.665-1 0.94-1.54 0.295-0.528 0.602-0.887 0.823-1.26 0.181-0.314 0.456-0.564 0.787-0.713 0.233-0.095 0.37-0.106 0.38-0.0792z"/>
<path d="m152 97.3c0.048 0.0317-0.042 0.275-0.338 0.554-0.399 0.366-0.914 0.581-1.46 0.607-0.541 0.026-1.07-0.138-1.51-0.464-0.322-0.254-0.433-0.486-0.391-0.528 0.043-0.0423 0.792 0.597 1.88 0.528 1.08-0.0687 1.73-0.787 1.82-0.697z"/>
<path d="m138 73.8c0.032 0.0739-0.528 0.227-1.1 0.829-0.377 0.38-0.656 0.845-0.814 1.36s-0.191 1.05-0.094 1.58c0.132 0.602 0.39 1.29 0.211 1.93-0.146 0.533-0.461 1-0.898 1.34-0.352 0.341-0.793 0.575-1.27 0.676-0.037-0.0686 0.459-0.317 1.06-0.903 0.349-0.324 0.597-0.742 0.713-1.2 0.126-0.528-0.095-1.06-0.249-1.75-0.138-0.657-0.072-1.34 0.19-1.96 0.209-0.498 0.531-0.941 0.94-1.29 0.344-0.363 0.816-0.578 1.32-0.602z"/>
<path d="m126 79.3c-0.106-0.0739 0.422-0.945 0.681-2.11 0.259-1.17 0.174-2.21 0.306-2.23s0.423 1.03 0.127 2.32-1.04 2.1-1.11 2.02z"/>
<path d="m119 76.7c0-0.0316 0.117-0.095 0.249-0.285 0.19-0.272 0.289-0.597 0.285-0.929 0-0.855-0.602-1.95-1.06-3.28-0.213-0.634-0.3-1.3-0.259-1.97 0.037-0.575 0.242-1.13 0.591-1.58 0.231-0.308 0.555-0.532 0.924-0.639 0.27-0.0581 0.417 0 0.412 0s-0.142 0.0422-0.359 0.137c-0.297 0.149-0.547 0.378-0.723 0.66-0.528 0.697-0.597 1.96-0.169 3.23s1.06 2.43 0.94 3.43c-0.017 0.398-0.183 0.775-0.465 1.06-0.201 0.195-0.37 0.195-0.37 0.174z"/>
<path d="m130 74.1c0-0.0265 0.095-0.127 0.296-0.28 0.2-0.153 0.528-0.364 0.639-0.718 1e-3 -0.491-0.157-0.968-0.449-1.36-0.301-0.496-0.734-0.982-1.16-1.58-0.462-0.536-0.732-1.21-0.766-1.92 0.085-0.57 0.341-1.1 0.734-1.52 0.623-0.702 1.09-1.02 1.13-0.982-0.261 0.414-0.556 0.806-0.882 1.17-0.311 0.392-0.51 0.861-0.575 1.36 0.066 0.604 0.317 1.17 0.718 1.63 0.797 1.06 1.76 2.14 1.55 3.27-0.172 0.359-0.477 0.637-0.85 0.776-0.233 0.137-0.37 0.185-0.386 0.158z"/>
<path d="m140 74.4c-0.027-0.0634 0.485-0.169 0.771-0.834 0.156-0.379 0.194-0.797 0.11-1.2-0.12-0.518-0.284-1.02-0.491-1.52-0.224-0.529-0.337-1.1-0.332-1.67 0.04-0.488 0.249-0.948 0.591-1.3 0.528-0.628 1.14-0.639 1.12-0.56-0.348 0.181-0.65 0.439-0.882 0.755-0.255 0.32-0.404 0.711-0.428 1.12 0.024 0.519 0.139 1.03 0.338 1.51 0.219 0.508 0.38 1.04 0.481 1.58 0.08 0.481-1e-3 0.975-0.233 1.4-0.152 0.292-0.4 0.524-0.702 0.655-0.211 0.0792-0.348 0.0528-0.348 0.0528z"/>
</g>
<g fill="#262626">
<path d="m144 74.8c-0.412-0.0302-0.82-0.0992-1.22-0.206-0.776-0.174-1.91-0.37-3.31-0.576-3.65-0.497-7.36-0.442-11 0.164-3.63 0.67-7.18 1.7-10.6 3.08l-3.12 1.25c-0.372 0.177-0.761 0.316-1.16 0.417 0.345-0.227 0.711-0.42 1.09-0.576 0.713-0.348 1.76-0.829 3.07-1.38 3.42-1.47 6.99-2.56 10.6-3.23 3.68-0.618 7.44-0.63 11.1-0.037 1.11 0.181 2.21 0.421 3.3 0.718 0.405 0.0885 0.8 0.214 1.18 0.375z"/>
<path d="m117 79.3h0.111l0.85-0.169 0.718-0.116c1.53-0.217 3.07-0.256 4.61-0.116 2.28 0.211 4.52 0.702 6.67 1.46 1.22 0.412 2.48 0.929 3.76 1.49 1.29 0.565 2.6 1.19 3.9 1.92 5.28 2.82 8.83 7.29 10.1 11 0.507 1.46 0.796 2.98 0.855 4.52 0.032 0.528 0.027 0.966 0 1.26v0.328c-4e-3 0.037-4e-3 0.074 0 0.111 7e-3 -0.037 7e-3 -0.075 0-0.111v-0.328c0-0.285 0.043-0.712 0.032-1.26-0.026-1.56-0.291-3.1-0.787-4.57-1.22-3.74-4.82-8.28-10.1-11.1-1.31-0.729-2.64-1.36-3.92-1.93-1.28-0.57-2.56-1.06-3.79-1.49-2.16-0.751-4.4-1.23-6.67-1.43-1.55-0.122-3.1-0.0547-4.64 0.201l-0.718 0.137-0.528 0.132-0.317 0.0845c-0.063 0.0158-0.095 0.0264-0.095 0.0317z"/>
<path d="m137 83.7c-0.115-0.0266-0.231-0.046-0.348-0.0581-0.335-0.0456-0.671-0.072-1.01-0.0792-1.24-0.0269-2.49 0.112-3.7 0.412-3.97 1.06-7.62 3.07-10.7 5.84-1.66 1.52-3.18 3.18-4.56 4.96-1.15 1.43-2.22 2.92-3.2 4.48-0.665 1.04-1.25 2.14-1.76 3.27-0.169 0.402-0.296 0.718-0.37 0.935-0.046 0.108-0.08 0.222-0.1 0.338 0.057-0.102 0.106-0.208 0.148-0.317 0.088-0.218 0.225-0.525 0.411-0.919 0.54-1.11 1.15-2.18 1.82-3.21 0.995-1.53 2.07-3.01 3.23-4.42 1.38-1.76 2.9-3.41 4.55-4.92 3-2.75 6.61-4.76 10.5-5.86 1.19-0.31 2.41-0.475 3.64-0.491 0.433 0 0.776 0 1 0.0369 0.121 0.0139 0.243 0.0157 0.364 0.0053z"/>
</g>
<path d="m47.5 241s3.23-1.06 5.28-1.66c1.15-0.333 5.89-2.43 8.77-2.97 2.41-0.454 9.08-3.86 10.1-4.56 1.03-0.696 5.12-23.5 5.12-23.5l15.4 2.32s-8.22 22-8.74 24.1c-0.517 2.1-2.47 7.52-2.47 7.52h-33.5z" fill="#9b6e65"/>
<path d="m74.5 242c0-0.048 0.528-0.09 1.25-0.407 0.974-0.396 1.8-1.09 2.36-1.98s0.819-1.94 0.748-2.99c-0.0475-0.808-0.232-1.29-0.185-1.3 0.0475-0.016 0.0792 0.105 0.158 0.327 0.112 0.31 0.186 0.633 0.222 0.961 0.127 1.1-0.123 2.21-0.709 3.15s-1.47 1.65-2.52 2.02c-0.31 0.112-0.633 0.186-0.961 0.222-0.12 0.027-0.244 0.027-0.364 0z" fill="#704c45"/>
<path d="m72.5 241c-0.0996 0.055-0.204 0.101-0.312 0.137-0.31 0.109-0.627 0.192-0.95 0.249-1.2 0.125-2.41 0.151-3.61 0.079-0.819-0.022-1.64 0.076-2.43 0.29-0.85 0.254-1.69 0.718-2.64 1.06-2.15 0.677-4.47 0.499-6.49-0.496l-0.327-0.159 0.348-0.095 0.312-0.089c1.1-0.316 2.14-0.791 3.1-1.41 0.884-0.602 1.72-1.27 2.5-2.01 1.39-1.22 3.02-2.12 4.79-2.64 1.18-0.361 2.37-0.647 3.59-0.855l0.993-0.164c0.113-0.024 0.228-0.036 0.343-0.037-0.108 0.046-0.222 0.076-0.338 0.09l-0.977 0.217c-1.2 0.246-2.38 0.558-3.55 0.934-1.73 0.54-3.32 1.44-4.68 2.64-0.782 0.749-1.62 1.43-2.52 2.04-0.98 0.633-2.05 1.12-3.17 1.45l-0.317 0.09v-0.253c1.96 0.961 4.21 1.14 6.3 0.496 0.945-0.301 1.8-0.766 2.67-1.02 0.817-0.211 1.66-0.302 2.5-0.269 1.2 0.088 2.4 0.088 3.59 0 0.824-0.111 1.26-0.307 1.27-0.275z" fill="#704c45"/>
<path d="m289 202-8.96 20.7-8.31 26.7 80.5 0.381-1.37-50.6-39.6-4.03z" fill="#262626"/>
<path d="m246 206s-6.48 2.46-11.6 3.96c-5.07 1.49-14.1 7.08-14.1 7.08s-9.22 8.31-8.89 9.4c0.332 1.1 1.42 1.63 2.82 0.502 1.4-1.12 8.31-5.21 8.31-5.21s0.444 2.31 1.94 2.58c0.754 0.186 1.55 0.15 2.28-0.105 0 0 0.612 2.17 1.69 2.88 0.631 0.418 1.33 0.716 2.07 0.882 0.02 0.392 0.171 0.766 0.43 1.06s0.61 0.494 0.996 0.565c0.928 0.263 1.89 0.377 2.86 0.338 0 0 4.81-2.91 5.58-4.32 0.766-1.4 1.7-3.3 1.7-3.3l1.98-0.993 6.1-1.06z" fill="#c78976"/>
<g fill="#925b4c">
<path d="m239 217c-0.168 0.269-0.368 0.515-0.596 0.734-0.626 0.618-1.35 1.13-2.14 1.5-1.2 0.587-2.5 0.945-3.84 1.06-0.806 0.084-1.62 0.05-2.42-0.1-0.88-0.159-1.72-0.503-2.46-1.01l0.158-0.216c0.598 0.443 1.17 0.924 1.7 1.44 0.284 0.274 0.54 0.574 0.765 0.898 0.231 0.341 0.389 0.725 0.465 1.13 0.09 0.481 0.078 0.975-0.035 1.45-0.114 0.476-0.327 0.922-0.625 1.31l-0.064 0.079-0.095-0.036c-0.914-0.383-1.78-0.868-2.59-1.45-0.781-0.528-1.5-1.1-2.18-1.63-0.676-0.533-1.3-1.06-1.9-1.53-0.264-0.254-0.466-0.566-0.589-0.911-0.123-0.346-0.163-0.716-0.118-1.08 0.049-0.308 0.141-0.606 0.274-0.888 0.111-0.269 0.222-0.528 0.338-0.744 0.227-0.449 0.449-0.824 0.639-1.12s0.354-0.528 0.47-0.66c0.054-0.078 0.116-0.151 0.185-0.216-0.038 0.086-0.086 0.167-0.143 0.243-0.1 0.153-0.248 0.385-0.427 0.686-0.218 0.368-0.418 0.747-0.597 1.14-0.111 0.227-0.216 0.476-0.317 0.74-0.122 0.27-0.204 0.556-0.243 0.85-0.037 0.334 5e-3 0.672 0.121 0.987 0.117 0.315 0.305 0.599 0.55 0.829 0.57 0.465 1.24 0.966 1.9 1.49 0.665 0.528 1.39 1.08 2.17 1.61 0.793 0.561 1.65 1.03 2.54 1.4l-0.159 0.048c0.274-0.358 0.47-0.77 0.574-1.21 0.105-0.439 0.116-0.894 0.034-1.34-0.071-0.368-0.215-0.718-0.423-1.03-0.215-0.307-0.459-0.594-0.729-0.855-0.522-0.512-1.08-0.986-1.67-1.42l0.158-0.216c0.703 0.49 1.5 0.823 2.34 0.977 0.775 0.154 1.57 0.195 2.36 0.121 1.31-0.104 2.59-0.443 3.78-1 0.789-0.358 1.52-0.839 2.15-1.43 0.428-0.38 0.634-0.665 0.66-0.639z"/>
<path d="m231 223c0.254-0.129 0.519-0.235 0.792-0.317 0.628-0.236 1.21-0.579 1.72-1.01 0.258-0.239 0.441-0.547 0.528-0.887 0.059-0.272 0.018-0.556-0.113-0.802-0.132-0.245-0.346-0.436-0.605-0.539 0 0 0.09-0.032 0.243 0 0.221 0.068 0.409 0.214 0.528 0.412 0.188 0.284 0.262 0.63 0.206 0.966-0.082 0.408-0.293 0.778-0.602 1.06-0.533 0.468-1.16 0.811-1.85 1-0.27 0.105-0.561 0.147-0.85 0.122z"/>
<path d="m232 227c0.373-0.277 0.763-0.531 1.17-0.76 0.364-0.233 0.787-0.528 1.24-0.856 0.494-0.353 0.954-0.752 1.37-1.19 0.2-0.224 0.343-0.492 0.418-0.782 0.055-0.266 0.02-0.543-0.101-0.786-0.105-0.212-0.253-0.4-0.435-0.552s-0.393-0.264-0.621-0.33c-0.318-0.096-0.65-0.138-0.982-0.121-0.124 0.016-0.25 0.016-0.375 0 0.115-0.061 0.241-0.097 0.37-0.106 0.351-0.059 0.71-0.046 1.06 0.037 0.262 0.064 0.508 0.183 0.721 0.348 0.212 0.166 0.388 0.375 0.514 0.613 0.146 0.296 0.193 0.631 0.132 0.956-0.082 0.334-0.243 0.643-0.47 0.902-0.431 0.458-0.913 0.865-1.44 1.22-0.47 0.332-0.908 0.607-1.28 0.824-0.399 0.256-0.833 0.456-1.29 0.591z"/>
<path d="m238 227c0.095-0.231 0.171-0.469 0.227-0.712 0.06-0.286 0.038-0.582-0.064-0.855-0.101-0.274-0.277-0.513-0.508-0.691-0.23-0.178-0.507-0.287-0.797-0.315-0.29-0.029-0.582 0.025-0.843 0.155-0.422 0.185-0.597 0.438-0.634 0.407-0.036-0.032 0.101-0.328 0.528-0.581 0.292-0.173 0.628-0.255 0.967-0.235 0.338 0.02 0.663 0.141 0.931 0.347 0.269 0.207 0.47 0.489 0.577 0.811 0.107 0.321 0.115 0.667 0.023 0.994-0.116 0.496-0.391 0.697-0.407 0.675z"/>
</g>
<path d="m278 234-1.7 2.5h-12.6l-16.1 6.48h41.6c0.353-0.438 1.44-2.11 1.44-2.11z" fill="#c78976"/>
<g fill="#ffd230">
<path d="m336 157c-9.08-14.7-28.6-32.6-30.2-33.5-1.65-0.829-28.3-2.5-28.3-2.5l-21.1 14.9-6.99 10.4c-0.956 2.97-2.64 7.55-1.87 10.6l0.649 5.15 22 14.2 10.9 6.38 6.08 8.63-0.486 14.5 8.61-1.64s13.3 1.31 26 1.62c12.7 0.312 30.2-3.72 30.2-3.72s-5.28-28.7-15.4-45z"/>
<path d="m285 146 7.46 41.4-15.5 45.6 15.5 8.45s11-19.4 16-31.2c4.97-11.8 6.78-18.3 6.78-18.3s0-44.7-1.58-49.9c-1.58-5.15-6.83-15.4-12.4-14.8s-18.6 6.22-16.3 18.8z"/>
<path d="m248 162 13.3 32.6c-0.723 1.19-1.26 2.48-1.58 3.84l-16.6 8.21 4.88 15.7s20.7-6.86 23.7-8.45 11.4-7.61 12.9-12.5c1.47-4.9-6.67-22.2-6.67-22.2z"/>
</g>
<g fill="#262626">
<path d="m281 182c-0.099-0.038-0.195-0.085-0.285-0.142l-0.787-0.439c-0.681-0.39-1.66-0.961-2.87-1.69-1.2-0.729-2.64-1.58-4.15-2.64-0.765-0.528-1.58-1.1-2.35-1.74l-2.41-1.99-8.41-7.04-2.52-2.16-0.681-0.597c-0.082-0.065-0.157-0.139-0.222-0.221 0.095 0.047 0.182 0.107 0.259 0.179l0.708 0.528c0.639 0.528 1.52 1.23 2.59 2.11 2.19 1.81 5.16 4.27 8.45 6.98l2.4 2c0.782 0.629 1.58 1.2 2.32 1.73 1.52 1.06 2.92 1.96 4.11 2.71l2.81 1.76 0.76 0.486c0.095 0.047 0.184 0.105 0.264 0.174z"/>
<path d="m283 123c0.402 0.468 0.744 0.984 1.02 1.54 0.759 1.51 1.16 3.17 1.18 4.86 0.014 1.16-0.126 2.32-0.417 3.45-0.356 1.3-0.889 2.54-1.58 3.7-1.62 2.6-3.82 4.8-6.42 6.42-2.55 1.71-5.52 2.7-8.6 2.86-2.52 0.102-5.01-0.642-7.06-2.11-1.38-0.977-2.48-2.31-3.17-3.85-0.11-0.24-0.204-0.487-0.28-0.74-0.066-0.181-0.116-0.369-0.148-0.559-0.031-0.138-0.053-0.254-0.074-0.349-7e-3 -0.04-7e-3 -0.081 0-0.121 0.171 0.587 0.375 1.16 0.613 1.73 0.71 1.5 1.8 2.8 3.17 3.74 2.02 1.42 4.46 2.14 6.93 2.03 3.02-0.172 5.94-1.15 8.45-2.84 2.56-1.6 4.73-3.77 6.34-6.34 0.688-1.12 1.22-2.33 1.58-3.6 0.293-1.11 0.44-2.24 0.439-3.39 1e-3 -1.67-0.37-3.31-1.09-4.82-0.108-0.237-0.23-0.468-0.364-0.691-0.111-0.196-0.212-0.365-0.301-0.491l-0.196-0.296c-0.01-0.095-0.031-0.132-0.026-0.137z"/>
<path d="m277 142c-0.074 0.026-0.459-0.829-1.11-1.77-0.649-0.94-1.31-1.61-1.25-1.67 1.16 0.837 2 2.05 2.36 3.44z"/>
<path d="m282 137c-0.55-0.482-1.14-0.915-1.77-1.29-0.668-0.298-1.36-0.538-2.07-0.718 0.762-0.043 1.52 0.122 2.2 0.476 0.676 0.354 1.24 0.885 1.64 1.54z"/>
<path d="m285 131c-0.026 0.074-0.802-0.164-1.78-0.296s-1.79-0.126-1.8-0.206c0.595-0.176 1.22-0.2 1.83-0.068 0.619 0.044 1.22 0.24 1.74 0.57z"/>
<path d="m284 125c-0.516 0.189-1.04 0.337-1.58 0.444-0.516 0.191-1.05 0.346-1.58 0.464 0.436-0.367 0.957-0.617 1.52-0.728 0.528-0.194 1.1-0.256 1.65-0.18z"/>
<path d="m268 145c-0.318-0.503-0.463-1.1-0.412-1.69-0.042-0.595 0.108-1.19 0.427-1.69 0.08 0.027-0.153 0.761-0.153 1.69s0.211 1.66 0.138 1.69z"/>
<path d="m260 143c0.179-0.413 0.437-0.786 0.76-1.1 0.475-0.56 0.914-0.972 0.966-0.919 0.053 0.053-0.279 0.528-0.755 1.1-0.475 0.57-0.913 0.966-0.971 0.919z"/>
<path d="m314 142s0 0.074 0.064 0.222c0.063 0.219 0.112 0.441 0.148 0.666 0.116 0.591 0.221 1.48 0.338 2.64 0.221 2.32 0.422 5.74 0.586 10.1 0.327 8.72 0.528 21.2 0.591 36.2v0.031c-1.11 3.79-2.52 7.66-4.07 11.7-1.55 4-3.24 8.13-5.23 12.3-3.96 8.28-8.56 16.9-13.5 25.6l-0.068 0.122-0.117-0.069-1.43-0.776-14-7.66-0.1-0.053 0.037-0.111 15.5-45.6v0.053c-2.25-12.6-4.1-23-5.38-30.2-0.639-3.59-1.13-6.39-1.47-8.3-0.164-0.95-0.29-1.68-0.375-2.18-0.084-0.497-0.121-0.745-0.121-0.745s0.058 0.254 0.153 0.739c0.095 0.486 0.227 1.22 0.406 2.17 0.349 1.91 0.866 4.71 1.53 8.3 1.3 7.19 3.17 17.5 5.48 30.1v0.052c-4.38 12.9-9.66 28.6-15.4 45.6l-0.063-0.164 15.4 8.44-0.185 0.053c4.92-8.78 9.5-17.3 13.5-25.6 1.99-4.13 3.7-8.25 5.24-12.2 1.54-3.99 2.97-7.87 4.08-11.6v0.032c0-15-0.206-27.5-0.491-36.2-0.148-4.36-0.328-7.78-0.528-10.1-0.106-1.16-0.201-2.05-0.307-2.64-0.03-0.225-0.072-0.449-0.126-0.67-0.019-0.082-0.033-0.165-0.043-0.249z"/>
<path d="m304 131c-0.811-0.405-1.65-0.758-2.5-1.06-2.08-0.692-4.3-0.825-6.45-0.385-2.15 0.44-4.14 1.44-5.78 2.89-0.669 0.614-1.3 1.27-1.88 1.96 0.106-0.222 0.241-0.43 0.401-0.618 0.404-0.536 0.857-1.03 1.35-1.49 1.64-1.52 3.66-2.57 5.86-3.02s4.47-0.286 6.57 0.47c0.633 0.223 1.24 0.504 1.83 0.84 0.22 0.108 0.425 0.243 0.612 0.401z"/>
</g>
<g fill="#262626" opacity=".3">
<path d="m310 207c0.084-0.221 0.164-0.443 0.248-0.66l-0.137 0.095z"/>
<path d="m319 178c-0.665-6.78-1.54-13.6-3.3-20.1-1.49 11.4 1.44 23.1-0.528 34.5-0.834 4.84-2.54 9.5-4.27 14.1 4.32-2.82 6.92-7.77 7.95-12.8 1.03-5.06 0.666-10.4 0.153-15.6z"/>
<path d="m279 181-18.3-13.8c0.205 5.16 4.13 9.39 8.21 12.6s9.62 6.81 13.5 10.2c-1.25-2.85-2.08-6.1-3.36-8.96z"/>
</g>
<g fill="#fff">
<path d="m287 156c-0.09 0.124-0.189 0.24-0.296 0.349-0.2 0.222-0.528 0.528-0.903 0.955-1.11 1.17-2.35 2.22-3.7 3.12-0.939 0.617-1.97 1.08-3.05 1.38-1.26 0.322-2.58 0.322-3.84 0-1.37-0.4-2.67-1-3.86-1.78-1.25-0.766-2.49-1.66-3.85-2.37-1.3-0.739-2.76-1.18-4.25-1.28-1.39-0.022-2.75 0.422-3.86 1.26-1.01 0.766-1.98 1.6-2.89 2.48-0.809 0.778-1.72 1.44-2.72 1.96-0.828 0.438-1.76 0.633-2.7 0.565-0.706-0.044-1.39-0.272-1.98-0.66-0.377-0.239-0.69-0.565-0.914-0.951-0.079-0.132-0.141-0.274-0.184-0.422 0 0 0.074 0.142 0.232 0.39 0.237 0.364 0.552 0.669 0.924 0.893 0.583 0.359 1.25 0.564 1.93 0.596 0.906 0.05 1.81-0.153 2.6-0.586 0.967-0.526 1.86-1.18 2.64-1.95 0.911-0.9 1.88-1.74 2.89-2.52 0.571-0.41 1.19-0.742 1.85-0.987 0.695-0.243 1.43-0.358 2.16-0.338 1.54 0.099 3.03 0.545 4.37 1.3 1.39 0.723 2.64 1.62 3.87 2.39 1.17 0.771 2.44 1.37 3.78 1.76 0.623 0.175 1.27 0.259 1.92 0.248 0.61 4e-3 1.22-0.067 1.81-0.211 1.06-0.284 2.08-0.731 3-1.32 1.33-0.883 2.57-1.9 3.7-3.04l0.934-0.914c0.115-0.118 0.24-0.226 0.375-0.322z"/>
<path d="m314 153c-0.065 0.079-0.14 0.15-0.221 0.212-0.23 0.18-0.484 0.328-0.755 0.438-1.02 0.379-2.13 0.412-3.17 0.095-2.75-0.634-5.19-3.99-9.3-4.75-0.967-0.225-1.95-0.35-2.95-0.375-0.925-0.012-1.85 0.059-2.76 0.211-1.55 0.258-3.05 0.761-4.44 1.49-1.27 0.694-2.44 1.56-3.48 2.57 0.056-0.084 0.121-0.162 0.195-0.232l0.597-0.634c0.29-0.243 0.633-0.559 1.06-0.881l0.707-0.497c0.248-0.179 0.528-0.317 0.834-0.491 1.4-0.77 2.91-1.3 4.48-1.58 0.927-0.162 1.87-0.24 2.81-0.232 1.01 0.017 2.02 0.143 3 0.375 0.986 0.227 1.94 0.562 2.86 0.998 0.427 0.243 0.86 0.459 1.26 0.707s0.771 0.528 1.14 0.782c1.43 1.06 2.75 1.99 4.04 2.35 1 0.327 2.08 0.327 3.09 0 0.357-0.139 0.696-0.321 1.01-0.544z"/>
<path d="m328 145c0 0.027-0.243 0.138-0.634 0.439-0.541 0.433-0.988 0.972-1.31 1.58-0.473 0.921-0.809 1.91-0.998 2.92-0.214 1.27-0.552 2.52-1.01 3.73-0.526 1.21-1.42 2.22-2.54 2.9-0.909 0.558-1.93 0.903-2.99 1.01-0.709 0.071-1.42 0.015-2.11-0.164-0.182-0.045-0.358-0.107-0.528-0.185-0.127-0.047-0.191-0.074-0.185-0.084 5e-3 -0.011 0.269 0.068 0.755 0.163 0.684 0.139 1.39 0.166 2.08 0.08 1.03-0.138 2.01-0.499 2.88-1.06 1.07-0.663 1.92-1.64 2.42-2.79 0.446-1.19 0.785-2.42 1.01-3.67 0.2-1.04 0.556-2.04 1.06-2.97 0.349-0.628 0.834-1.17 1.42-1.58 0.156-0.114 0.324-0.209 0.501-0.286 0.132-0.021 0.185-0.047 0.185-0.037z"/>
<path d="m266 171c-0.011 0.19-0.046 0.379-0.106 0.56-0.045 0.219-0.107 0.434-0.184 0.644-0.094 0.282-0.201 0.558-0.322 0.829-0.143 0.331-0.307 0.652-0.492 0.961-0.2 0.365-0.422 0.718-0.665 1.06-1.12 1.54-2.61 2.78-4.33 3.6-0.701 0.33-1.44 0.583-2.19 0.755-0.288 0.069-0.581 0.12-0.876 0.153-0.22 0.036-0.443 0.053-0.665 0.053-0.19 0.022-0.381 0.022-0.571 0 0-0.058 0.814-0.064 2.06-0.386 0.728-0.193 1.44-0.459 2.11-0.792 0.826-0.42 1.6-0.928 2.32-1.52 0.708-0.599 1.35-1.27 1.91-2.01 0.244-0.323 0.469-0.66 0.676-1.01 0.197-0.298 0.374-0.608 0.528-0.929 0.544-1.19 0.718-1.99 0.787-1.97z"/>
</g>
<path d="m349 215c-0.283 0.076-0.573 0.128-0.865 0.153-0.341 0.057-0.685 0.093-1.03 0.105-0.455 0.04-0.911 0.054-1.37 0.043-0.552 6e-3 -1.1-0.021-1.65-0.079-0.597-0.037-1.22-0.154-1.89-0.254-1.43-0.283-2.83-0.7-4.18-1.25-1.34-0.57-2.63-1.27-3.83-2.09-0.528-0.396-1.06-0.755-1.52-1.16-0.429-0.348-0.838-0.72-1.22-1.11-0.375-0.343-0.665-0.702-0.934-0.998-0.235-0.252-0.452-0.521-0.65-0.802-0.196-0.224-0.373-0.465-0.528-0.719 0.215 0.198 0.412 0.415 0.586 0.65 0.214 0.268 0.443 0.524 0.687 0.765 0.274 0.286 0.575 0.634 0.95 0.961 0.394 0.383 0.808 0.744 1.24 1.08 0.443 0.385 0.971 0.739 1.51 1.12 1.2 0.793 2.47 1.48 3.8 2.04 1.33 0.54 2.71 0.957 4.12 1.25 0.655 0.111 1.27 0.237 1.86 0.279 0.543 0.068 1.09 0.107 1.64 0.117 0.528 0.031 0.955 0 1.36 0 0.342 0 0.684-0.02 1.02-0.058 0.297-0.041 0.597-0.058 0.897-0.053z" fill="#455a64"/>
<path d="m307 242c-0.074 0 1.06-5.25 2.53-11.7s2.72-11.6 2.79-11.6-1.06 5.25-2.53 11.7c-1.47 6.44-2.73 11.6-2.79 11.6z" fill="#455a64"/>
<path d="m281 129c0.075-1.02-0.107-2.04-0.528-2.97l-16-35.1c-3.73-10.1-12.7-16.3-22.7-12.3l-0.903 0.428c-4.37 2.06-7.8 5.69-9.61 10.2-1.81 4.48-1.87 9.47-0.16 14 3.28 8.71 7.03 18.3 9.21 22.8 4.51 9.27 14.5 6.34 14.5 6.34l1.87 3.57s1.95 6.72 10.3 5.78c6.42-0.728 11.2-6.96 13-9.81 0.563-0.87 0.894-1.87 0.961-2.9z" fill="#c78976"/>
<path d="m255 132c4.33-2.04 7.98-5.28 10.5-9.34 0 0 0.296 8.06-9.4 11.6z" fill="#925b4c"/>
<g fill="#262626">
<path d="m238 110c0.159 0.349 0.449 0.622 0.807 0.76 0.359 0.138 0.757 0.131 1.11-0.021 0.175-0.067 0.336-0.168 0.472-0.297 0.136-0.13 0.245-0.285 0.321-0.457 0.075-0.172 0.115-0.358 0.118-0.546 2e-3 -0.188-0.033-0.374-0.104-0.548-0.16-0.349-0.45-0.621-0.808-0.759s-0.755-0.131-1.11 0.02c-0.176 0.065-0.338 0.166-0.474 0.295-0.137 0.13-0.246 0.285-0.321 0.458-0.076 0.172-0.116 0.358-0.118 0.546s0.034 0.374 0.105 0.549z"/>
<path d="m236 107c0.248 0.1 0.903-1.12 2.34-1.8 1.44-0.67 2.82-0.454 2.89-0.702 0.042-0.116-0.275-0.348-0.893-0.464-0.822-0.138-1.67-0.018-2.42 0.343-0.745 0.352-1.36 0.931-1.76 1.65-0.28 0.539-0.28 0.93-0.164 0.967z"/>
<path d="m251 104c0.16 0.35 0.45 0.623 0.808 0.761s0.756 0.13 1.11-0.022c0.176-0.066 0.337-0.166 0.474-0.295 0.137-0.13 0.246-0.285 0.321-0.458 0.075-0.172 0.115-0.358 0.118-0.546 2e-3 -0.188-0.034-0.375-0.105-0.549-0.159-0.349-0.449-0.622-0.808-0.76-0.358-0.139-0.756-0.131-1.11 0.021-0.176 0.067-0.336 0.168-0.472 0.297-0.137 0.13-0.246 0.285-0.321 0.457s-0.115 0.358-0.118 0.546c-2e-3 0.187 0.033 0.374 0.103 0.548z"/>
<path d="m250 100c0.242 0.095 0.902-1.13 2.33-1.8 1.43-0.67 2.82-0.449 2.9-0.702 0.037-0.111-0.275-0.348-0.892-0.465-0.823-0.136-1.67-0.0145-2.42 0.348-0.746 0.348-1.36 0.925-1.76 1.65-0.28 0.549-0.285 0.929-0.163 0.971z"/>
<path d="m250 113c-0.032-0.084-0.993 0.18-2.52 0.676-0.386 0.137-0.766 0.227-0.945 0-0.21-0.363-0.303-0.781-0.27-1.2-0.073-1.06-0.147-2.14-0.232-3.29-0.369-4.68-0.824-8.45-1.01-8.45-0.185 0-0.043 3.82 0.327 8.49 0.099 1.15 0.195 2.25 0.29 3.3-0.021 0.549 0.151 1.09 0.486 1.52 0.114 0.104 0.251 0.181 0.399 0.224s0.304 0.051 0.457 0.025c0.228-0.04 0.45-0.109 0.66-0.206 1.49-0.586 2.39-1 2.36-1.09z"/>
<path d="m254 112c-0.238 0.1 0.491 1.65-0.317 3.38s-2.54 2.34-2.46 2.57c0 0.111 0.528 0.127 1.22-0.184 0.924-0.411 1.67-1.14 2.11-2.05 0.415-0.874 0.476-1.88 0.169-2.79-0.27-0.676-0.629-0.982-0.729-0.924z"/>
<path d="m247 94.7c0.322 0.322 1.67-0.528 3.44-1.13s3.35-0.771 3.41-1.23c0-0.211-0.391-0.465-1.11-0.586-0.95-0.117-1.91-0.0162-2.82 0.295-0.905 0.311-1.73 0.824-2.4 1.5-0.502 0.544-0.666 0.993-0.518 1.15z"/>
<path d="m234 102c0.407 0.206 1.24-0.597 2.41-1.17 1.18-0.576 2.3-0.819 2.37-1.27 0-0.211-0.291-0.465-0.872-0.565-0.766-0.1-1.54 0.0401-2.23 0.401-0.695 0.344-1.26 0.898-1.63 1.58-0.259 0.512-0.238 0.913-0.053 1.02z"/>
</g>
<path d="m230 98.2s-0.296-7 1.87-9.69c2.64-3.26 5.86-0.211 8.68-2.64 2.82-2.43 5.33-5.56 9.83-4.61 4.93 1.03 4.13 3.76 6.34 7.79 8.83 16.3 14.1 19.6 11.3 11.3-0.312-0.908 1.76-2.73 0.396-6.55-1.78-4.96-4.31-10.8-6.96-13.7-2.23-2.42-4.75-3.61-8.69-4.4-6.19-1.25-12.5 1.65-16.6 4.09-4.07 2.44-10 11.2-6.16 18.4z" fill="#3f535c"/>
<path d="m268 100c-0.15-0.348-0.228-0.723-0.229-1.1-2e-3 -0.379 0.074-0.754 0.222-1.1 0.148-0.349 0.366-0.664 0.639-0.927 0.273-0.262 0.597-0.467 0.952-0.601 1.82-0.655 4.22-0.581 5.81 3.07 2.8 6.47-4.27 7.95-4.36 7.77-0.089-0.179-1.88-4.39-3.03-7.11z" fill="#c78976"/>
<path d="m271 104c0-0.031 0.142 0.032 0.374 0.037 0.317-6e-3 0.621-0.13 0.851-0.348 0.57-0.528 0.675-1.88 0.2-3.06-0.222-0.563-0.569-1.07-1.01-1.48-0.147-0.175-0.336-0.312-0.548-0.399-0.213-0.0865-0.443-0.12-0.671-0.0977-0.144 0.0222-0.276 0.094-0.372 0.203-0.096 0.109-0.152 0.248-0.156 0.394 0 0.222 0.09 0.332 0.058 0.36-0.032 0.026-0.185-0.053-0.248-0.338-0.036-0.18-8e-3 -0.367 0.079-0.528 0.113-0.208 0.302-0.363 0.528-0.433 0.289-0.0638 0.589-0.0522 0.872 0.0338s0.539 0.244 0.744 0.457c0.516 0.442 0.918 1 1.17 1.63 0.528 1.32 0.385 2.83-0.433 3.51-0.152 0.125-0.33 0.216-0.521 0.264-0.19 0.048-0.39 0.054-0.583 0.016-0.253-0.063-0.354-0.169-0.332-0.217z" fill="#925b4c"/>
<path d="m262 88.1c-0.56 0.956-1.16 1.95-2.11 2.52-0.956 0.57-2.37 0.528-3-0.375-0.285-0.407-0.417-0.972-0.871-1.18-0.528-0.248-1.12 0.185-1.63 0.496-0.897 0.512-1.94 0.7-2.96 0.531-1.02-0.168-1.95-0.682-2.64-1.46-0.142 0.929-1.26 1.42-2.19 1.3-0.934-0.121-1.75-0.665-2.61-1.06-0.861-0.391-1.92-0.581-2.71-0.0633-0.438 0.29-0.744 0.781-1.24 0.961-0.871 0.322-1.74-0.465-2.26-1.24-0.517-0.771-1.06-1.69-2-1.81-0.94-0.116-1.58 0.528-2.31 1.01-0.729 0.486-1.8 0.766-2.35 0.106-0.127-0.186-0.215-0.397-0.26-0.618-0.044-0.221-0.044-0.449 2e-3 -0.67 0.153-1.02 0.645-1.95 1.4-2.65s1.72-1.13 2.74-1.21c-0.188-1.21-0.013-2.45 0.503-3.56 0.516-1.11 1.35-2.04 2.4-2.68 1.05-0.636 2.26-0.946 3.48-0.893 1.22 0.0534 2.4 0.468 3.39 1.19 0.388-0.93 0.993-1.75 1.77-2.4 0.773-0.647 1.69-1.1 2.67-1.32s2-0.195 2.98 0.0657c0.973 0.261 1.87 0.752 2.61 1.43 0.683-0.574 1.52-0.935 2.41-1.04 0.887-0.102 1.78 0.0599 2.58 0.465 0.796 0.405 1.46 1.04 1.9 1.81 0.439 0.777 0.641 1.67 0.579 2.56 1.46 0.111 2.97 0.787 3.62 2.11 0.649 1.33 0 3.23-1.46 3.48 0.513 0.394 0.855 0.97 0.954 1.61 0.1 0.639-0.05 1.29-0.419 1.82-0.368 0.531-0.927 0.901-1.56 1.03-0.634 0.131-1.29 0.0129-1.84-0.329" fill="#3f535c"/>
<path d="m235 84.9s0 0.0422 0.058 0.116c0.059 0.112 0.126 0.22 0.201 0.322 0.292 0.394 0.649 0.735 1.06 1.01 0.63 0.439 1.35 0.726 2.11 0.84 1.01 0.168 2.06-0.0032 2.96-0.486l-0.174-0.0898c0.081 0.671 0.425 1.28 0.955 1.7 0.557 0.438 1.17 0.794 1.83 1.06 0.337 0.169 0.691 0.302 1.06 0.396 0.399 0.0627 0.807 0.0265 1.19-0.106 0.407-0.12 0.777-0.338 1.08-0.636 0.301-0.298 0.524-0.665 0.649-1.07l-0.269 0.0423c0.4 0.62 0.926 1.15 1.54 1.56 0.618 0.405 1.31 0.675 2.04 0.795 0.817 0.165 1.67 0.0593 2.42-0.301 0.691-0.369 1.32-0.851 1.85-1.43h-0.206c0.696 0.614 1.54 1.04 2.44 1.25 0.423 0.118 0.868 0.14 1.3 0.0631 0.434-0.0768 0.844-0.25 1.2-0.507 0.603-0.459 1.06-1.09 1.31-1.8 0.25-0.715 0.284-1.49 0.098-2.22l-0.111 0.137c0.84 0.0397 1.67-0.212 2.34-0.713 0.505-0.366 0.917-0.845 1.2-1.4 0.18-0.35 0.296-0.729 0.343-1.12 0.019-0.133 0.019-0.268 0-0.401-0.057 0.512-0.212 1.01-0.454 1.46-0.293 0.526-0.703 0.978-1.2 1.32-0.649 0.459-1.44 0.682-2.23 0.634h-0.153l0.043 0.148c0.158 0.69 0.114 1.41-0.129 2.08s-0.673 1.25-1.24 1.67c-0.328 0.23-0.704 0.384-1.1 0.45s-0.801 0.042-1.19-0.0696c-0.853-0.203-1.64-0.614-2.3-1.2l-0.106-0.095-0.1 0.1c-0.509 0.55-1.11 1.01-1.77 1.36-0.695 0.331-1.48 0.428-2.23 0.274-0.688-0.113-1.34-0.368-1.93-0.749s-1.08-0.879-1.46-1.46l-0.179-0.28-0.09 0.327c-0.111 0.353-0.306 0.674-0.568 0.935s-0.584 0.455-0.937 0.564c-0.338 0.12-0.701 0.155-1.06 0.1-0.344-0.0859-0.677-0.21-0.993-0.37-0.637-0.244-1.24-0.578-1.78-0.993-0.485-0.374-0.804-0.924-0.887-1.53v-0.174l-0.153 0.0845c-0.857 0.479-1.85 0.665-2.82 0.528-0.741-0.0951-1.45-0.355-2.08-0.76-0.544-0.364-1.02-0.826-1.39-1.36z" fill="#455a64"/>
<g fill="#262626">
<path d="m244 108c-0.094-0.563-0.224-1.12-0.391-1.66-0.506-1.48-1.49-2.74-2.8-3.58-0.895-0.578-1.91-0.94-2.97-1.06-1.22-0.129-2.44 0.066-3.56 0.565-0.605 0.263-1.16 0.619-1.66 1.06-0.525 0.441-0.976 0.963-1.34 1.55-0.776 1.23-1.14 2.67-1.04 4.12 0.104 1.45 0.668 2.83 1.61 3.93 0.442 0.525 0.964 0.978 1.55 1.34 0.548 0.362 1.15 0.634 1.78 0.808 0.922 0.266 1.89 0.337 2.84 0.206s1.86-0.46 2.68-0.965c0.816-0.506 1.52-1.18 2.06-1.97 0.54-0.793 0.909-1.69 1.08-2.64 0.087-0.563 0.138-1.13 0.154-1.7 0.021 0.147 0.033 0.295 0.037 0.444 0.014 0.175 0.014 0.352 0 0.528-7e-3 0.246-0.033 0.492-0.08 0.734-0.222 1.33-0.82 2.56-1.72 3.56-0.904 0.995-2.08 1.71-3.38 2.06-1.22 0.335-2.51 0.335-3.73 0-0.659-0.178-1.29-0.457-1.86-0.829-0.598-0.376-1.13-0.845-1.58-1.39-0.985-1.15-1.58-2.58-1.68-4.08s0.271-3.01 1.08-4.28c0.377-0.6 0.848-1.13 1.39-1.58 0.516-0.448 1.1-0.814 1.72-1.09 1.16-0.512 2.44-0.703 3.7-0.554 1.09 0.128 2.14 0.511 3.05 1.12 1.33 0.873 2.32 2.18 2.8 3.7 0.079 0.234 0.139 0.474 0.179 0.718 0.044 0.173 0.073 0.35 0.085 0.528 7e-3 0.143 5e-3 0.286-5e-3 0.428z"/>
<path d="m261 101c-0.089-0.563-0.218-1.12-0.386-1.66-0.506-1.47-1.49-2.74-2.8-3.58-0.959-0.624-2.06-0.996-3.2-1.08-1.14-0.0868-2.29 0.115-3.33 0.586-1.23 0.552-2.28 1.46-2.99 2.6-0.778 1.23-1.14 2.67-1.04 4.12s0.67 2.83 1.62 3.93c0.874 1.03 2.03 1.78 3.33 2.15 1.18 0.334 2.42 0.351 3.61 0.048 1.27-0.331 2.42-1.02 3.31-1.97 0.895-0.958 1.5-2.15 1.74-3.44 0.09-0.563 0.14-1.13 0.148-1.7 0.028 0.146 0.04 0.294 0.037 0.443 0.017 0.176 0.017 0.353 0 0.528-9e-3 0.246-0.035 0.492-0.08 0.734-0.253 1.58-1.04 3.01-2.24 4.07-0.883 0.788-1.95 1.34-3.1 1.61-1.15 0.266-2.36 0.236-3.49-0.086-1.35-0.383-2.56-1.16-3.47-2.22-0.984-1.14-1.57-2.58-1.68-4.08-0.109-1.51 0.27-3.01 1.08-4.28 0.748-1.19 1.83-2.12 3.12-2.69 1.16-0.514 2.44-0.708 3.7-0.56 1.34 0.158 2.6 0.697 3.64 1.55 1.04 0.857 1.81 1.99 2.22 3.28 0.078 0.234 0.138 0.474 0.18 0.718 0.041 0.173 0.068 0.35 0.079 0.528 0.018 0.151 0.024 0.302 0.016 0.454z"/>
<path d="m247 103c-0.748-0.011-1.49 0.154-2.16 0.48-0.673 0.327-1.26 0.806-1.72 1.4 0 0 0.058-0.264 0.312-0.607 0.342-0.44 0.781-0.796 1.28-1.04 0.501-0.243 1.05-0.368 1.61-0.364 0.412 0.01 0.681 0.1 0.671 0.132z"/>
<path d="m267 98.5c-1.2 0.167-2.4 0.243-3.61 0.227-1.2 0.0797-2.41 0.0638-3.61-0.0475 2.4-0.243 4.81-0.303 7.22-0.18z"/>
</g>
<path d="m205 239h31.9c0.42 0 0.823 0.167 1.12 0.464s0.464 0.7 0.464 1.12-0.167 0.823-0.464 1.12-0.7 0.464-1.12 0.464h-31.9c-0.42 0-0.823-0.167-1.12-0.464s-0.464-0.7-0.464-1.12 0.167-0.823 0.464-1.12 0.7-0.464 1.12-0.464z" fill="#f2f2f2"/>
<path d="m210 242h-60.4l-5.96-40.8c-0.074-0.495-0.041-1 0.098-1.48 0.138-0.481 0.379-0.926 0.705-1.3 0.326-0.38 0.73-0.684 1.18-0.893s0.949-0.318 1.45-0.318l53 0.428c1.72 0 3.36 0.829 3.62 2.53z" fill="#f2f2f2"/>
<path d="m179 220c1e-3 0.657-0.193 1.3-0.558 1.85-0.364 0.547-0.883 0.973-1.49 1.22s-1.28 0.319-1.92 0.191c-0.644-0.128-1.24-0.445-1.7-0.91-0.464-0.464-0.781-1.06-0.909-1.7-0.128-0.645-0.061-1.31 0.191-1.92s0.678-1.13 1.22-1.49c0.547-0.364 1.19-0.558 1.85-0.557 0.88 0 1.72 0.349 2.34 0.971s0.971 1.46 0.971 2.34z" fill="#fff"/>
<path d="m207 242c-0.074 0-1.76-9.83-3.76-22-2.01-12.1-3.58-22-3.5-22 0.079-0.015 1.76 9.83 3.76 22 2.01 12.1 3.57 22 3.5 22z" fill="#262626"/>
<path d="m371 242h-341v8.74h341z" fill="#455a64"/>
<g fill="#262626">
<path d="m102 243-0.106 0.095c-0.081 0.058-0.192 0.148-0.359 0.258-0.535 0.342-1.11 0.614-1.71 0.808-1.07 0.343-2.17 0.561-3.29 0.65-1.53 0.125-3.06 0.164-4.59 0.116-1.71-0.032-3.54-0.185-5.53-0.375s-4.04-0.401-6.29-0.438c-4.46-0.095-9.31 0.591-14.2 1.58-4.84 0.992-9.4 2.18-13.7 2.89-2.17 0.354-4.27 0.607-6.26 0.729-1.85 0.113-3.71 0.113-5.56 0-2.59-0.128-5.16-0.603-7.63-1.42-0.817-0.275-1.61-0.628-2.36-1.06 0.0577 0.012 0.114 0.031 0.167 0.058l0.45 0.2c0.399 0.175 1.01 0.423 1.83 0.692 2.47 0.774 5.01 1.23 7.58 1.35 1.83 0.111 3.66 0.109 5.48-5e-3 1.97-0.127 4.04-0.385 6.2-0.744 4.31-0.713 8.83-1.88 13.7-2.9s9.78-1.71 14.3-1.58c2.27 0.047 4.37 0.274 6.34 0.465 1.96 0.19 3.8 0.359 5.48 0.401 1.52 0.059 3.04 0.033 4.55-0.079 1.1-0.078 2.19-0.278 3.25-0.597 0.796-0.258 1.55-0.627 2.25-1.1z"/>
<path d="m64.9 243c-0.327 0.196-0.665 0.372-1.01 0.528-1.01 0.45-2.05 0.842-3.11 1.17-1.66 0.514-3.35 0.919-5.06 1.21-2.2 0.365-4.41 0.568-6.64 0.608-4 0.105-8-0.379-11.9-1.44-1.03-0.256-2.01-0.723-2.87-1.37-0.18-0.15-0.337-0.328-0.465-0.528-0.0707-0.132-0.101-0.201-0.091-0.201 0.198 0.243 0.412 0.471 0.642 0.681 0.875 0.602 1.85 1.04 2.87 1.28 3.83 0.987 7.78 1.44 11.7 1.35 2.19-0.04 4.38-0.234 6.54-0.581 1.7-0.283 3.39-0.667 5.06-1.15 1.38-0.417 2.44-0.813 3.15-1.1 0.364-0.178 0.739-0.331 1.12-0.459z"/>
<path d="m145 248s0.187 0.037 0.505 0.117c0.319 0.079 0.87 0.169 1.57 0.243 2 0.219 4.02 0.04 5.96-0.528v0.11c-2.35-1.01-4.85-1.58-7.39-1.69-3.26-0.214-6.54 0.286-9.61 1.47-0.359 0.153-0.708 0.338-0.743 0.565s0.248 0.438 0.637 0.565c0.431 0.135 0.873 0.227 1.32 0.274l1.45 0.19c1.95 0.254 3.96 0.528 6.07 0.687 2.14 0.199 4.28 0.285 6.43 0.258 1.1 0 2.2-0.079 3.3-0.184 0.551-0.059 1.1-0.117 1.64-0.201 0.536-0.071 1.07-0.173 1.59-0.306 0.733-0.158 1.43-0.453 2.06-0.872 0.506-0.385 0.683-0.897 0.395-1.35-0.431-0.507-0.993-0.873-1.62-1.06-0.74-0.266-1.5-0.482-2.26-0.649-3.11-0.683-6.28-1.07-9.46-1.15-5.42-0.198-10.8 0.286-16.1 1.44-3.33 0.723-6.58 1.77-9.72 3.12-1.04 0.47-1.84 0.845-2.35 1.12l-0.602 0.296-0.212 0.1c0.056-0.046 0.117-0.085 0.182-0.116l0.576-0.317c0.506-0.291 1.28-0.676 2.31-1.16 3.12-1.4 6.38-2.47 9.7-3.21 5.35-1.2 10.8-1.72 16.3-1.53 3.23 0.077 6.44 0.464 9.61 1.16 0.791 0.169 1.57 0.391 2.34 0.666 0.693 0.202 1.31 0.613 1.78 1.18 0.349 0.528 0.142 1.15-0.455 1.58-0.679 0.457-1.43 0.78-2.22 0.951-0.547 0.138-1.1 0.244-1.66 0.317-0.551 0.084-1.11 0.147-1.67 0.206-1.12 0.105-2.24 0.174-3.36 0.184-2.17 0.028-4.34-0.06-6.5-0.264-2.1-0.184-4.12-0.438-6.07-0.697l-1.45-0.2c-0.483-0.049-0.961-0.148-1.42-0.296-0.215-0.067-0.417-0.172-0.597-0.311-0.075-0.049-0.136-0.119-0.174-0.202-0.039-0.084-0.054-0.177-0.043-0.268 0.07-0.349 0.505-0.56 0.9-0.718 3.15-1.2 6.51-1.71 9.85-1.47 2.58 0.116 5.12 0.715 7.5 1.77l0.136 0.064-0.151 0.047c-1.98 0.575-4.05 0.744-6.09 0.496-0.722-0.068-1.44-0.213-2.13-0.433z"/>
<path d="m189 243c0.143 0.116 0.257 0.266 0.334 0.438 0.22 0.397 0.301 0.862 0.227 1.32-0.111 1.12-1.29 2.6-3.32 3.81-0.982 0.619-2.02 1.14-3.1 1.55-0.973 0.365-1.97 0.649-2.99 0.85-0.895 0.18-1.65 0.269-2.16 0.322-0.272 0.035-0.546 0.047-0.819 0.037 0-0.042 1.14-0.137 2.88-0.528 0.978-0.224 1.94-0.52 2.88-0.887 1.04-0.412 2.05-0.923 3-1.53 1.99-1.18 3.14-2.59 3.33-3.66 0.089-0.587-3e-3 -1.19-0.263-1.72z"/>
<path d="m250 251c-0.04 0-0.48-0.369-1.57-0.892-1.68-0.789-3.48-1.27-5.32-1.41-1.35-0.115-2.7-0.092-4.04 0.069-1.58 0.214-3.16 0.301-4.75 0.258-1.64-0.151-3.25-0.612-4.73-1.36-1.52-0.746-3.11-1.3-4.75-1.66-3.49-0.674-7.06-0.706-10.6-0.095-2.68 0.458-5.3 1.24-7.81 2.32-1.56 0.666-3.08 1.42-4.55 2.27l-1.16 0.67c-0.132 0.086-0.271 0.16-0.414 0.222 0.108-0.1 0.227-0.186 0.354-0.259 0.242-0.163 0.611-0.401 1.1-0.702 1.44-0.882 2.93-1.66 4.47-2.34 2.53-1.12 5.18-1.93 7.89-2.4 3.58-0.633 7.24-0.604 10.8 0.085 1.68 0.361 3.31 0.93 4.86 1.7 1.42 0.726 2.95 1.18 4.52 1.33 1.55 0.045 3.11-0.032 4.65-0.232 1.38-0.156 2.78-0.17 4.16-0.042 1.86 0.161 3.68 0.672 5.37 1.51 0.532 0.245 1.03 0.57 1.47 0.966z"/>
<path d="m304 243c-0.117 0.111-0.242 0.212-0.375 0.301-0.262 0.185-0.611 0.481-1.16 0.813-1.58 1.01-3.25 1.88-4.97 2.59-2.79 1.18-5.66 2.12-8.6 2.8-1.72 0.412-3.58 0.782-5.56 1.06-2.06 0.293-4.14 0.45-6.22 0.47-3.98-9e-3 -7.94-0.493-11.8-1.44-2.94-0.697-5.81-1.65-8.6-2.86-1.71-0.738-3.36-1.62-4.94-2.64-0.546-0.332-0.9-0.623-1.16-0.813-0.133-0.086-0.258-0.185-0.374-0.295 0.152 0.076 0.299 0.164 0.439 0.264 0.284 0.179 0.658 0.459 1.22 0.781 1.6 0.973 3.27 1.82 5 2.54 2.77 1.17 5.63 2.1 8.54 2.79 3.82 0.924 7.73 1.4 11.7 1.4 2.05-0.021 4.1-0.174 6.13-0.459 1.96-0.254 3.8-0.613 5.51-1.01 2.93-0.674 5.8-1.59 8.6-2.74 1.73-0.706 3.41-1.55 5.02-2.52 0.567-0.317 0.931-0.602 1.22-0.776 0.136-0.096 0.278-0.183 0.425-0.259z"/>
<path d="m297 242s-0.091 0.058-0.288 0.137-0.506 0.211-0.885 0.354c-0.773 0.295-1.93 0.697-3.41 1.13-1.77 0.527-3.57 0.957-5.39 1.29-2.32 0.45-4.67 0.687-7.03 0.708-4.22-0.035-8.42-0.658-12.5-1.85-1.15-0.329-2.27-0.719-3.38-1.17-0.384-0.147-0.662-0.279-0.859-0.369-0.099-0.034-0.192-0.082-0.278-0.143 0 0 0.445 0.153 1.23 0.433 0.784 0.28 1.94 0.676 3.42 1.09 4.03 1.12 8.18 1.72 12.4 1.76 2.32-0.02 4.63-0.246 6.92-0.675 2.08-0.365 3.89-0.814 5.37-1.22 1.49-0.412 2.66-0.787 3.46-1.06 0.799-0.27 1.24-0.428 1.25-0.412z"/>
<path d="m356 243h-0.677l-1.92-0.042-1.38-0.037h-1.65-4.04l-2.34 0.042-2.53 0.101c-1.75 0.052-3.58 0.19-5.52 0.301-3.85 0.285-8.02 0.691-12.3 1.25-4.24 0.554-8.09 1.25-11.5 1.93-1.65 0.364-3.28 0.686-4.67 1.06l-2.06 0.502-1.82 0.501c-1.18 0.312-2.16 0.628-3.03 0.898l-1.22 0.38-0.966 0.338-1.36 0.464c-0.165 0.064-0.334 0.115-0.506 0.154 0.128-0.078 0.264-0.14 0.405-0.185l1.26-0.497 0.925-0.359 1.19-0.39c0.855-0.285 1.82-0.613 2.99-0.935l1.8-0.528 2.05-0.528c1.39-0.369 3.03-0.702 4.67-1.06 3.41-0.692 7.31-1.38 11.6-1.96s8.5-0.966 12.4-1.24c1.97-0.105 3.82-0.237 5.56-0.279l2.53-0.09 2.36-0.027c1.52-0.031 2.86 0 4.04 0h1.66l1.38 0.059 1.92 0.089c0.243 0.015 0.485 0.047 0.723 0.095z"/>
<path d="m256 251c-0.587-0.493-1.22-0.931-1.88-1.31-2.16-1.12-4.48-1.88-6.86-2.25-1.6-0.296-3.4-0.528-5.35-0.697-1.95-0.169-4.04-0.322-6.26-0.528-2.22-0.206-4.48-0.581-6.8-0.998-2.32-0.417-4.7-0.871-7.23-1.05-4.75-0.291-9.51 0.094-14.2 1.15-2.08 0.449-3.98 0.988-5.75 1.52-1.76 0.528-3.37 1.06-4.84 1.54-2.93 0.972-5.26 1.8-6.88 2.38l-1.85 0.666-0.505 0.169-0.172 0.052c0.045-0.03 0.095-0.055 0.146-0.074l0.46-0.19 1.81-0.702c1.58-0.602 3.9-1.46 6.82-2.45 1.46-0.496 3.07-1.03 4.83-1.58 1.76-0.554 3.67-1.09 5.77-1.55 4.7-1.08 9.51-1.48 14.3-1.18 2.46 0.224 4.9 0.576 7.32 1.06 2.32 0.422 4.55 0.792 6.75 1.01 2.2 0.217 4.29 0.38 6.25 0.57 1.96 0.191 3.78 0.423 5.39 0.729 2.41 0.388 4.74 1.18 6.91 2.36 0.659 0.346 1.26 0.81 1.76 1.37z"/>
<path d="m179 243c0.028 0.188 0.011 0.38-0.05 0.559-0.137 0.529-0.363 1.03-0.668 1.47-0.783 1.19-2.4 2.81-5.23 3.93-2.53 0.913-5.12 1.62-7.76 2.11-1.04 0.201-1.88 0.349-2.48 0.438-0.307 0.06-0.618 0.097-0.93 0.111 0.289-0.087 0.582-0.156 0.88-0.206l2.43-0.528c2.58-0.533 5.13-1.25 7.62-2.14 2.04-0.733 3.83-2.05 5.19-3.79 0.411-0.607 0.745-1.27 0.991-1.96z"/>
<path d="m100 251c0.265-0.176 0.542-0.332 0.829-0.464 0.551-0.296 1.38-0.692 2.43-1.17 2.84-1.25 5.73-2.35 8.68-3.28 3.54-1.15 6.85-2.06 9.25-2.7 1.2-0.322 2.17-0.58 2.85-0.749 0.352-0.105 0.71-0.186 1.07-0.243-0.329 0.134-0.667 0.243-1.01 0.327l-2.8 0.824c-2.37 0.686-5.64 1.62-9.17 2.76s-6.57 2.3-8.71 3.21c-1.07 0.454-1.92 0.834-2.5 1.1-0.298 0.154-0.607 0.285-0.925 0.39z"/>
<path d="m116 243c0 0.026-0.784-0.064-2.2 0-1.92 0.112-3.83 0.452-5.68 1.01-2.51 0.812-4.98 1.78-7.38 2.91-1.45 0.64-2.94 1.2-4.44 1.69-1.74 0.532-3.52 0.935-5.32 1.2-3.61 0.493-7.24 0.748-10.9 0.766-3.37 0.058-6.39 0-8.92 0.079s-4.55 0.201-5.97 0.343c-0.698 0.074-1.24 0.138-1.6 0.19-0.186 0.033-0.373 0.053-0.561 0.058 0 0 0.182-0.042 0.541-0.105 0.359-0.064 0.895-0.148 1.59-0.238 1.39-0.174 3.44-0.348 5.99-0.422 2.54-0.074 5.56-0.064 8.92-0.132 3.61-0.028 7.21-0.287 10.8-0.776 1.77-0.269 3.52-0.662 5.23-1.18 1.6-0.501 3.03-1.09 4.41-1.66 2.43-1.12 4.93-2.09 7.47-2.88 1.89-0.554 3.83-0.873 5.79-0.95 0.713 0 1.27 0 1.64 0.032 0.188 5e-3 0.375 0.025 0.561 0.058z"/>
</g>
</g>
</g>
</svg>
