<?xml version="1.0" encoding="UTF-8" standalone="no"?>
<!-- Created with Inkscape (http://www.inkscape.org/) -->

<svg
   width="1600"
   height="500"
   viewBox="0 0 423.33332 132.29167"
   version="1.1"
   id="svg858"
   inkscape:version="1.1.2 (0a00cf5339, 2022-02-04)"
   sodipodi:docname="jumbotron.svg"
   xmlns:inkscape="http://www.inkscape.org/namespaces/inkscape"
   xmlns:sodipodi="http://sodipodi.sourceforge.net/DTD/sodipodi-0.dtd"
   xmlns="http://www.w3.org/2000/svg"
   xmlns:svg="http://www.w3.org/2000/svg">
  <sodipodi:namedview
     id="namedview860"
     pagecolor="#ffffff"
     bordercolor="#666666"
     borderopacity="1.0"
     inkscape:pageshadow="2"
     inkscape:pageopacity="0.0"
     inkscape:pagecheckerboard="0"
     inkscape:document-units="mm"
     showgrid="false"
     units="px"
     inkscape:zoom="0.64052329"
     inkscape:cx="1048.3616"
     inkscape:cy="288.82634"
     inkscape:window-width="1920"
     inkscape:window-height="1043"
     inkscape:window-x="0"
     inkscape:window-y="0"
     inkscape:window-maximized="1"
     inkscape:current-layer="layer1"
     width="1440px" />
  <defs
     id="defs855" />
  <g
     inkscape:label="Layer 1"
     inkscape:groupmode="layer"
     id="layer1">
    <g
       style="fill:none"
       id="g928"
       transform="matrix(0.26458333,0,0,0.26458333,13.76192,13.747253)">
      <path
         d="M 72.7072,49.0655 C 63.6848,49.1794 53.3229,46.823 48.3311,38.7945 60.5672,35.5027 71.3796,28.6374 66.1837,16.3577 63.018,8.86875 54.0077,6.30249 46.8294,9.39039 39.2367,12.6522 34.8456,20.8127 34.6234,28.8412 c -0.0121,0.3778 -0.0121,0.7555 0,1.1213 C 18.0984,30.8798 0.275858,24.4102 -0.0485144,5.27718 -0.162646,-1.74406 -11.1132,-1.77404 -10.9991,5.27718 -10.6627,25.5434 6.73929,39.508 26.0095,41.2108 c 2.7451,0.2339 6.6436,0.1739 10.9505,-0.3058 5.7967,12.8074 21.3846,19.277 35.7532,19.0911 7.0341,-0.0899 7.0641,-11.0145 0,-10.9306 z M 48.1269,21.76 c 1.2134,-1.397 8.2174,-6.1638 8.0432,0.1439 -0.0901,2.974 -5.7366,4.7788 -7.7068,5.4503 -0.9371,0.3178 -1.8982,0.6116 -2.8773,0.8754 0.1922,-2.3744 0.9491,-4.6468 2.5409,-6.4696 z"
         fill="#de5836"
         id="path919" />
    </g>
    <g
       style="fill:none"
       id="g939"
       transform="matrix(0.26458333,0,0,0.26458333,367.09297,16.649361)">
      <path
         d="m 47.011,13.4394 c 5.2413,2.936 9.9421,-5.1579 4.7008,-8.09389 C 35.373,-3.81698 6.57303,-2.40891 0.811058,19.1167 -1.35588,27.2456 1.00444,35.6092 5.69038,42.33 2.70031,48.6863 1.91684,55.8865 3.79618,63.1416 c 2.48429,9.5369 9.47102,18.2151 18.60492,21.8401 -0.8777,3.7849 -1.7603,7.5847 -2.9653,11.2846 -1.8694,5.7367 7.1207,8.2037 8.9752,2.4866 1.2893,-3.9446 2.2066,-7.9741 3.1438,-12.0136 6.3025,-0.1448 12.6793,-3.64 15.8082,-9.2124 3.2678,-5.7771 1.3141,-14.1507 -5.5785,-16.0531 -3.4562,-0.9586 -7.1603,-0.0848 -10.0016,2.0373 -3.2678,2.4266 -4.8793,5.862 -6.1835,9.6368 -0.3124,0.8988 -0.6049,1.8075 -0.8677,2.7163 C 18.7664,73.063 14.3928,66.9114 12.7664,60.635 11.7895,56.8751 11.8143,53.2351 12.7317,49.8347 c 8.7719,7.0604 22.0512,11.6741 32.0677,4.394 4.6016,-3.3504 7.557,-8.4235 7.0859,-14.2705 C 51.439,34.3259 48.5134,29.133 43.9217,25.8924 34.0292,18.892 20.616,25.0186 12.8805,32.4085 c -0.5058,0.4844 -0.9868,0.9687 -1.448,1.478 C 9.60277,30.3913 8.69534,26.4966 9.55319,22.552 13.0342,6.5239 35.6556,7.06815 47.006,13.4295 Z M 34.8622,74.8406 c 0.5554,-1.503 1.324,-3.3355 2.8314,-4.1144 0.7736,-0.3995 1.0612,-0.2297 1.6017,-0.2047 -0.243,0 0.2033,0.2796 0.1338,0.0849 0.5058,0.704 0.4463,1.3581 -0.2628,2.4616 -1.195,1.8675 -2.99,3.1557 -5.0033,3.8098 0.2281,-0.6791 0.4562,-1.3582 0.6992,-2.0372 z M 18.2904,40.2229 c 4.5074,-4.7336 12.7388,-9.9964 19.0412,-7.355 5.9653,2.5016 7.2893,10.5955 1.6513,14.0259 -6.7488,4.0894 -15.6198,-0.06 -20.9306,-4.7436 -0.2776,-0.2446 -0.5405,-0.4843 -0.8181,-0.739 0.3372,-0.3994 0.6892,-0.7989 1.0611,-1.1883 z"
         fill="#de5836"
         id="path930" />
    </g>
    <g
       style="fill:none"
       id="g950"
       transform="matrix(0.26458333,0,0,0.26458333,22.074796,97.056462)">
      <path
         d="M 50.9652,0.323859 C 37.6863,5.16983 23.0866,10.807 15.4838,23.5702 10.2334,25.0097 5.20668,27.4822 0.851326,30.4711 -5.13047,34.5698 -11.8163,39.9927 -17.2141,46.2672 c -3.9406,-0.8297 -8.0121,-1.1593 -11.8818,-1.0824 -17.5196,0.3351 -33.9968,7.1811 -47.2594,18.5323 -4.8793,4.1921 2.1886,11.2413 7.0297,7.0876 9.5349,-8.17 21.2637,-13.5764 33.7185,-15.1532 3.6459,-0.4671 7.8375,-0.7363 11.9745,-0.4121 -1.55,2.7746 -2.7562,5.6481 -3.5039,8.5985 -2.6907,10.6535 2.7726,24.5815 14.7635,26.0375 C 0.611191,91.4633 9.57845,77.5627 6.40744,65.7609 4.37712,58.2722 -0.567688,53.168 -6.76234,49.9264 -4.34998,47.5473 -1.89397,45.4156 0.174553,43.597 3.35648,40.8223 7.08418,38.0422 11.1175,35.9214 c -1.1134,8.1041 1.037,16.4225 7.974,21.752 8.1594,6.2635 21.3019,6.9008 27.8131,-2.1209 C 54.2672,45.3496 48.7767,30.9051 38.3631,25.3614 35.4213,23.801 32.3158,22.8669 29.1557,22.4494 35.8798,16.3232 45.3382,12.9937 53.6123,9.97735 59.5832,7.8016 57.0071,-1.87935 50.9598,0.323859 Z M -4.93944,64.5083 c 2.84899,4.5383 3.2365,11.5874 -2.25409,14.5379 -5.95447,3.1921 -10.39717,-2.9889 -10.75737,-8.4667 -0.2893,-4.5383 1.6592,-8.9722 4.5354,-13.0435 3.43303,1.456 6.40753,3.6702 8.47606,6.9723 z M 30.9241,33.0644 c 5.2941,1.6812 9.8022,6.3129 9.4038,12.2577 -0.3056,4.6317 -3.7004,7.3185 -8.225,7.0877 -10.8884,-0.5714 -12.9296,-11.6589 -9.8022,-20.1476 2.849,-0.3077 5.758,-0.1044 8.6234,0.8022 z"
         fill="#de5836"
         id="path941" />
    </g>
    <g
       style="fill:none"
       id="g961"
       transform="matrix(0.26458333,0,0,0.26458333,372.49862,92.372588)">
      <path
         d="M 50.0391,6.64836 C 56.1678,22.1975 44.7948,31.6508 31.4075,36.9513 20.8758,41.1163 9.13439,45.3482 3.20225,55.6758 c -5.5821,9.7205 -3.414355,21.5296 3.0152,30.309 7.30775,9.9816 19.19035,14.8572 30.61255,18.6942 6.8348,2.295 9.7702,-8.3908 2.9783,-10.6737 C 28.6318,90.2531 14.8884,84.8009 11.6767,72.1661 8.27466,58.7784 21.8338,52.4944 32.2059,48.4689 41.6629,44.7957 51.6235,40.916 57.6354,32.3309 63.4939,23.9704 64.544,13.1267 60.8349,3.71582 58.2495,-2.84749 47.4231,0.00612145 50.0391,6.6605 Z"
         fill="#de5836"
         id="path952" />
    </g>
    <g
       style="fill:none"
       id="g972"
       transform="matrix(0.26458333,0,0,0.26458333,325.60857,62.577381)">
      <path
         d="M 69.6821,62.6135 C 58.2715,65.9383 45.9344,61.7358 39.7686,52.0199 47.7538,49.3701 55.1493,44.7851 60.1302,39.6036 71.743,27.4911 66.0938,5.50519 47.0968,8.0087 30.6098,10.169 23.8151,29.3251 26.095,44.1718 c -0.7637,0.0394 -1.46,0.0394 -2.0721,0 C 4.01505,42.681 10.5402,19.7386 15.6166,7.87368 18.1828,1.87087 9.3778,-3.36682 6.78908,2.69225 0.33693,17.7752 -6.21632,39.6768 11.0175,50.546 c 5.2954,3.3361 11.7251,4.3487 18.2839,3.7299 7.71,15.488 26.1062,23.173 43.0986,18.2391 6.3174,-1.8453 3.6276,-11.7468 -2.7179,-9.8959 z M 38.4041,26.5853 c 2.6448,-5.2208 14.7517,-14.4247 17.8346,-4.2137 2.7404,9.1308 -9.389,16.405 -20.1426,19.7805 -0.8198,-5.277 -0.1235,-10.8016 2.308,-15.5724 z"
         fill="#de5836"
         id="path963" />
    </g>
    <g
       style="fill:none"
       id="g983"
       transform="matrix(0.26458333,0,0,0.26458333,284.13788,5.8881944)">
      <path
         d="M 128.965,0.323859 C 115.686,5.16983 101.087,10.807 93.4838,23.5702 88.2334,25.0097 83.2067,27.4822 78.8513,30.4711 72.8695,34.5698 66.1837,39.9927 60.7859,46.2672 56.8453,45.4375 52.7738,45.1079 48.9041,45.1848 31.3845,45.5199 14.9073,52.3659 1.6447,63.7171 c -4.87931,4.1921 2.1886,11.2413 7.0297,7.0876 9.5349,-8.17 21.2637,-13.5764 33.7185,-15.1532 3.6459,-0.4671 7.8375,-0.7363 11.9745,-0.4121 -1.55,2.7746 -2.7562,5.6481 -3.5039,8.5985 C 48.1728,74.4914 53.6361,88.4194 65.627,89.8754 78.6112,91.4633 87.5784,77.5627 84.4074,65.7609 82.3771,58.2722 77.4323,53.168 71.2377,49.9264 73.65,47.5473 76.106,45.4156 78.1746,43.597 c 3.1819,-2.7747 6.9096,-5.5548 10.9429,-7.6756 -1.1134,8.1041 1.037,16.4225 7.974,21.752 8.1595,6.2635 21.3015,6.9008 27.8135,-2.1209 7.362,-10.2029 1.872,-24.6474 -8.542,-30.1911 -2.942,-1.5604 -6.047,-2.4945 -9.207,-2.912 6.724,-6.1262 16.182,-9.4557 24.456,-12.47205 5.971,-2.17575 3.395,-11.8567 -2.652,-9.653491 z M 73.0606,64.5083 c 2.849,4.5383 3.2365,11.5874 -2.2541,14.5379 -5.9545,3.1921 -10.3972,-2.9889 -10.7574,-8.4667 -0.2893,-4.5383 1.6592,-8.9722 4.5354,-13.0435 3.433,1.456 6.4075,3.6702 8.4761,6.9723 z M 108.924,33.0644 c 5.294,1.6812 9.802,6.3129 9.404,12.2577 -0.306,4.6317 -3.701,7.3185 -8.225,7.0877 -10.8885,-0.5714 -12.9297,-11.6589 -9.802,-20.1476 2.849,-0.3077 5.758,-0.1044 8.623,0.8022 z"
         fill="#de5836"
         id="path974" />
    </g>
    <g
       style="fill:none"
       id="g994"
       transform="matrix(0.26458333,0,0,0.26458333,284.80711,91.757873)">
      <path
         d="M 109.099,91.6093 C 103.112,98.667 92.1434,100.14 85.9115,92.4347 85.4686,91.8862 85.0778,91.3324 84.7339,90.7578 90.08,89.363 95.2073,87.3152 99.8135,84.8024 105.868,81.5008 110.891,75.4096 109.323,68.0698 107.854,61.2524 101.267,58.5098 94.8478,59.0792 82.1598,60.1972 73.3485,71.2669 73.1818,83.021 64.876,83.8464 56.3774,82.5247 49.4628,77.4731 44.4085,73.764 40.8756,68.5504 39.9169,62.757 51.8441,62.6786 64.3966,60.1658 73.0046,53.6671 84.9944,44.6139 81.1333,27.0977 65.8243,25.0237 50.5675,22.955 35.394,37.5301 31.3036,51.2536 31.1525,51.7604 31.0118,52.2828 30.8972,52.7895 29.0735,52.6223 27.2654,52.3716 25.4781,52.0268 14.0302,49.8431 6.82389,41.1347 10.3203,29.2761 13.7124,17.7258 25.5563,12.0107 36.3423,9.34645 42.2825,7.87327 39.7605,-1.30537 33.8204,0.157355 18.6104,3.92911 3.11389,13.4891 0.404346,30.1956 -2.15409,45.9356 7.67323,58.2382 22.9561,61.2211 c 2.3031,0.444 4.7469,0.8149 7.295,1.0657 1.1255,11.1481 8.7747,21.0633 19.144,26.2038 7.8004,3.871 16.7679,4.9523 25.6313,4.0381 0.1876,0.4545 0.3908,0.9142 0.62,1.3583 7.8108,15.562 29.0336,17.558 40.1536,4.4561 3.939,-4.6442 -2.746,-11.4145 -6.711,-6.739 z M 40.7297,52.941 c 2.9493,-8.6197 12.662,-18.6498 22.3486,-18.5871 5.268,0.0366 10.1921,4.4822 6.5446,9.6122 -2.621,3.6568 -8.0401,5.4226 -12.1565,6.4726 -5.3461,1.3582 -11.0414,2.2829 -16.7523,2.5493 0,-0.0104 0.0104,-0.0365 0.0104,-0.0522 z m 52.0599,16.2258 c 1.7716,-0.5955 6.1173,-1.5358 7.2534,0.6844 1.24,2.4501 -2.7462,5.3807 -4.2156,6.2741 -3.9237,2.3978 -8.5716,3.9232 -13.058,5.1038 0.7243,-5.3076 4.3301,-10.1712 10.0149,-12.0623 z"
         fill="#de5836"
         id="path985" />
    </g>
  </g>
</svg>
