<?xml version="1.0" encoding="UTF-8"?>
<svg width="372" height="264" fill="none" version="1.1" viewBox="0 0 372 264" xmlns="http://www.w3.org/2000/svg">
<g transform="translate(-50.5)">
<g transform="translate(118 25)" fill="none">
<path d="m42.6 91.8c18.4-7.28 60.7-55.5 79.5-78.7 120-51.4 132 60 132 131 0 70.7-93.4 98.5-198 81.4-104-17.1-36.8-124-13.9-133z" fill="#8c0846"/>
</g>
<g transform="matrix(1 0 0 1 71.9 -14.2)" clip-path="url(#a)">
<path d="m338 233c0 0.069-75.6 0.127-169 0.127-93.2 0-169-0.058-169-0.127s75.6-0.127 169-0.127c93.3 0 169 0.053 169 0.127z" fill="#262626"/>
<path d="m97.8 232 2.75-20.2 58.7-2.79 4.13 23.1z" fill="#262626"/>
<path d="m153 149 17.6 19.5c2.9 3.22 5 6.15 9.18 7.33 2.94 0.823 9.09 1.17 10.6-0.755 2.13-2.63 3.44-7.18 0.491-12.9-1.96-3.73-19-19-19-19z" fill="#c27461"/>
<path d="m159 152c0.103 0.98 4.7 10.6 4.7 10.6l15.1-9.84s-9.73-23.1-16.8-24.6z" fill="#de5836"/>
<path d="m184 125 0.216-7.35-0.49-9.34-1.47-7.77s-0.393-0.76-1.37-0.186c-0.981 0.573-0.133 4.82-0.133 4.82l0.157 3.19s-0.579 2.45-0.76 2.25c-0.182-0.201-0.8-4.51-0.8-4.51l-1.79-9.24c-0.129-0.285-0.363-0.51-0.653-0.628s-0.615-0.122-0.907-0.0085c-0.633 0.196-1.04 1.12-0.982 2.48 0.064 1.37 0.673 3.68 0.736 4.46 0.064 0.779 0.579 5.27 0.579 5.27l-3.12-10.3s-0.579-3.37-1.96-2.88-0.466 2.9-0.402 3.92c0.064 1.02 2.08 8.1 1.91 10.1-0.171 1.96-0.49 0.98-0.49 0.98l-1.47-5.79c-0.638-2.55-1.6-4.03-2.71-4.22-1.11-0.186 0.378 5.73 0.378 5.73l1.88 8.27-0.467 2.63-1.84-2.37s-0.054-3.1-1.99-4.41c-1.94-1.31-2.45 0.157-2.45 0.157l3.62 12c0.859 1.96 6.4 5.78 6.4 5.78l0.981 12 12.3-0.245z" fill="#c27461"/>
<path d="m180 121c-0.059 0.059-0.643-0.529-1.64-1.38-1-0.847-2.55-1.96-4.5-1.86-0.813 0.013-1.6 0.298-2.23 0.809l-0.206 0.181-0.182-0.24c-0.79-1.04-1.63-1.96-2.14-2.6-0.505-0.642-0.79-1.09-0.736-1.12 0.357 0.272 0.686 0.579 0.981 0.916 0.824 0.808 1.61 1.66 2.35 2.54l-0.388-0.058c0.706-0.614 1.61-0.961 2.54-0.98 1-0.033 2 0.206 2.88 0.69 0.697 0.389 1.34 0.868 1.91 1.43 0.947 0.956 1.42 1.63 1.37 1.68z" fill="#7d4336"/>
<path d="m177 167-2.61-37.5 10.4-3.26 7.57 40.7z" fill="#c27461"/>
<path d="m154 81.4c1.03 0.176 2.09-0.0349 2.97-0.593 0.882-0.558 1.53-1.42 1.81-2.43s0.178-2.08-0.287-3.01c-0.466-0.934-1.26-1.66-2.23-2.04 0.68-0.621 1.15-1.44 1.34-2.34 0.187-0.901 0.087-1.84-0.288-2.68s-1.01-1.54-1.8-2.01c-0.796-0.463-1.72-0.664-2.64-0.575 0.014-0.907-0.207-1.8-0.642-2.6-0.436-0.796-1.07-1.47-1.84-1.94s-1.65-0.749-2.56-0.785c-0.907-0.0364-1.81 0.163-2.62 0.578-0.971-0.894-2.21-1.44-3.53-1.54-1.32-0.103-2.63 0.238-3.73 0.97-0.873-0.21-1.79-0.135-2.62 0.214-0.827 0.348-1.52 0.952-1.98 1.72s-0.659 1.67-0.57 2.56c0.088 0.892 0.46 1.73 1.06 2.4" fill="#464646"/>
<path d="m155 105c0.329-4.63 0.236-14.2 0.049-22.9-0.099-4.49-1.89-8.78-5.01-12s-7.35-5.18-11.8-5.44l-0.923-0.0539c-10 0-15.6 8.49-15.3 18.5l-1.54 38.5 6.07 5.45c1.29 1.16 2.82 2.02 4.49 2.5 1.67 0.481 3.42 0.575 5.13 0.277 1.71-0.299 3.33-0.983 4.73-2s2.56-2.34 3.37-3.87l0.466-8.46s9.67-0.907 10.3-10.5z" fill="#c27461"/>
<path d="m145 115c-4.46-0.257-8.74-1.79-12.4-4.41 0 0 2.55 7.07 12.2 6.77z" fill="#7d4336"/>
<g fill="#262626">
<path d="m151 90.1c-0.018 0.357-0.175 0.693-0.437 0.936s-0.609 0.375-0.966 0.367c-0.176 0.0033-0.35-0.0285-0.512-0.0933-0.163-0.0648-0.311-0.162-0.436-0.284s-0.224-0.269-0.291-0.431-0.102-0.335-0.101-0.51c0.018-0.357 0.174-0.693 0.437-0.936 0.262-0.243 0.609-0.375 0.966-0.367 0.175-0.0033 0.35 0.0285 0.512 0.0933 0.163 0.0648 0.311 0.162 0.436 0.284s0.224 0.269 0.291 0.431 0.102 0.335 0.101 0.51z"/>
<path d="m153 86.6c-0.182 0.167-1.17-0.662-2.64-0.745s-2.6 0.588-2.75 0.402c-0.073-0.0833 0.118-0.397 0.609-0.71 0.664-0.405 1.44-0.595 2.21-0.544 0.766 0.0446 1.5 0.329 2.1 0.813 0.432 0.377 0.564 0.706 0.476 0.784z"/>
<path d="m137 90.1c-0.018 0.357-0.174 0.693-0.436 0.936s-0.609 0.375-0.967 0.367c-0.175 0.0039-0.35-0.0273-0.513-0.0919s-0.311-0.161-0.436-0.284c-0.125-0.123-0.224-0.27-0.291-0.431s-0.101-0.336-0.1-0.511c0.017-0.357 0.172-0.692 0.434-0.936 0.261-0.244 0.607-0.375 0.965-0.367 0.175-0.0039 0.35 0.0273 0.513 0.0918 0.163 0.0646 0.312 0.161 0.437 0.284 0.126 0.123 0.225 0.27 0.293 0.431 0.067 0.162 0.102 0.336 0.101 0.511z"/>
<path d="m138 86c-0.182 0.167-1.17-0.661-2.65-0.745s-2.6 0.588-2.74 0.402c-0.078-0.0882 0.113-0.397 0.609-0.71 0.663-0.407 1.44-0.597 2.21-0.544 0.765 0.0413 1.5 0.326 2.09 0.813 0.432 0.377 0.569 0.706 0.481 0.784z"/>
<path d="m143 97.2c0-0.0833 0.923-0.191 2.42-0.289 0.378 0 0.741-0.0735 0.82-0.323 0.052-0.388-0.013-0.782-0.187-1.13-0.301-0.931-0.616-1.91-0.947-2.94-1.3-4.17-2.22-7.59-2.06-7.63s1.36 3.28 2.67 7.45c0.328 1.03 0.625 2.01 0.893 2.94 0.207 0.462 0.246 0.982 0.108 1.47-0.061 0.13-0.151 0.243-0.263 0.332-0.113 0.0892-0.244 0.151-0.384 0.182-0.213 0.0436-0.431 0.06-0.648 0.049-1.5 0.0294-2.42-0.0196-2.42-0.103z"/>
<path d="m138 98c0.24 0 0.152 1.6 1.47 2.81 1.32 1.21 3.02 1.14 3.02 1.37 0 0.098-0.397 0.284-1.12 0.264-0.938-0.042-1.83-0.414-2.52-1.05-0.663-0.61-1.06-1.45-1.11-2.35-0.044-0.681 0.157-1.04 0.265-1.04z"/>
<path d="m139 80.3c-0.167 0.392-1.63 0.113-3.37 0.22s-3.17 0.49-3.38 0.122c-0.093-0.176 0.172-0.539 0.761-0.892 0.78-0.432 1.65-0.68 2.54-0.726 0.89-0.0459 1.78 0.112 2.6 0.461 0.623 0.294 0.923 0.627 0.849 0.813z"/>
<path d="m152 82.3c-0.279 0.318-1.28-0.0882-2.49-0.176s-2.27 0.0931-2.49-0.274c-0.093-0.176 0.088-0.49 0.559-0.789 0.63-0.345 1.35-0.495 2.06-0.431s1.39 0.341 1.95 0.793c0.412 0.368 0.53 0.72 0.407 0.877z"/>
</g>
<path d="m154 77.6s-2.18-6.14-4.99-7.72c-3.4-1.9-5.14 1.85-8.43 0.725-3.29-1.13-6.54-2.94-10.1-0.573-3.92 2.6-2.27 4.68-2.75 8.92-1.96 17.2-5.4 21.9-5.81 13.7-0.044-0.897-2.45-1.75-2.62-5.53-0.186-4.9-0.024-10.8 1.27-14.2 1.09-2.86 2.87-4.77 5.99-6.82 4.91-3.22 11.4-2.94 15.8-2.22s12.5 6.23 11.7 13.7z" fill="#676767"/>
<path d="m123 92.4c9e-3 -0.352-0.054-0.703-0.185-1.03-0.13-0.327-0.326-0.625-0.575-0.874s-0.546-0.446-0.873-0.578c-0.328-0.132-0.678-0.196-1.03-0.188-1.8 0.0637-3.85 0.98-3.95 4.66-0.177 6.56 6.46 5.39 6.47 5.2s0.093-4.44 0.142-7.19z" fill="#c27461"/>
<path d="m121 97.1c-0.03 0-0.118 0.0784-0.314 0.162-0.276 0.109-0.583 0.109-0.859 0-0.687-0.274-1.24-1.39-1.24-2.57-1e-3 -0.564 0.125-1.12 0.368-1.63 0.067-0.203 0.182-0.387 0.336-0.535 0.154-0.148 0.342-0.257 0.547-0.317 0.133-0.03 0.272-0.0132 0.393 0.0476 0.122 0.0607 0.219 0.162 0.274 0.286 0.084 0.186 0.04 0.314 0.074 0.328s0.142-0.108 0.098-0.382c-0.035-0.163-0.123-0.309-0.25-0.416-0.087-0.0707-0.188-0.123-0.296-0.154-0.108-0.0311-0.221-0.0403-0.332-0.027-0.271 0.045-0.526 0.159-0.74 0.33-0.214 0.172-0.38 0.395-0.482 0.65-0.294 0.562-0.448 1.19-0.447 1.82 0 1.32 0.653 2.58 1.6 2.88 0.175 0.0558 0.36 0.0716 0.542 0.0462 0.182-0.0255 0.355-0.0915 0.508-0.193 0.206-0.162 0.246-0.304 0.226-0.318z" fill="#7d4336"/>
<path d="m124 79.7c0.814 0.632 1.68 1.28 2.7 1.47 1.02 0.186 2.23-0.358 2.45-1.36 0.103-0.451 0-0.98 0.343-1.32 0.344-0.343 1.04-0.23 1.58-0.137 0.954 0.131 1.92-0.0693 2.75-0.568s1.45-1.27 1.77-2.17c0.446 0.755 1.58 0.789 2.34 0.358 0.766-0.431 1.29-1.18 1.9-1.8 0.614-0.627 1.47-1.17 2.32-0.98 0.491 0.098 0.918 0.412 1.41 0.397 0.869-0.0245 1.34-1.01 1.53-1.85 0.182-0.843 0.344-1.84 1.1-2.26 0.756-0.421 1.56-0.0882 2.35 0.0735s1.82 0.0392 2.06-0.725c0.047-0.205 0.051-0.418 0.013-0.625s-0.117-0.404-0.233-0.58c-0.487-0.82-1.24-1.45-2.12-1.8-0.89-0.345-1.87-0.381-2.78-0.103-0.259-1.11-0.841-2.12-1.67-2.89s-1.88-1.29-3-1.48c-1.12-0.186-2.28-0.034-3.32 0.436-1.04 0.47-1.92 1.24-2.52 2.2-0.659-0.672-1.47-1.17-2.37-1.47-0.895-0.291-1.85-0.363-2.78-0.208-0.929 0.155-1.81 0.531-2.56 1.1-0.753 0.566-1.36 1.31-1.76 2.15-0.792-0.261-1.64-0.283-2.45-0.063-0.804 0.22-1.53 0.672-2.07 1.3-0.549 0.628-0.9 1.4-1.01 2.23-0.109 0.826 0.028 1.67 0.395 2.41-1.22 0.603-2.3 1.71-2.4 3.07s1.14 2.78 2.45 2.5c-0.317 0.52-0.42 1.14-0.286 1.74 0.133 0.594 0.492 1.11 1 1.45 0.509 0.334 1.13 0.458 1.73 0.345 0.598-0.113 1.13-0.454 1.48-0.95" fill="#464646"/>
<path d="m146 67.6v0.122c0 0.0784-0.025 0.196-0.064 0.348-0.114 0.439-0.3 0.856-0.549 1.23-0.397 0.601-0.926 1.1-1.55 1.47-0.821 0.493-1.78 0.706-2.73 0.608l0.123-0.137c0.16 0.608 0.073 1.25-0.241 1.8-0.329 0.57-0.739 1.09-1.22 1.54-0.234 0.264-0.495 0.502-0.78 0.71-0.321 0.193-0.685 0.304-1.06 0.323-0.39 0.0329-0.782-0.0303-1.14-0.184-0.361-0.154-0.677-0.394-0.923-0.698l0.245-0.0539c-0.129 0.676-0.4 1.32-0.793 1.88-0.394 0.565-0.903 1.04-1.49 1.4-0.65 0.424-1.42 0.625-2.19 0.573-0.727-0.0747-1.44-0.274-2.1-0.588l0.182-0.0686c-0.388 0.773-0.963 1.44-1.67 1.93-0.326 0.249-0.704 0.422-1.1 0.507-0.402 0.0847-0.817 0.0789-1.22-0.017-0.681-0.189-1.29-0.573-1.76-1.1-0.465-0.531-0.764-1.19-0.861-1.88l0.148 0.0784c-0.714 0.326-1.52 0.395-2.28 0.196-0.566-0.138-1.09-0.409-1.53-0.789-0.273-0.242-0.504-0.529-0.682-0.848-0.066-0.108-0.116-0.225-0.147-0.348 0.229 0.422 0.535 0.798 0.903 1.11 0.436 0.354 0.948 0.602 1.5 0.725 0.72 0.172 1.48 0.0925 2.14-0.225l0.128-0.0637v0.142c0.102 0.651 0.391 1.26 0.83 1.75 0.44 0.492 1.01 0.847 1.65 1.02 0.363 0.084 0.741 0.0858 1.1 0.0052 0.364-0.0805 0.706-0.241 1-0.471 0.669-0.471 1.21-1.1 1.58-1.83l0.059-0.122 0.117 0.0539c0.634 0.297 1.31 0.488 2.01 0.564 0.716 0.0436 1.43-0.146 2.03-0.539 0.555-0.336 1.03-0.785 1.41-1.32 0.372-0.532 0.63-1.13 0.757-1.77l0.058-0.309 0.187 0.255c0.219 0.267 0.499 0.477 0.817 0.612 0.318 0.135 0.664 0.191 1.01 0.163 0.332-0.0155 0.656-0.111 0.942-0.279 0.268-0.195 0.514-0.416 0.736-0.662 0.462-0.433 0.862-0.928 1.19-1.47 0.29-0.49 0.377-1.07 0.24-1.63l-0.044-0.162 0.162 0.0245c0.908 0.105 1.82-0.0856 2.62-0.544 0.607-0.341 1.13-0.813 1.53-1.38 0.346-0.5 0.596-1.06 0.736-1.65z" fill="#455a64"/>
<path d="m160 162 0.697-6.98 2.41-25.6c-1.24-1.3-6.23-3.34-6.23-3.34l-12.4-4.44s-1.19 3.39-10.5 3.53c-9.51 0.142-13.4-5.8-13.4-5.8-4.75 1.52-15.1 5.46-15.1 5.46l-3.54 33.3-0.182 11-2.19 55.9s62.3-2.64 63.2-2.8l-2.53-20.1z" fill="#de5836"/>
<path d="m142 145v13.1l7.14 5.81 7.44-5.76 0.408-12.8z" fill="#262626" opacity=".3"/>
<path d="m101 191-0.182 4.66s39.4-7.12 46.2-9.89c8.49-3.43 13-6.32 13-6.32l0.143-3.55z" fill="#262626" opacity=".3"/>
<path d="m103 127s-8.87 1.42-10.7 12.7c-1.18 7.29-4.74 39.4 0.132 48 5.64 9.98 56.6-6.76 56.6-6.76l1.74-12.9-39.3 2.6-4.91-27.2z" fill="#c27461"/>
<path d="m89 165h24.9l-6.81-41.4s-14.3 2.89-16.1 17.8c-1.88 15-1.95 23.7-1.95 23.7z" fill="#de5836"/>
<g fill="#262626">
<path d="m92.2 165c0.0359-4e-3 0.0721-4e-3 0.108 0h0.329l1.26-0.025 4.64-0.039 15.4-0.039-0.128 0.142c-0.029-0.323-0.059-0.671-0.088-1.02-0.52-6.25-0.981-11.9-1.34-16-0.157-2.03-0.284-3.69-0.377-4.86-0.035-0.558-0.069-0.98-0.089-1.32v-0.343c-6e-3 -0.039-6e-3 -0.078 0-0.117 0.016 0.037 0.024 0.077 0.025 0.117l0.039 0.338c0.034 0.324 0.084 0.765 0.138 1.32 0.112 1.17 0.269 2.82 0.461 4.85 0.363 4.12 0.863 9.78 1.41 16 0.029 0.348 0.059 0.691 0.088 1.02v0.137h-0.137l-15.4-0.039-4.64-0.04-1.26-0.024h-0.329c-0.0785-0.049-0.113-0.049-0.113-0.049z"/>
<path d="m162 140c0.025 0.282 0.025 0.566 0 0.848 0 0.544-0.044 1.33-0.088 2.3-0.103 1.96-0.305 4.63-0.584 7.58-0.28 2.96-0.579 5.63-0.815 7.57-0.117 0.98-0.216 1.74-0.294 2.28-0.026 0.281-0.075 0.56-0.147 0.833-5e-3 -0.282 0.011-0.563 0.049-0.843 0.054-0.583 0.127-1.36 0.216-2.29 0.191-1.96 0.451-4.64 0.736-7.57 0.284-2.94 0.539-5.61 0.672-7.57 0.069-0.936 0.127-1.72 0.167-2.3 0.011-0.284 0.041-0.567 0.088-0.848z"/>
<path d="m114 135c-0.114-0.14-0.209-0.295-0.28-0.46-0.191-0.358-0.422-0.789-0.697-1.29-0.728-1.43-1.62-2.77-2.67-3.98-1.06-1.2-2.41-2.1-3.92-2.63-0.642-0.182-1.3-0.305-1.96-0.368 0.177-0.038 0.359-0.049 0.54-0.034 0.498 0.011 0.993 0.086 1.47 0.226 1.57 0.488 2.98 1.4 4.07 2.63 1.06 1.23 1.95 2.6 2.64 4.07 0.275 0.558 0.491 1.01 0.623 1.33 0.084 0.16 0.148 0.329 0.192 0.504z"/>
<path d="m111 167c-0.044-0.245 4.3-1.3 4.3-1.3l-3.18-20.6 1.72 20h-3.18z" opacity=".3"/>
</g>
<path d="m176 169-0.77 10.6-3.52 4.41-8.61 11.4 10.4 0.681s12.2-3.04 14-6.8c1.8-3.76 1.91-20.3 1.91-20.3z" fill="#ffcfb4"/>
<path d="m228 134 0.589-41.2c0.377-9.8-4.5-18.3-14.3-18.4l-0.903 0.0441c-4.4 0.213-8.56 2.07-11.6 5.2-3.09 3.13-4.89 7.31-5.04 11.7-0.279 8.49-0.49 17.9-0.211 22.4 0.54 9.39 10 10.4 10 10.4 0 0.289 0 2.63-0.054 5.42v4.66z" fill="#ffcfb4"/>
<path d="m206 124s5.94 0.064 12.1-4.19c0 0-2.66 7-12.1 6.6z" fill="#ff9d64"/>
<g fill="#262626">
<path d="m212 95.8c0.206 0.0588 1.16-0.627 2.69-0.98 1.53-0.353 2.77-0.201 2.91-0.338 0.138-0.137-0.167-0.206-0.711-0.289-0.791-0.0925-1.59-0.0427-2.36 0.147-0.753 0.164-1.47 0.474-2.1 0.911-0.413 0.299-0.52 0.524-0.422 0.549z"/>
<path d="m213 98.7c0.015 0.333 0.16 0.646 0.404 0.873 0.244 0.227 0.568 0.35 0.901 0.342 0.162 0.0053 0.324-0.022 0.475-0.0801 0.152-0.0581 0.29-0.146 0.407-0.258s0.211-0.247 0.275-0.396 0.098-0.309 0.099-0.471c-0.011-0.331-0.152-0.645-0.393-0.874-0.24-0.229-0.56-0.355-0.892-0.351-0.165-0.0079-0.33 0.0176-0.484 0.0751-0.155 0.0575-0.296 0.146-0.415 0.259-0.12 0.114-0.214 0.25-0.279 0.402s-0.098 0.314-0.098 0.479z"/>
<path d="m208 106c0-0.083-0.903-0.196-2.37-0.314-0.368 0-0.722-0.073-0.795-0.323-0.052-0.379 0.015-0.764 0.191-1.1 0.304-0.911 0.623-1.86 0.981-2.86 1.32-4.07 2.27-7.4 2.1-7.46-0.166-0.0539-1.37 3.2-2.7 7.27l-0.913 2.88c-0.212 0.46-0.255 0.981-0.123 1.47 0.063 0.123 0.152 0.231 0.262 0.316 0.109 0.085 0.236 0.144 0.371 0.174 0.208 0.045 0.421 0.063 0.633 0.054 1.45 0.014 2.36-0.02 2.36-0.103z"/>
<path d="m213 89.4c0.142 0.353 1.41 0.122 2.91 0.235 1.5 0.113 2.73 0.49 2.94 0.152 0.079-0.157-0.147-0.49-0.652-0.808-0.662-0.391-1.41-0.621-2.17-0.672-0.767-0.051-1.54 0.0786-2.24 0.378-0.589 0.255-0.849 0.549-0.785 0.715z"/>
<path d="m198 91.9c0.157 0.289 1.39 0 2.88 0 1.49 0 2.71 0.216 2.88-0.0784 0.068-0.137-0.167-0.402-0.682-0.637-0.691-0.297-1.44-0.441-2.19-0.421-0.759 0.0061-1.51 0.173-2.2 0.49-0.5 0.24-0.746 0.51-0.692 0.647z"/>
</g>
<path d="m228 99.6c0.167-0.0735 6.75-2.15 6.68 4.6-0.069 6.75-6.84 5.29-6.87 5.1-0.025-0.191 0.191-9.7 0.191-9.7z" fill="#ffcfb4"/>
<path d="m230 107c0.034 0 0.117 0.083 0.319 0.176 0.277 0.124 0.593 0.135 0.878 0.029 0.716-0.254 1.33-1.38 1.37-2.6 0.023-0.577-0.082-1.15-0.309-1.68-0.061-0.213-0.173-0.407-0.326-0.567-0.153-0.159-0.343-0.279-0.553-0.349-0.135-0.036-0.278-0.024-0.405 0.034s-0.23 0.159-0.291 0.284c-0.094 0.186-0.049 0.323-0.089 0.333-0.039 0.01-0.142-0.117-0.083-0.392 0.037-0.168 0.133-0.317 0.27-0.421 0.092-0.069 0.197-0.12 0.309-0.148 0.112-0.029 0.229-0.035 0.343-0.019 0.278 0.058 0.535 0.186 0.748 0.373 0.213 0.186 0.375 0.424 0.469 0.691 0.284 0.585 0.417 1.23 0.388 1.88-0.054 1.36-0.766 2.63-1.75 2.9-0.182 0.051-0.373 0.06-0.559 0.027-0.186-0.034-0.362-0.108-0.516-0.218-0.22-0.172-0.22-0.324-0.22-0.333z" fill="#ff9d64"/>
<path d="m198 95.1c0.147 0.152 1.3 0.0784 2.8 0.568 1.5 0.49 2.48 1.25 2.67 1.2 0.088 0-0.04-0.25-0.467-0.593-0.636-0.478-1.35-0.844-2.11-1.08-0.726-0.249-1.49-0.36-2.26-0.328-0.51 0.0392-0.711 0.157-0.637 0.235z" fill="#262626"/>
<path d="m200 98.6c0.013 0.332 0.155 0.646 0.396 0.874s0.562 0.355 0.894 0.35c0.162 0.0052 0.324-0.022 0.475-0.0802s0.289-0.146 0.406-0.258 0.21-0.247 0.273-0.396c0.064-0.149 0.097-0.309 0.098-0.471-0.012-0.332-0.153-0.645-0.393-0.874-0.24-0.229-0.561-0.355-0.893-0.351-0.162-0.0052-0.324 0.022-0.475 0.0801-0.152 0.0581-0.29 0.146-0.407 0.258-0.117 0.112-0.211 0.247-0.275 0.396-0.064 0.149-0.098 0.309-0.099 0.471z" fill="#262626"/>
<path d="m184 82.3c0.122-0.375 0.386-0.686 0.736-0.867 0.746-0.416 1.59-0.338 2.4-0.328 2.04 0.0073 4.05-0.445 5.89-1.32-0.629-0.326-1.2-0.749-1.7-1.25-1.01-1.06-1.56-2.65-1.06-4.02 0.035-0.133 0.1-0.257 0.19-0.361 0.09-0.104 0.203-0.187 0.33-0.241 0.417-0.113 0.775 0.304 1.06 0.632 0.927 1.09 1.8 1.57 3.22 1.47 0.857-0.0334 1.7-0.26 2.45-0.662l0.083-0.0833c0.344-0.338 0.678-0.657 0.982-0.98 2.45-2.33 4.59-3.92 6.75-4.74 3.16-1.18 8.41-1.55 11.6-0.617 3.24 0.936 6.11 3.66 6.48 7.01 1.87-1.5 4.62-1.42 6.82-0.461l0.059-0.0245c2.45 0.946 3.8 3.6 4.47 6.15 0.039 0.137 0.068 0.279 0.103 0.416 0.801 1.36 1.92 2.51 3.26 3.35 0.235 0.142 0.49 0.323 0.53 0.598 0.039 0.274-0.216 0.49-0.447 0.652-0.609 0.406-1.3 0.672-2.03 0.779 0.206 0.609 0.466 1.2 0.775 1.76 0.27 0.49 0.589 1.06 0.329 1.54-0.116 0.179-0.284 0.318-0.481 0.399-0.198 0.0806-0.415 0.0987-0.623 0.0517-0.416-0.102-0.806-0.29-1.14-0.554l0.78 2.01c-0.907 0.127-1.83 0.0418-2.7-0.25-0.584 2.35-1.26 5.35-1.91 6.94-1.04-0.0294-2.02-0.294-2.67 0.265-0.888 0.755-1.32 2.22-2.75 1.62-0.726-0.304-1.36-1.86-1.58-2.62-1.51-5.03-1.91-10.3-1.19-15.5-0.982-1.12-2.17-2.03-3.49-2.7l0.108 0.103c-2.6-0.98-5.54-1.96-8.06-0.779-1.96 0.902-3.14 2.87-4.62 4.41-1.3 1.44-2.88 2.59-4.65 3.38-1.77 0.792-3.68 1.2-5.62 1.21-0.441 2.82-0.23 6.41-0.432 9.05l-2.34-4.32c-0.168-0.307-0.32-0.623-0.456-0.946l-0.05-0.098c-0.205-0.519-0.439-1.03-0.701-1.52-1.47 1.22-3.52-0.755-2.36-2.26 0.23-0.3 0.505-0.562 0.814-0.779-0.332 0.303-0.737 0.515-1.18 0.616-0.439 0.101-0.896 0.0882-1.33-0.0381-0.427-0.142-0.794-0.421-1.05-0.793s-0.374-0.816-0.348-1.26c0.043-0.302 0.164-0.588 0.352-0.829 0.187-0.241 0.435-0.428 0.718-0.543-1.17 0.0626-2.32-0.222-3.33-0.818-0.672-0.353-1.3-1.01-1.06-1.82z" fill="#f2f2f2"/>
<g fill="#455a64">
<path d="m221 77c0.332 0.267 0.641 0.562 0.922 0.882 0.718 0.914 1.19 2 1.36 3.15 0.139 0.788 0.199 1.59 0.181 2.39 0 0.867-0.113 1.79-0.206 2.76-0.112 1.02-0.162 2.05-0.147 3.07 0.017 0.546 0.074 1.09 0.172 1.63 0.069 0.573 0.281 1.12 0.618 1.59 0.158 0.188 0.362 0.332 0.593 0.418 0.23 0.0859 0.479 0.111 0.722 0.0719 0.462-0.0764 0.886-0.302 1.21-0.642 0.531-0.687 0.869-1.5 0.981-2.36h-0.196c0.264 0.713 0.631 1.38 1.09 1.99 0.443 0.566 1.09 0.939 1.8 1.04 0.334 0.045 0.674-0.0042 0.981-0.142 0.283-0.138 0.518-0.358 0.673-0.632 0.147-0.249 0.224-0.534 0.22-0.823-4e-3 -0.27-0.103-0.53-0.279-0.735l-0.103 0.0833c0.537 0.653 1.2 1.19 1.96 1.56 0.265 0.127 0.491 0.206 0.619 0.26 0.071 0.0264 0.145 0.046 0.22 0.0588-0.064-0.0394-0.134-0.0706-0.206-0.0931-0.142-0.0637-0.343-0.152-0.598-0.289-0.737-0.394-1.39-0.932-1.91-1.58l-0.103 0.0882c0.15 0.2 0.234 0.441 0.239 0.691 6e-3 0.25-0.068 0.495-0.21 0.701-0.143 0.242-0.355 0.436-0.608 0.559-0.278 0.118-0.584 0.159-0.883 0.118-0.662-0.101-1.26-0.452-1.67-0.98-0.443-0.599-0.796-1.26-1.05-1.96l-0.127-0.304-0.074 0.323c-0.098 0.82-0.415 1.6-0.917 2.25-0.285 0.307-0.666 0.509-1.08 0.573-0.205 0.0371-0.417 0.0195-0.613-0.051-0.197-0.0706-0.371-0.192-0.506-0.351-0.308-0.436-0.505-0.941-0.574-1.47-0.094-0.526-0.15-1.06-0.166-1.59-0.017-1.02 0.027-2.03 0.132-3.04 0.088-0.98 0.172-1.9 0.187-2.77 0.014-0.812-0.057-1.62-0.211-2.42-0.199-1.17-0.707-2.26-1.47-3.17-0.274-0.331-0.603-0.613-0.972-0.833z"/>
<path d="m191 85.3 0.074 0.0637 0.225 0.176c0.125 0.0968 0.256 0.185 0.393 0.265 0.181 0.117 0.369 0.222 0.564 0.314 1.24 0.599 2.6 0.882 3.98 0.823 2.06-0.0876 4.04-0.768 5.72-1.96 2.02-1.47 3.73-3.33 5-5.48 0.712-1.12 1.3-2.26 1.94-3.32 0.585-1.03 1.32-1.98 2.17-2.8 0.771-0.741 1.71-1.28 2.74-1.57 0.468-0.119 0.952-0.162 1.43-0.127 0.444 0.0368 0.881 0.132 1.3 0.284 0.721 0.267 1.38 0.684 1.92 1.22 0.413 0.409 0.759 0.88 1.02 1.4 0.202 0.454 0.351 0.929 0.447 1.42v-0.098c0-0.0686 0-0.172-0.035-0.284-0.068-0.368-0.178-0.726-0.329-1.07-0.254-0.543-0.597-1.04-1.02-1.47-0.554-0.564-1.22-1-1.96-1.28-0.431-0.161-0.881-0.264-1.34-0.309-0.494-0.0349-0.991 0.0064-1.47 0.122-1.07 0.285-2.04 0.834-2.84 1.6-0.872 0.835-1.62 1.79-2.22 2.84-0.648 1.06-1.23 2.21-1.94 3.32-1.26 2.12-2.94 3.97-4.94 5.43-1.64 1.17-3.59 1.85-5.61 1.96-1.36 0.0733-2.72-0.182-3.95-0.745-0.441-0.214-0.87-0.451-1.29-0.71z"/>
<path d="m190 81.2s0.108 0.098 0.329 0.245c0.314 0.199 0.642 0.376 0.981 0.529 0.505 0.23 1.03 0.417 1.57 0.559 1.32 0.348 2.69 0.426 4.04 0.23 0.549-0.0799 1.09-0.204 1.62-0.372 0.355-0.113 0.701-0.253 1.04-0.416 0.129-0.0514 0.249-0.121 0.358-0.206 0-0.0343-0.544 0.216-1.44 0.49-0.526 0.149-1.06 0.258-1.6 0.323-0.661 0.076-1.33 0.0989-1.99 0.0686-0.661-0.0449-1.32-0.143-1.96-0.294-0.529-0.125-1.05-0.289-1.56-0.49-0.864-0.392-1.36-0.701-1.38-0.666z"/>
</g>
<path d="m213 109s-3.43 0.98-4.72 1.47l0.52 1.47c0.11 0.309 0.283 0.592 0.508 0.83 0.225 0.239 0.497 0.429 0.799 0.558 0.301 0.129 0.627 0.194 0.955 0.191s0.652-0.073 0.952-0.207c0.302-0.146 0.571-0.353 0.79-0.608 0.386-0.466 0.579-1.06 0.54-1.67-0.062-0.687-0.177-1.37-0.344-2.04z" fill="#ff9d64"/>
<path d="m208 110c-0.044-0.117 2.03-0.872 4.65-1.69l0.245-0.079 0.054 0.26c0 0.034 0 0.073 0.025 0.108 0.161 0.643 0.264 1.3 0.309 1.96 0.047 0.583-0.128 1.16-0.491 1.62-0.647 0.769-1.32 0.813-1.31 0.769s0.55-0.25 1.04-0.98c0.57-0.701 0.31-1.96 0-3.3 0-0.039 0-0.078-0.024-0.112l0.299 0.181c-2.62 0.838-4.75 1.39-4.79 1.26z" fill="#262626"/>
<path d="m185 233 66.6-0.309-3.68-56.6-0.275-16.9-3.92-30.6-14.9-3.19s-3.72 6.86-13.2 6.69c-9.3-0.137-9-4.09-9-4.09l-15.8 5.93s-8.66 4.21-10.3 8.3c-1.55 3.98-4.55 26.8-4.55 26.8l13.6-0.166-1.21 43.3z" fill="#455a64"/>
<path d="m190 149c0.023 0.096 0.035 0.195 0.034 0.294 0 0.226 0.03 0.49 0.049 0.858 0.035 0.74 0.069 1.82 0.074 3.14 0 2.66-0.044 6.33-0.167 10.4-0.122 4.05-0.289 7.72-0.427 10.4-0.073 1.3-0.132 2.37-0.176 3.14-0.03 0.347-0.049 0.632-0.064 0.852-3e-3 0.101-0.017 0.202-0.044 0.299-8e-3 -0.099-8e-3 -0.199 0-0.299v-0.857l0.098-3.15c0.093-2.68 0.216-6.34 0.353-10.4 0.138-4.04 0.211-7.72 0.241-10.4v-3.14-0.853c-2e-3 -0.1 8e-3 -0.201 0.029-0.299z" fill="#262626"/>
<path d="m243 129s6.7 0.706 10.3 5.39c3.3 4.32 9.66 17.9 9.5 18.2s-15 10-15 10l-3.66-6.74z" fill="#455a64"/>
<path d="m246 136c0.027 0.084 0.04 0.172 0.039 0.26 0 0.196 0.035 0.441 0.059 0.74 0.054 0.641 0.108 1.58 0.162 2.73 0.113 2.3 0.201 5.49 0.255 9.01s0.108 6.7 0.177 9.01c0.034 1.12 0.059 2.05 0.079 2.73v0.74c0.012 0.086 0.012 0.174 0 0.26-0.021-0.084-0.032-0.169-0.035-0.255 0-0.196-0.039-0.441-0.064-0.74-0.049-0.647-0.103-1.58-0.162-2.73-0.112-2.3-0.201-5.49-0.25-9.01s-0.113-6.7-0.181-9.01c-0.03-1.12-0.059-2.05-0.079-2.73v-0.739c-0.013-0.088-0.013-0.177 0-0.265z" fill="#262626"/>
<path d="m153 195s2.21 1.47 3.59 1.29c1.38-0.177 5.92-1.29 5.92-1.29s0.093 0.402 1.3 1.31c1.2 0.907 8.51 2.11 11.6 1.74 3.05-0.368 8.23-2.31 8.23-2.31l-1.56-8.74-13.7 2.17-15.3 3.52v2.31z" fill="#824e44"/>
<path d="m158 187s-1.2 5.27-0.554 6.01 1.47 0.921 1.92-0.093c0.52-1.52 0.959-3.06 1.32-4.63l0.555-1.28s-0.741 8.68 0.736 9.15c1.48 0.465 2.32 0 2.32 0s2.94 2.21 3.14-1.29c0.211-2.64 0.631-5.26 1.26-7.84l0.687-1.14v1.96s-1.56 4.62-0.687 5.26 1.8 1.11 2.35 0.372c0.555-0.74 3.14-6.15 3.7-8.04 0 0 1.73 2.5 4.15 2.53 1.9 0.024 3-0.789 2.23-1.96-0.775-1.17-2.68-2.17-2.68-2.17l-2.5-5.83-6.1-1.43h-6.94z" fill="#ffcfb4"/>
<path d="m148 184s5.83 3.47 8.52 4.12c2.68 0.646 17.1-1.91 16.9-2.81-0.147-0.906-2.03-1.72-3.32-1.9s-5.09-0.833-5.09-0.833h10.2l4.91 3.1s1.74-0.701 1.18-2.12c-0.3-0.755-4.14-3.75-4.14-3.75l-9.32-1.85-16.6-0.647z" fill="#ffbf9d"/>
<path d="m154 168s16.6 2.77 16.9 3.23c0.373 0.461 4.62 5.26 4.62 5.26s6.38 2.2 5.55 3.61c-0.824 1.41-2.68 0.554-2.68 0.554s2.59 4.06 1.39 4.9-2.5 0.274-3.44-0.926c-0.937-1.2-3.61-5.64-3.61-5.64s2.22 9.06 1.11 9.33c-1.11 0.28-2.87 0.368-3.61-1.96-0.398-1.18-0.708-2.38-0.927-3.61l-3.51-5.82s1.39 10.6 0.554 11.5c0 0-2.13 0.691-2.86-1.16-0.736-1.85-1.76-6.07-1.76-6.07l-1.76-4.64-0.182 2.94s1.47 5.45 0.555 5.82c-0.918 0.367-2.13 0-2.78-1.24-0.691-1.24-1.25-2.56-1.66-3.92-0.181-0.72-1.16-3.18-1.16-3.18l-3.52-0.461z" fill="#c27461"/>
<g fill="#7d4336">
<path d="m174 175c0.797 0.913 1.53 1.88 2.19 2.9 0.735 0.964 1.4 1.98 1.99 3.04-0.798-0.912-1.53-1.88-2.19-2.89-0.735-0.966-1.4-1.98-1.99-3.04z"/>
<path d="m168 172c0.3 0.272 0.561 0.583 0.775 0.926 0.569 0.785 1.09 1.6 1.56 2.45 0.468 0.849 0.894 1.72 1.28 2.61 0.182 0.361 0.321 0.743 0.412 1.14-0.226-0.333-0.418-0.688-0.574-1.06-0.333-0.666-0.79-1.58-1.34-2.56-0.55-0.985-1.08-1.86-1.47-2.48-0.241-0.323-0.454-0.665-0.638-1.02z"/>
<path d="m164 173c0-0.024 0.274 0.118 0.584 0.466 0.397 0.457 0.696 0.99 0.878 1.57 0.184 0.566 0.306 1.15 0.363 1.74 0.044 0.245 0.044 0.495 0 0.74-0.103-0.225-0.169-0.465-0.196-0.711-0.106-0.573-0.247-1.14-0.422-1.7-0.179-0.548-0.44-1.06-0.776-1.53-0.25-0.357-0.431-0.544-0.431-0.578z"/>
<path d="m158 173c0-0.03 0.255 0.049 0.593 0.284 0.438 0.317 0.791 0.736 1.03 1.22 0.242 0.485 0.36 1.02 0.343 1.56 0.018 0.224-0.028 0.448-0.132 0.647 0.035-0.724-0.115-1.44-0.436-2.1s-0.802-1.21-1.4-1.62z"/>
</g>
<path d="m188 197c1.18 0 46.2-3.3 46.2-3.3l15.8-3.27-3.93-17.5-58 18.6z" fill="#262626" opacity=".3"/>
<path d="m182 187 41.6-9.56s37.9-22 38.5-22.4-2.94 22.4-2.94 22.4-24.1 12.7-31.1 14.4c-3.79 0.897-45.8 4.41-45.8 4.41z" fill="#824e44"/>
<path d="m285 95.8c2.57-2.76 8.83-2.28 10.3-0.436 1.12-0.509 2.39-0.569 3.55-0.167 1.16 0.401 2.12 1.23 2.68 2.32l6.65 1.52c1.13 0.26 2.32 0.544 3.19 1.32 0.868 0.779 1.26 2.2 0.53 3.11 2.34 0.633 3.23 4.14 1.47 5.8 0.222 0.263 0.388 0.568 0.488 0.897s0.131 0.675 0.093 1.02c-0.039 0.342-0.147 0.672-0.318 0.97-0.17 0.299-0.4 0.56-0.675 0.767 1.82 2.22 3.25 4.75 4.22 7.45 0.408 1.13 0.731 2.39 0.3 3.51-0.432 1.12-1.92 1.88-2.88 1.17 0.323 0.465 0.506 1.01 0.525 1.58s-0.126 1.12-0.418 1.61c1.13 0.039 1.45 1.78 0.663 2.59-0.785 0.808-2.04 0.887-3.17 0.848-1.13-0.04-2.35-0.108-3.28 0.529 9e-3 0.137 0.045 0.272 0.108 0.395 0.062 0.123 0.149 0.232 0.255 0.32 1.92 1.59 2.45 4.31 0.981 6.32-0.137 0.186-0.265 0.358-0.373 0.515-0.662 0.921-2.29 1.75-3.3 2.26-2.56 1.3-4.08 1.04-6.93 1.42 0.76 1.84-3.93 5.88-9.16 1.82-10.6 2.72-18.2 3.7-29.2 3.64-1.56 0-3.43-0.24-4.11-1.64-1.27 0.323-2.63-0.28-3.55-1.2-0.872-0.978-1.57-2.1-2.06-3.31-1.34-0.404-2.53-1.21-3.4-2.32-0.865-1.1-1.37-2.45-1.44-3.85-0.906-0.73-1.65-1.64-2.18-2.67-0.535-1.03-0.849-2.16-0.922-3.32-2.62-0.823-4.03-4.24-2.76-6.67 0.597-3.22 1.72-6.31 3.33-9.16-1.78-0.402-2.45-2.82-1.68-4.48 0.776-1.67 2.38-2.72 3.93-3.69-1.34 0.338-2.49-1.35-2.16-2.69 0.329-1.34 1.55-2.25 2.75-2.94 1.75-1.03 3.62-1.84 5.56-2.42 0.657-2.34 3.7-4.99 5.89-6.01 8.93-4.11 15.2-5.12 26.4 3.28" fill="#303030"/>
<path d="m260 112c0.77-6.11 5.3-13.4 11.4-12.3l18.8 6c0.89 0.152 1.69 0.631 2.24 1.34s0.821 1.6 0.748 2.5l-3.19 40.8c-0.2 2.58-1.29 5.01-3.08 6.88-1.79 1.87-4.17 3.07-6.74 3.39-1.6 0.197-3.22 0.049-4.76-0.435-1.54-0.483-2.95-1.29-4.14-2.37-1.2-1.08-2.15-2.4-2.79-3.87-0.641-1.48-0.956-3.07-0.926-4.68 0.054-2.81 0.083-4.9 0.083-4.9s-7.76-1.78-8.75-12.1c-0.511-5.14 0.26-13.5 1.11-20.2z" fill="#824e44"/>
<g fill="#262626">
<path d="m264 121c-0.024 0.341 0.086 0.678 0.307 0.939s0.535 0.425 0.876 0.458c0.166 0.023 0.335 0.013 0.497-0.03 0.163-0.042 0.315-0.117 0.448-0.219s0.244-0.23 0.327-0.376 0.136-0.306 0.156-0.473c0.022-0.341-0.089-0.677-0.309-0.938-0.221-0.261-0.534-0.427-0.874-0.463-0.166-0.023-0.336-0.013-0.498 0.03-0.163 0.043-0.315 0.118-0.448 0.221-0.133 0.102-0.245 0.231-0.327 0.377-0.083 0.146-0.135 0.308-0.155 0.474z"/>
<path d="m262 117c0.152 0.181 1.19-0.49 2.61-0.402s2.4 0.863 2.57 0.701c0.079-0.074-0.069-0.392-0.491-0.75-0.585-0.46-1.3-0.728-2.04-0.769-0.734-0.047-1.46 0.14-2.08 0.534-0.461 0.304-0.628 0.603-0.555 0.686z"/>
<path d="m276 121c-0.025 0.342 0.085 0.679 0.306 0.941s0.535 0.427 0.877 0.461c0.166 0.023 0.335 0.013 0.497-0.03 0.162-0.042 0.315-0.117 0.447-0.219 0.133-0.103 0.245-0.23 0.328-0.376s0.135-0.306 0.155-0.473c0.025-0.341-0.085-0.679-0.306-0.941-0.22-0.261-0.535-0.427-0.876-0.46-0.166-0.024-0.335-0.014-0.498 0.029-0.162 0.043-0.314 0.118-0.447 0.22s-0.244 0.23-0.327 0.375c-0.083 0.146-0.136 0.307-0.156 0.473z"/>
<path d="m275 118c0.152 0.181 1.2-0.49 2.6-0.397s2.4 0.858 2.57 0.696c0.079-0.074-0.063-0.392-0.49-0.745-0.584-0.462-1.3-0.731-2.04-0.769-0.734-0.051-1.46 0.134-2.09 0.529-0.461 0.309-0.628 0.608-0.554 0.686z"/>
<path d="m270 128c0-0.083-0.853-0.289-2.27-0.559-0.359-0.058-0.692-0.151-0.741-0.401-6e-3 -0.375 0.102-0.742 0.309-1.05l1.24-2.68c1.72-3.81 2.99-6.95 2.84-7.02s-1.68 2.97-3.4 6.78l-1.19 2.7c-0.255 0.42-0.352 0.916-0.275 1.4 0.043 0.131 0.116 0.25 0.213 0.348s0.216 0.172 0.346 0.216c0.196 0.069 0.401 0.11 0.609 0.122 1.42 0.167 2.31 0.23 2.32 0.152z"/>
</g>
<path d="m268 145c4.81 0.373 9.64-0.595 13.9-2.8 0 0-3.76 6.81-13.9 5.22z" fill="#5b342f"/>
<path d="m275 112c0.112 0.392 1.54 0.299 3.18 0.598s2.94 0.838 3.2 0.49c0.108-0.162-0.103-0.534-0.623-0.941-0.693-0.499-1.49-0.834-2.33-0.98-0.841-0.146-1.7-0.099-2.53 0.137-0.637 0.206-0.947 0.495-0.897 0.696z" fill="#262626"/>
<path d="m262 112c0.231 0.334 1.22 0.064 2.4 0.123 1.17 0.059 2.14 0.348 2.39 0.024 0.108-0.156-0.029-0.49-0.442-0.813-0.558-0.4-1.22-0.625-1.91-0.647s-1.36 0.161-1.95 0.524c-0.432 0.304-0.589 0.628-0.491 0.789z" fill="#262626"/>
<path d="m255 117c0.069-1.62 0.696-3.16 1.78-4.38 0.613-0.632 1.38-1.1 1.93-1.79 1.18-1.5 1.06-3.6 1.58-5.42 0.347-1.18 0.971-2.26 1.82-3.15 0.849-0.889 1.9-1.56 3.06-1.96 1.93-0.652 4.11-0.524 5.93-1.47 1.34-0.686 2.38-1.89 3.76-2.49 2.69-1.18 5.77 0.25 8.27 1.79 0.491 2.01-0.834 3.72-2.08 5.36-0.633 0.819-1.44 1.49-2.36 1.97-0.918 0.479-1.93 0.755-2.96 0.806-1.6 0.069-3.46-0.328-4.61 0.794-1.14 1.12-0.78 3.3-1.78 4.66-1.42 1.96-4.57 1.14-6.67 2.32-1.62 0.911-2.33 2.82-3.17 4.48-0.839 1.66-2.26 3.38-4.12 3.26-0.305-1.57-0.427-3.17-0.363-4.77z" fill="#494949"/>
<path d="m279 102c4.7 0.015 9.34 0.937 13.7 2.72 1.28 0.529 2.62 1.2 3.34 2.39 0.633 1.05 0.692 2.34 0.653 3.56-0.113 3.83-1.74 8.49-3.26 12l-4.84 2.78c-3.68-0.935-1.87-7.27-1.63-10.5-1.28-0.605-2.36-1.56-3.12-2.75-0.761-1.19-1.17-2.57-1.18-3.98-1.04-0.703-1.91-1.63-2.54-2.72-0.63-1.08-1.01-2.3-1.1-3.55z" fill="#494949"/>
<path d="m289 124c0.181-2.19 2.88-2.57 4.75-1.41 1.03 0.637 1.78 1.88 1.61 4.2-0.491 6.2-6.6 4.45-6.6 4.28s0.025-4.51 0.241-7.07z" fill="#824e44"/>
<path d="m291 129c0.029 0 0.103 0.088 0.279 0.182 0.123 0.065 0.257 0.105 0.395 0.119 0.138 0.013 0.277-1e-3 0.41-0.041 0.672-0.191 1.3-1.19 1.42-2.3 0.056-0.53-8e-3 -1.07-0.187-1.57-0.044-0.197-0.135-0.381-0.266-0.535-0.131-0.155-0.297-0.275-0.484-0.352-0.123-0.041-0.255-0.039-0.376 7e-3s-0.222 0.131-0.287 0.243c-0.093 0.167-0.063 0.294-0.098 0.304-0.034 0.01-0.127-0.118-0.059-0.368 0.049-0.15 0.146-0.281 0.275-0.372 0.181-0.114 0.399-0.154 0.609-0.113 0.251 0.071 0.48 0.204 0.666 0.387 0.185 0.184 0.321 0.411 0.393 0.662 0.225 0.556 0.309 1.16 0.246 1.75-0.133 1.24-0.864 2.37-1.78 2.56-0.172 0.036-0.349 0.034-0.519-8e-3 -0.17-0.041-0.328-0.121-0.463-0.232-0.171-0.172-0.196-0.314-0.171-0.324z" fill="#5b342f"/>
<g fill="#455a64">
<path d="m294 133c0.328 0.017 0.656 3e-3 0.981-0.044 0.379-0.047 0.748-0.151 1.09-0.309l-0.073-0.039c0.075 0.53 0.287 1.03 0.615 1.46 0.328 0.424 0.761 0.755 1.26 0.961s1.04 0.28 1.57 0.215c0.532-0.066 1.04-0.268 1.47-0.588h-0.107c0.185 0.284 0.473 0.484 0.804 0.559 0.337 0.075 0.688 0.051 1.01-0.069 0.336-0.118 0.625-0.344 0.819-0.642 0.195-0.305 0.309-0.654 0.334-1.01 0.037-0.747-0.189-1.48-0.638-2.08-0.469-0.603-1.01-1.15-1.61-1.62v0.147c0.263-0.16 0.488-0.373 0.663-0.627 0.174-0.253 0.292-0.54 0.348-0.843 0.132-0.612 0.081-1.25-0.148-1.83-0.246-0.588-0.606-1.12-1.06-1.57-0.462-0.454-0.954-0.877-1.47-1.26v0.137c0.226-0.237 0.401-0.518 0.512-0.826 0.11-0.308 0.155-0.636 0.13-0.963-0.035-0.671-0.267-1.32-0.667-1.86-0.78-1.03-1.93-1.61-2.99-2.16l0.049 0.108c0.173-0.646 0.186-1.32 0.039-1.98-0.148-0.652-0.452-1.26-0.887-1.77s-0.986-0.903-1.61-1.15-1.29-0.341-1.96-0.271l0.093 0.107c0.11-0.532 0.097-1.08-0.039-1.61-0.137-0.526-0.392-1.01-0.746-1.43-0.312-0.397-0.706-0.722-1.16-0.952s-0.944-0.36-1.45-0.381l0.078 0.079c-5e-3 -0.529-0.13-1.05-0.366-1.52-0.237-0.473-0.578-0.886-0.998-1.21-0.355-0.297-0.768-0.517-1.21-0.649-0.444-0.131-0.91-0.171-1.37-0.116l0.069 0.064c-0.028-0.567-0.197-1.12-0.491-1.6-0.241-0.433-0.553-0.822-0.922-1.15-0.577-0.544-1.32-0.88-2.11-0.955h-0.231-0.22c-0.132 4e-3 -0.263 0.017-0.393 0.039-0.204 0.035-0.404 0.087-0.599 0.157l-0.348 0.142-0.113 0.049 0.123-0.035 0.353-0.127c0.195-0.06 0.393-0.106 0.594-0.137 0.128-0.021 0.258-0.03 0.387-0.03h0.216l0.226 0.025c0.771 0.082 1.49 0.418 2.05 0.955 0.36 0.326 0.662 0.711 0.893 1.14 0.271 0.471 0.424 1 0.447 1.54v0.073h0.068c0.443-0.049 0.892-8e-3 1.32 0.121 0.426 0.128 0.823 0.342 1.16 0.629 0.399 0.31 0.722 0.707 0.946 1.16 0.223 0.453 0.341 0.951 0.345 1.46v0.079h0.078c0.496 0.037 0.978 0.178 1.42 0.414 0.438 0.235 0.821 0.56 1.12 0.954 0.303 0.393 0.521 0.846 0.637 1.33 0.117 0.482 0.131 0.984 0.041 1.47l-0.03 0.122h0.123c0.637-0.075 1.28 8e-3 1.88 0.239 0.597 0.232 1.13 0.607 1.55 1.09 0.419 0.485 0.713 1.06 0.856 1.69 0.144 0.624 0.131 1.27-0.035 1.89v0.074l0.064 0.034c1.06 0.549 2.18 1.13 2.94 2.11 0.381 0.506 0.602 1.12 0.633 1.75 0.022 0.3-0.018 0.602-0.12 0.885-0.101 0.284-0.261 0.543-0.469 0.761l-0.078 0.074 0.083 0.064c0.981 0.793 2.01 1.63 2.45 2.76 0.214 0.55 0.261 1.15 0.138 1.72-0.052 0.275-0.161 0.536-0.32 0.766-0.159 0.231-0.364 0.425-0.603 0.572l-0.108 0.064 0.094 0.083c0.592 0.459 1.12 0.991 1.58 1.58 0.431 0.56 0.65 1.25 0.619 1.96-4e-3 0.329-0.106 0.65-0.292 0.922-0.185 0.272-0.448 0.483-0.753 0.606-0.281 0.123-0.594 0.149-0.89 0.072-0.297-0.076-0.559-0.25-0.744-0.493l-0.045-0.069-0.063 0.044c-0.449 0.327-0.98 0.522-1.53 0.566-0.554 0.043-1.11-0.068-1.6-0.321-0.41-0.22-0.764-0.532-1.03-0.911-0.271-0.379-0.451-0.815-0.526-1.27v-0.073l-0.064 0.034c-0.335 0.156-0.693 0.26-1.06 0.309-0.324 0.052-0.653 0.072-0.981 0.058-0.52 0-1.04-0.109-1.51-0.318-0.299-0.119-0.549-0.337-0.707-0.618-0.098-0.196-0.113-0.313-0.122-0.308v0.083c0.016 0.082 0.045 0.161 0.083 0.235 0.151 0.295 0.401 0.528 0.707 0.657"/>
<path d="m315 125c0.094-0.115 0.175-0.24 0.24-0.373 0.259-0.494 0.383-1.05 0.362-1.6-0.022-0.557-0.189-1.1-0.484-1.57-0.249-0.386-0.575-0.716-0.959-0.97-0.383-0.253-0.816-0.423-1.27-0.5l0.054 0.074c0.231-1.05 0.055-2.14-0.491-3.07-0.298-0.518-0.704-0.966-1.19-1.31-0.535-0.328-1.1-0.606-1.69-0.828-0.289-0.126-0.56-0.291-0.804-0.49-0.24-0.215-0.429-0.479-0.555-0.774-0.265-0.598-0.338-1.3-0.677-1.96-0.358-0.664-0.907-1.2-1.58-1.56-0.669-0.349-1.43-0.49-2.18-0.405l0.108 0.108c0.12-0.75 0.066-1.52-0.157-2.24-0.224-0.726-0.611-1.39-1.13-1.94-0.522-0.554-1.16-0.98-1.88-1.25s-1.48-0.367-2.23-0.293l0.103 0.102c0.103-0.825-0.033-1.66-0.392-2.42-0.358-0.751-0.924-1.38-1.63-1.83-0.707-0.44-1.52-0.67-2.36-0.662-0.833 0.0083-1.65 0.254-2.34 0.709h0.098c-0.607-0.603-1.34-1.07-2.14-1.36-0.714-0.278-1.46-0.465-2.22-0.554-1.23-0.156-2.48-0.093-3.68 0.186-0.776 0.17-1.52 0.465-2.2 0.872-0.181 0.105-0.353 0.225-0.515 0.358-0.057 0.0404-0.111 0.0846-0.162 0.132 0 0 0.231-0.172 0.702-0.451 0.686-0.385 1.43-0.663 2.2-0.823 1.2-0.262 2.43-0.311 3.65-0.147 0.749 0.0953 1.48 0.283 2.18 0.559 0.768 0.309 1.46 0.778 2.03 1.38l0.044 0.049 0.059-0.034c0.671-0.435 1.45-0.669 2.25-0.675 0.799-0.0061 1.58 0.216 2.26 0.64s1.22 1.03 1.56 1.75 0.473 1.53 0.375 2.32v0.118h0.117c0.73-0.073 1.47 0.023 2.15 0.279s1.31 0.666 1.81 1.2c0.504 0.533 0.878 1.17 1.1 1.87 0.216 0.699 0.269 1.44 0.154 2.16v0.123h0.128c0.71-0.082 1.43 0.049 2.06 0.376 0.635 0.328 1.16 0.836 1.5 1.46 0.319 0.603 0.397 1.3 0.677 1.94 0.138 0.318 0.344 0.603 0.604 0.833 0.256 0.203 0.54 0.368 0.844 0.49 0.579 0.218 1.14 0.488 1.67 0.808 0.471 0.332 0.865 0.761 1.15 1.26 0.541 0.889 0.725 1.95 0.515 2.97v0.064h0.064c0.438 0.071 0.857 0.232 1.23 0.473 0.373 0.242 0.691 0.558 0.935 0.928 0.366 0.562 0.538 1.23 0.49 1.9-0.025 0.42-0.132 0.831-0.314 1.21-0.162 0.259-0.25 0.382-0.245 0.387z"/>
<path d="m256 126c0.039-0.075 0.062-0.157 0.068-0.241 6e-3 -0.085-6e-3 -0.169-0.034-0.249-0.073-0.201-0.196-0.38-0.358-0.519-0.224-0.183-0.483-0.319-0.761-0.397-0.345-0.093-0.676-0.235-0.981-0.422-0.329-0.255-0.568-0.609-0.682-1.01-0.133-0.461-0.178-0.943-0.133-1.42 0.03-0.49 0.123-1.05 0.133-1.63 0.029-1.18-0.447-2.38-0.731-3.68-0.149-0.671-0.166-1.36-0.049-2.04 0.058-0.353 0.191-0.69 0.391-0.988 0.2-0.297 0.461-0.549 0.767-0.737 0.698-0.322 1.43-0.557 2.19-0.7 0.399-0.1 0.779-0.266 1.12-0.49 0.347-0.253 0.624-0.591 0.804-0.98 0.315-0.791 0.547-1.61 0.692-2.45 0.092-0.411 0.244-0.806 0.452-1.17 0.214-0.357 0.54-0.633 0.927-0.784 0.563-0.144 1.14-0.213 1.72-0.206 0.303-0.018 0.6-0.088 0.879-0.206 0.278-0.126 0.518-0.321 0.696-0.568 0.299-0.49 0.527-1.02 0.677-1.57 0.165-0.514 0.438-0.987 0.8-1.39 0.344-0.384 0.764-0.693 1.23-0.908 0.469-0.214 0.978-0.328 1.49-0.337 0.966-0.014 1.9 0.336 2.62 0.98l0.084 0.074 0.049-0.098c0.364-0.757 0.886-1.43 1.53-1.97 0.645-0.538 1.4-0.933 2.21-1.16 0.678-0.181 1.38-0.229 2.08-0.142 0.591 0.0581 1.17 0.224 1.7 0.49 0.748 0.379 1.37 0.968 1.79 1.7 0.115 0.188 0.215 0.384 0.299 0.588l0.074 0.152v0.054-0.054l-0.059-0.162c-0.074-0.209-0.167-0.411-0.28-0.603-0.409-0.749-1.03-1.36-1.79-1.76-0.539-0.278-1.12-0.458-1.73-0.529-0.711-0.0972-1.44-0.0539-2.13 0.127-0.832 0.225-1.61 0.624-2.27 1.17-0.664 0.548-1.2 1.23-1.58 2h0.128c-0.747-0.68-1.72-1.06-2.73-1.05-0.541 7e-3 -1.07 0.126-1.57 0.349-0.492 0.222-0.933 0.544-1.3 0.945-0.385 0.423-0.672 0.924-0.844 1.47-0.146 0.535-0.366 1.05-0.653 1.52-0.171 0.216-0.389 0.391-0.639 0.511-0.249 0.119-0.522 0.181-0.798 0.179-0.597-1e-3 -1.19 0.071-1.77 0.216-0.427 0.17-0.786 0.475-1.02 0.867-0.226 0.379-0.392 0.791-0.491 1.22-0.143 0.82-0.37 1.62-0.677 2.4-0.167 0.359-0.424 0.67-0.746 0.901-0.325 0.221-0.685 0.386-1.06 0.49-0.771 0.145-1.52 0.387-2.23 0.72-0.339 0.196-0.623 0.472-0.829 0.804-0.195 0.32-0.331 0.672-0.403 1.04-0.121 0.699-0.101 1.42 0.059 2.11 0.295 1.32 0.771 2.5 0.746 3.65 0 0.564-0.088 1.11-0.113 1.63-0.047 0.495 5e-3 0.995 0.152 1.47 0.122 0.421 0.379 0.789 0.731 1.05 0.305 0.187 0.636 0.327 0.982 0.416 0.271 0.073 0.525 0.2 0.746 0.373 0.158 0.13 0.279 0.299 0.353 0.49 0.07 0.144 0.092 0.307 0.064 0.465z"/>
<path d="m244 116s0.024-0.039 0.064-0.117l0.176-0.343 0.668-1.34c0.289-0.573 0.618-1.3 1.08-2.09 0.488-0.914 1.22-1.67 2.12-2.19 0.49-0.264 1.09-0.436 1.68-0.686 0.306-0.125 0.595-0.29 0.859-0.49 0.277-0.21 0.499-0.484 0.647-0.798 0.304-0.637 0.324-1.37 0.569-2.03 0.116-0.335 0.329-0.627 0.614-0.838 0.309-0.202 0.648-0.353 1.01-0.446 0.381-0.099 0.752-0.233 1.11-0.402 0.37-0.191 0.672-0.492 0.863-0.862 0.383-0.75 0.402-1.6 0.569-2.4 0.066-0.403 0.213-0.788 0.432-1.13 0.234-0.328 0.585-0.554 0.981-0.632 0.825-0.157 1.7 0.142 2.61 0 0.457-0.072 0.879-0.286 1.21-0.612 0.307-0.317 0.572-0.671 0.79-1.05 0.23-0.363 0.446-0.73 0.702-1.06 0.24-0.328 0.559-0.59 0.927-0.764 0.746-0.328 1.58-0.127 2.34 0.0588 0.758 0.251 1.56 0.334 2.36 0.245 0.739-0.173 1.44-0.477 2.07-0.897 0.581-0.387 1.2-0.715 1.84-0.98 1.2-0.381 2.48-0.399 3.69-0.0539 1 0.28 1.92 0.783 2.7 1.47 0.581 0.523 1.08 1.13 1.47 1.81 0.248 0.428 0.456 0.877 0.624 1.34l0.137 0.363c0.014 0.0425 0.032 0.0835 0.054 0.122-7e-3 -0.0436-0.019-0.0863-0.035-0.127-0.029-0.0931-0.068-0.216-0.122-0.372-0.153-0.474-0.352-0.932-0.594-1.37-0.391-0.689-0.887-1.31-1.47-1.85-0.787-0.703-1.73-1.22-2.74-1.5-1.24-0.361-2.55-0.349-3.78 0.0343-0.656 0.263-1.28 0.592-1.87 0.98-0.616 0.405-1.3 0.699-2.02 0.867-0.769 0.0826-1.55-1e-3 -2.28-0.245-0.396-0.11-0.8-0.188-1.21-0.235-0.43-0.0565-0.867 0.0048-1.26 0.177-0.398 0.173-0.741 0.45-0.993 0.803-0.256 0.345-0.493 0.703-0.711 1.07-0.214 0.369-0.471 0.711-0.765 1.02-0.299 0.297-0.684 0.492-1.1 0.559-0.853 0.127-1.72-0.176-2.62 0-0.438 0.095-0.823 0.355-1.07 0.725-0.232 0.366-0.389 0.774-0.462 1.2-0.166 0.824-0.191 1.66-0.549 2.35-0.173 0.339-0.447 0.615-0.785 0.789-0.345 0.166-0.705 0.297-1.08 0.392-0.376 0.103-0.733 0.269-1.06 0.49-0.31 0.231-0.543 0.551-0.667 0.917-0.255 0.7-0.275 1.42-0.559 2.02-0.304 0.569-0.812 1-1.42 1.21-0.574 0.25-1.16 0.426-1.68 0.7-0.914 0.534-1.66 1.32-2.14 2.25-0.462 0.804-0.781 1.53-1.06 2.11-0.28 0.583-0.491 1.03-0.633 1.35-0.064 0.152-0.118 0.264-0.157 0.353-0.026 0.035-0.047 0.072-0.064 0.112z"/>
<path d="m251 110c-0.036-0.014-0.074-0.023-0.113-0.024-0.115-5e-3 -0.23 0.019-0.333 0.069-0.188 0.114-0.345 0.274-0.456 0.463-0.112 0.19-0.174 0.405-0.182 0.624-4e-3 0.315 0.035 0.628 0.118 0.931 0.099 0.351 0.147 0.714 0.142 1.08-0.051 0.412-0.208 0.804-0.457 1.14-0.245 0.373-0.559 0.73-0.814 1.17-0.148 0.229-0.242 0.488-0.273 0.758-0.032 0.27 0 0.544 0.091 0.8 0.187 0.535 0.565 0.98 0.746 1.52 0.152 0.574 0.08 1.18-0.201 1.71-0.25 0.558-0.608 1.1-0.854 1.73-0.134 0.319-0.207 0.659-0.216 1-2e-3 0.354 0.072 0.705 0.216 1.03 0.331 0.63 0.717 1.23 1.15 1.79 0.445 0.553 0.668 1.25 0.624 1.96-0.181 0.721-0.447 1.42-0.79 2.08-0.15 0.361-0.234 0.746-0.251 1.14 6e-3 0.39 0.1 0.773 0.275 1.12 0.365 0.642 0.805 1.24 1.31 1.78 0.47 0.513 0.829 1.12 1.06 1.77 0.159 0.666 0.362 1.32 0.609 1.96 0.145 0.308 0.356 0.58 0.618 0.799 0.264 0.193 0.56 0.341 0.873 0.436 0.291 0.089 0.577 0.197 0.854 0.323 0.261 0.126 0.501 0.291 0.711 0.49 0.385 0.403 0.715 0.855 0.982 1.34 0.274 0.465 0.535 0.926 0.824 1.34 0.517 0.758 1.27 1.33 2.13 1.63 0.65 0.228 1.34 0.307 2.03 0.231 0.431-0.047 0.852-0.163 1.25-0.343 0.136-0.063 0.267-0.135 0.393-0.216-0.514 0.262-1.07 0.428-1.64 0.49-0.665 0.059-1.34-0.028-1.96-0.255-0.843-0.298-1.57-0.86-2.06-1.6-0.28-0.407-0.53-0.867-0.81-1.34-0.272-0.504-0.613-0.969-1.01-1.38-0.222-0.213-0.473-0.392-0.746-0.535-0.284-0.128-0.575-0.239-0.873-0.333-0.295-0.09-0.573-0.231-0.819-0.416-0.242-0.2-0.437-0.451-0.57-0.735-0.24-0.627-0.438-1.27-0.593-1.92-0.231-0.68-0.6-1.31-1.08-1.84-0.494-0.53-0.925-1.12-1.28-1.74-0.161-0.323-0.247-0.678-0.25-1.04 0.01-0.367 0.09-0.73 0.235-1.07 0.351-0.673 0.619-1.38 0.8-2.12 0.048-0.382 1e-3 -0.771-0.138-1.13-0.133-0.346-0.308-0.675-0.52-0.98-0.43-0.55-0.81-1.14-1.14-1.75-0.138-0.308-0.209-0.642-0.206-0.98 5e-3 -0.325 0.073-0.646 0.201-0.945 0.236-0.603 0.589-1.15 0.844-1.73 0.298-0.558 0.368-1.21 0.196-1.82-0.201-0.578-0.579-1.02-0.755-1.52-0.087-0.236-0.118-0.489-0.091-0.739 0.028-0.249 0.112-0.49 0.248-0.702 0.245-0.426 0.554-0.793 0.8-1.17 0.256-0.353 0.417-0.766 0.466-1.2 0-0.374-0.054-0.745-0.162-1.1-0.086-0.294-0.131-0.599-0.133-0.906 4e-3 -0.211 0.06-0.417 0.161-0.601 0.102-0.185 0.247-0.342 0.423-0.458 0.133-0.058 0.28-0.075 0.422-0.049z"/>
</g>
<path d="m315 125c0.164 5e-3 0.329-8e-3 0.49-0.039 0.473-0.086 0.923-0.269 1.32-0.539 0.644-0.427 1.12-1.06 1.34-1.8 0.146-0.493 0.182-1.01 0.104-1.52s-0.268-0.993-0.556-1.42c-0.364-0.472-0.773-0.907-1.22-1.3-0.483-0.399-0.871-0.901-1.13-1.47-0.2-0.647-0.153-1.34 0.133-1.96 0.25-0.661 0.623-1.3 0.863-2.03 0.266-0.806 0.36-1.66 0.277-2.5-0.084-0.844-0.343-1.66-0.762-2.4s-0.987-1.38-1.67-1.89-1.46-0.863-2.29-1.05l0.054 0.142c0.292-0.396 0.486-0.857 0.564-1.34 0.072-0.49 0.048-0.989-0.069-1.47-0.113-0.49-0.316-0.955-0.598-1.37-0.284-0.421-0.632-0.797-1.03-1.11-1.2-0.882-2.59-1.47-4.06-1.72-1.37-0.285-2.78-0.371-4.18-0.255l0.098 0.0882c-0.014-0.803-0.247-1.59-0.674-2.27-0.427-0.68-1.03-1.23-1.75-1.59-0.674-0.333-1.42-0.492-2.17-0.461-0.704 0.0628-1.4 0.228-2.05 0.49-0.318 0.106-0.648 0.173-0.982 0.201-0.315 0.0218-0.631-0.0164-0.932-0.113-0.574-0.211-1.12-0.489-1.63-0.828-0.484-0.315-1.01-0.567-1.56-0.75-0.508-0.155-1.04-0.235-1.57-0.235-0.905-0.0123-1.8 0.212-2.59 0.652-0.588 0.328-1.11 0.764-1.54 1.28-0.267 0.324-0.493 0.679-0.672 1.06-0.065 0.128-0.119 0.26-0.162 0.397 0 0 0.059-0.132 0.191-0.387 0.188-0.368 0.419-0.714 0.687-1.03 0.431-0.506 0.951-0.928 1.54-1.24 0.781-0.422 1.66-0.635 2.55-0.617 0.52 0.0067 1.04 0.0892 1.53 0.245 0.538 0.18 1.05 0.43 1.52 0.745 0.518 0.347 1.08 0.633 1.66 0.853 0.317 0.0996 0.649 0.141 0.981 0.122 0.334-0.029 0.664-0.0981 0.981-0.206 0.642-0.259 1.32-0.424 2.01-0.49 0.724-0.0276 1.44 0.127 2.09 0.451 0.689 0.348 1.27 0.877 1.68 1.53 0.409 0.654 0.631 1.41 0.642 2.18v0.098h0.098c1.38-0.11 2.77-0.0222 4.12 0.26 1.44 0.251 2.8 0.829 3.98 1.69 0.379 0.305 0.71 0.665 0.982 1.07 0.269 0.4 0.464 0.844 0.574 1.31 0.111 0.461 0.133 0.938 0.064 1.41-0.073 0.456-0.253 0.89-0.525 1.26l-0.089 0.113 0.143 0.034c0.803 0.181 1.56 0.528 2.22 1.02 0.662 0.49 1.21 1.11 1.62 1.83s0.662 1.51 0.745 2.33c0.084 0.819-4e-3 1.65-0.258 2.43-0.23 0.71-0.603 1.35-0.859 2.03-0.296 0.652-0.339 1.39-0.122 2.07 0.271 0.598 0.676 1.13 1.18 1.54 0.444 0.382 0.848 0.807 1.21 1.27 0.286 0.408 0.478 0.875 0.563 1.37s0.06 0.995-0.072 1.48c-0.21 0.724-0.667 1.35-1.29 1.78-0.387 0.27-0.824 0.46-1.29 0.559-0.299 0.034-0.456 0.034-0.456 0.044z" fill="#262626"/>
<path d="m249 106c5e-3 -0.039 5e-3 -0.078 0-0.117 0-0.088 0-0.201 0.04-0.348 0.039-0.319 0.088-0.765 0.152-1.34 0.063-0.573 0.162-1.29 0.338-2.1 0.183-0.918 0.474-1.81 0.869-2.66 0.474-1.03 1.16-1.95 2.03-2.69 0.484-0.4 1.03-0.721 1.61-0.951 0.636-0.211 1.28-0.385 1.94-0.519 0.7-0.152 1.37-0.435 1.96-0.833 0.6-0.447 1.14-0.967 1.61-1.55 0.49-0.568 0.981-1.18 1.51-1.72 0.542-0.559 1.18-1.01 1.89-1.34 1.44-0.604 3-0.901 4.56-0.872 1.44-0.0217 2.89 0.0635 4.32 0.255 2.42 0.306 4.78 1.01 6.97 2.08 1.48 0.733 2.83 1.7 4 2.85 0.207 0.211 0.393 0.387 0.545 0.554l0.368 0.436 0.226 0.265c0.054 0.0588 0.083 0.0882 0.083 0.0833-0.018-0.0356-0.041-0.0685-0.068-0.098l-0.211-0.274c-0.103-0.122-0.221-0.274-0.359-0.446-0.137-0.172-0.328-0.358-0.53-0.573-1.16-1.19-2.51-2.18-4-2.94-2.2-1.1-4.58-1.82-7.03-2.14-1.44-0.199-2.89-0.289-4.34-0.27-1.57-0.022-3.13 0.28-4.58 0.887-0.733 0.338-1.4 0.806-1.96 1.38-0.554 0.559-1.02 1.17-1.51 1.73-0.459 0.569-0.988 1.08-1.58 1.51-0.58 0.392-1.23 0.668-1.91 0.813-0.664 0.138-1.32 0.316-1.96 0.534-0.599 0.236-1.16 0.567-1.65 0.98-0.872 0.758-1.57 1.69-2.05 2.74-0.39 0.863-0.675 1.77-0.849 2.7-0.139 0.698-0.242 1.4-0.309 2.11-0.059 0.578-0.093 1.03-0.113 1.34 0 0.142 0 0.259-0.024 0.347z" fill="#262626"/>
<path d="m276 131c-0.027-0.418-0.166-0.821-0.404-1.17-0.237-0.346-0.564-0.62-0.945-0.794-0.387-0.163-0.815-0.204-1.23-0.116-0.41 0.088-0.784 0.299-1.07 0.606-0.255 0.306-0.403 0.686-0.424 1.08-0.02 0.398 0.089 0.791 0.311 1.12 0.211 0.341 0.519 0.612 0.884 0.779 0.474 0.205 0.999 0.261 1.51 0.161 0.422-0.058 0.808-0.269 1.08-0.592 0.22-0.317 0.32-0.7 0.285-1.08z" fill="#5b342f"/>
<path d="m275 128c-0.231 0-0.108 1.55-1.34 2.77-1.24 1.22-2.91 1.18-2.9 1.4 0 0.098 0.392 0.27 1.09 0.23 0.91-0.066 1.77-0.447 2.43-1.08 0.631-0.607 1-1.44 1.03-2.31 0.01-0.657-0.196-1.02-0.309-1z" fill="#262626"/>
<path d="m302 154-12.1-4.57s-9.32 5.51-16.5 4.37c-5.55-0.887-6.01-3.74-6.01-3.74l-6.68 1.08s-10.1 8.42-12.2 16.9c-1.25 5.04-1.55 11.6-1.55 17.4 0 2.32 2.94 11.5 2.94 11.5l1.15 13.3-5.59 22.1h58.3v-61.2z" fill="#de5836"/>
<path d="m237 191-8.47-21.2 24.3-16.9 8.23-1.26-2.14 30z" fill="#de5836"/>
<path d="m250 195c-0.06-0.093-0.111-0.192-0.152-0.294-0.089-0.201-0.241-0.49-0.388-0.868-0.442-1.08-0.804-2.19-1.08-3.32-0.883-3.75-1.14-7.62-0.746-11.5 0.4-3.82 1.1-7.6 2.11-11.3 0.373-1.42 0.687-2.57 0.912-3.36l0.27-0.911c0.026-0.108 0.062-0.213 0.108-0.314-6e-3 0.112-0.025 0.222-0.059 0.329-0.059 0.235-0.132 0.544-0.221 0.921-0.206 0.828-0.49 1.96-0.834 3.38-0.951 3.7-1.63 7.47-2.03 11.3-0.387 3.81-0.162 7.66 0.667 11.4 0.257 1.13 0.585 2.24 0.982 3.32 0.132 0.387 0.265 0.681 0.338 0.882 0.056 0.107 0.099 0.22 0.128 0.338z" fill="#262626"/>
<g opacity=".3">
<path d="m247 183 0.529-0.382c-0.032-6.57 1.03-13.1 3.14-19.3-3.93 5.84-5.6 13.2-3.67 19.7z" fill="#262626"/>
</g>
<path d="m264 180s8.34 30.9 13 36.6c4.69 5.67 7.21 7.35 14.4 7.93s9.86-7.73 11.5-11c1.6-3.24 1.3-8.1 1.3-8.1l-9.81-5.47-7.75 12.7-20-33.3z" fill="#262626" opacity=".3"/>
<path d="m265 184s8.52 19.8 14.6 31.1c5.17 9.61 15.7 8.54 19.1 3.2 3.37-5.35 8.95-21.3 8.95-21.3l-17.8-3.12-1.96 5.63-13.5-17.2z" fill="#824e44"/>
<path d="m279 181-1.31-5.92s-0.599-1.64-1.58-0.191c-0.976 1.45-0.52 4.17-0.52 4.17s-1.84-14.1-3.46-15.6c-0.593-0.564-1.4 0.21-1.4 0.21s-0.191-2.75-1.06-2.74c-0.864 0.015-1.68 2.07-1.68 2.07-0.32-0.163-0.688-0.209-1.04-0.129-0.351 0.08-0.662 0.28-0.881 0.565-0.755 0.916-0.76 8.57-0.76 8.57s-0.721-6.31-1.85-6.7c-1.82-0.637-1.82 1.76-1.82 1.76l0.53 8.21s0.981 5.6 2.23 9.12 1.96 3.56 1.96 3.56l8.12-0.216s1.84-1.67 3.28-2.97c0.52-0.463 0.908-1.06 1.12-1.72 0.215-0.661 0.251-1.37 0.103-2.05z" fill="#824e44"/>
<path d="m293 208c-0.055-0.078-0.101-0.162-0.138-0.25-0.093-0.186-0.206-0.426-0.348-0.72l-0.633-1.1c-0.255-0.416-0.574-0.887-0.908-1.41-1.41-2.06-3.53-4.77-5.95-7.7s-4.66-5.57-6.22-7.51c-0.785-0.98-1.4-1.77-1.82-2.33l-0.461-0.657c-0.06-0.073-0.109-0.153-0.147-0.24 0.068 0.065 0.131 0.135 0.186 0.211l0.491 0.627c0.437 0.539 1.08 1.32 1.88 2.27 1.6 1.91 3.85 4.52 6.28 7.46s4.52 5.68 5.89 7.76c0.329 0.534 0.638 1.01 0.888 1.44 0.25 0.431 0.442 0.808 0.594 1.12 0.152 0.313 0.225 0.549 0.309 0.749 0.048 0.084 0.086 0.173 0.113 0.265z" fill="#5b342f"/>
<path d="m300 154s9.72 1.98 12.1 13c2.25 10.1 1.55 31.6 1.55 31.6l-26.4-4.63 6.44-36.7z" fill="#de5836"/>
<path d="m291 171c4e-3 0.039 4e-3 0.078 0 0.117 0 0.093-0.03 0.201-0.044 0.338-0.05 0.319-0.113 0.75-0.197 1.3-0.181 1.15-0.441 2.78-0.76 4.78-0.673 4.06-1.6 9.64-2.62 15.9l-0.103-0.147 17.3 3.1 4.97 0.956 1.35 0.265 0.348 0.073 0.118 0.034c-0.041 8e-3 -0.082 8e-3 -0.123 0l-0.353-0.054-1.36-0.215-4.99-0.848-17.3-3.05-0.123-0.024v-0.123c1.06-6.21 2.01-11.8 2.7-15.8 0.353-2 0.637-3.62 0.843-4.77 0.099-0.544 0.182-0.98 0.241-1.29 0-0.133 0.049-0.245 0.069-0.334 0.01-0.04 0.026-0.078 0.049-0.112z" fill="#262626"/>
<path d="m293 168c0.049-0.217 0.116-0.428 0.201-0.633 0.147-0.396 0.368-0.98 0.667-1.67 0.732-1.86 1.81-3.56 3.18-5.02 0.783-0.781 1.7-1.42 2.7-1.88 0.815-0.379 1.68-0.654 2.56-0.818 0.592-0.114 1.19-0.176 1.8-0.186 0.221-0.016 0.443-4e-3 0.662 0.034-0.813 0.067-1.62 0.176-2.42 0.328-1.93 0.396-3.71 1.34-5.12 2.7-1.34 1.44-2.42 3.09-3.19 4.9l-0.741 1.64c-0.075 0.211-0.174 0.413-0.294 0.603z" fill="#262626"/>
<path d="m268 173c-0.087-0.495-0.132-0.997-0.133-1.5-0.049-0.927-0.103-2.2-0.108-3.63-0.015-1.21 0.034-2.42 0.148-3.63 0.02-0.499 0.103-0.992 0.245-1.47 3e-3 0.5-0.02 1-0.069 1.5-0.049 0.921-0.073 2.2-0.069 3.62 5e-3 1.42 0 2.62 0.03 3.62 0.027 0.497 0.012 0.995-0.044 1.49z" fill="#5b342f"/>
<path d="m271 164c0.062 0.405 0.089 0.815 0.078 1.22 0 0.754 0.054 1.8 0.113 2.94 0.059 1.14 0.133 2.19 0.191 2.94 0.054 0.406 0.07 0.816 0.05 1.22-0.123-0.392-0.201-0.797-0.231-1.21-0.103-0.754-0.206-1.79-0.265-2.94-0.059-1.15-0.064-2.2-0.039-2.96-0.012-0.41 0.023-0.819 0.103-1.22z" fill="#5b342f"/>
<path d="m88.3 107c-0.653-4.36-1.74-9.13-4.62-12.5-1.94-2.33-4.25-4.33-6.84-5.9-2.91-1.76-5.49-2.34-8.61-2.67l-2.05 1.82c6.56 1.58 12.3 6.13 15.6 12 3.35 5.85 4.42 12.9 3.31 19.6-0.711 4.35-2.3 8.51-3.5 12.7-1.21 4.23-2.04 8.73-1.2 13.1 3.6-1.4 2.59 0.98 4.11-2.58 1.52-3.56 2.31-11.4 3.19-15.1 1.46-6.18 1.5-14.4 0.594-20.4z" fill="#de5836"/>
<path d="m84.8 97.5c-5.52-8.58-18.4-11.2-18.4-11.2-18.9-1.35-22.3 13.1-24.2 26.4-1.18 8.2 3.2 33.9 3.2 33.9l4.63 1.67h30.4c0-0.554 2.15-5.2 2.68-6.71 2.75-13.8 4.93-38.9 1.67-44z" fill="#969595"/>
<path d="m69 91.2-1.18-1.13-12.8 5.14c-0.889 0.0484-1.73 0.427-2.35 1.06-0.623 0.635-0.985 1.48-1.02 2.37l0.113 41.6c0 2.82 0.545 5.26 2.25 7.5l1.79 2.37c4.09 5.39 12.5 4.95 15.7-0.98 0.199-0.335 0.353-0.696 0.456-1.07 0.0787-0.307 0.141-0.617 0.186-0.931 0.383-3.34 0.402-6.24 0.402-6.24 0.231-3.67 0.304-5.18 0.304-5.14 0 0.034 7.82-0.897 9.94-10.9 1.06-4.99 0.854-11.8 0.559-18.6-0.422-9.32-6.91-15-14.4-15z" fill="#ffbf9d"/>
<g fill="#262626">
<path d="m66.7 112c-0.0141 0.338-0.16 0.658-0.406 0.89-0.247 0.233-0.574 0.36-0.913 0.355-0.166 4e-3 -0.33-0.024-0.484-0.084s-0.295-0.15-0.414-0.265c-0.119-0.116-0.214-0.253-0.278-0.405s-0.0985-0.316-0.0991-0.481c0.014-0.338 0.159-0.658 0.404-0.891s0.572-0.362 0.911-0.359c0.166-4e-3 0.331 0.025 0.486 0.086 0.155 0.06 0.296 0.151 0.415 0.266 0.119 0.116 0.214 0.254 0.279 0.406s0.0996 0.316 0.101 0.482z"/>
<path d="m79.6 113c-0.014 0.337-0.159 0.656-0.405 0.889-0.246 0.232-0.572 0.36-0.91 0.356-0.166 4e-3 -0.331-0.024-0.485-0.084-0.155-0.06-0.296-0.15-0.415-0.265-0.119-0.115-0.214-0.253-0.28-0.405-0.0654-0.152-0.0997-0.316-0.101-0.481 0.014-0.338 0.159-0.657 0.404-0.891 0.245-0.233 0.572-0.362 0.911-0.359 0.166-4e-3 0.331 0.025 0.486 0.086 0.155 0.06 0.296 0.151 0.415 0.266 0.119 0.116 0.214 0.254 0.28 0.406s0.0995 0.316 0.101 0.482z"/>
<path d="m82.1 109c-0.172 0.161-1.12-0.613-2.52-0.681-1.4-0.069-2.45 0.583-2.6 0.401-0.0736-0.078 0.108-0.377 0.569-0.676 0.625-0.389 1.36-0.575 2.09-0.534 0.727 0.034 1.42 0.299 1.99 0.755 0.412 0.352 0.545 0.666 0.461 0.735z"/>
<path d="m67.9 109c-0.186 0.142-1.05-0.73-2.45-0.936s-2.5 0.323-2.63 0.132c-0.0638-0.088 0.147-0.363 0.638-0.617 0.662-0.324 1.41-0.433 2.13-0.314 0.72 0.109 1.39 0.444 1.9 0.956 0.402 0.387 0.496 0.715 0.402 0.779z"/>
<path d="m72.8 119c0-0.078 0.873-0.186 2.29-0.294 0.358 0 0.697-0.073 0.77-0.313 0.0488-0.367-0.0163-0.74-0.186-1.07-0.288-0.879-0.594-1.8-0.918-2.76-1.27-3.92-2.17-7.16-2.01-7.21s1.32 3.1 2.59 7.03c0.304 0.98 0.595 1.91 0.873 2.78 0.202 0.443 0.242 0.942 0.113 1.41-0.0583 0.123-0.144 0.231-0.25 0.316-0.106 0.085-0.23 0.144-0.363 0.174-0.2 0.045-0.404 0.063-0.608 0.054-1.44 5e-3 -2.3-0.034-2.3-0.113z"/>
</g>
<path d="m72.9 136c-4.77-0.176-9.39-1.67-13.4-4.32 0 0 3.06 7.17 13.2 6.73z" fill="#ff9a6c"/>
<path d="m72 122c-0.248-0.348-0.582-0.626-0.968-0.809-0.386-0.182-0.813-0.263-1.24-0.235-0.309 0.012-0.613 0.086-0.893 0.219-0.28 0.132-0.53 0.319-0.736 0.551-0.197 0.223-0.321 0.501-0.356 0.797-0.035 0.296 0.0207 0.595 0.16 0.859 0.212 0.262 0.498 0.454 0.82 0.553s0.667 0.099 0.99 0c0.672-0.201 1.3-0.534 1.84-0.98 0.163-0.103 0.304-0.236 0.417-0.392 0.0525-0.075 0.0826-0.164 0.0869-0.256 0.0044-0.092-0.0172-0.183-0.0624-0.263" fill="#ff9a6c"/>
<path d="m68.6 120c0.231 0 0.157 1.51 1.4 2.65s2.87 1.05 2.87 1.27c0 0.093-0.373 0.274-1.06 0.26-0.889-0.035-1.74-0.382-2.39-0.98-0.633-0.574-1.02-1.37-1.08-2.22-0.0245-0.627 0.162-0.995 0.265-0.98z" fill="#262626"/>
<g fill="#969595">
<path d="m69.3 104c-0.191 0.352-1.55-0.035-3.2-0.089-1.65-0.053-3.03 0.187-3.19-0.181-0.0736-0.176 0.211-0.49 0.795-0.779 0.775-0.336 1.62-0.491 2.46-0.456 0.844 0.036 1.67 0.262 2.41 0.662 0.559 0.333 0.814 0.676 0.726 0.843z"/>
<path d="m81.9 103c-0.265 0.304-1.21-0.074-2.36-0.147-1.16-0.074-2.15 0.108-2.36-0.235-0.0933-0.167 0.0785-0.49 0.52-0.755 0.593-0.33 1.27-0.476 1.95-0.421 0.677 0.055 1.32 0.309 1.85 0.73 0.393 0.348 0.51 0.681 0.398 0.828z"/>
<path d="m52 116s7.15 2.22 11.2-15.4c1.38-6.03 6.98-10.9 6.98-10.9l-2.27-0.681s-14.1 3.97-14.3 4.15-3.56 7.29-3.56 7.29z"/>
</g>
<path d="m53.7 116c0.0344-0.755-0.746-2.57-1.47-2.72-1.96-0.407-5.56-0.432-5.85 4.61-0.392 6.89 6.61 5.88 6.64 5.66 0.0245-0.216 0.579-4.95 0.682-7.55z" fill="#ffbf9d"/>
<path d="m51.1 121c-0.0295 0-0.128 0.078-0.334 0.157-0.292 0.105-0.613 0.094-0.898-0.03-0.716-0.308-1.26-1.5-1.23-2.74 0.015-0.592 0.164-1.17 0.437-1.7 0.0763-0.211 0.203-0.4 0.369-0.551s0.366-0.26 0.583-0.316c0.14-0.03 0.286-0.01 0.413 0.058 0.126 0.067 0.225 0.176 0.279 0.309 0.0835 0.196 0.0295 0.334 0.0687 0.348 0.0393 0.015 0.152-0.108 0.113-0.397-0.0292-0.172-0.116-0.329-0.245-0.446-0.183-0.153-0.419-0.23-0.658-0.215-0.284 0.039-0.554 0.149-0.784 0.321-0.23 0.171-0.413 0.398-0.531 0.659-0.327 0.58-0.508 1.23-0.525 1.9-0.0344 1.39 0.604 2.73 1.58 3.08 0.182 0.064 0.376 0.086 0.568 0.065s0.377-0.085 0.54-0.187c0.221-0.118 0.27-0.27 0.245-0.304z" fill="#ff9a6c"/>
<path d="m56.8 113s0.378 0 1.03-0.21c0.917-0.278 1.76-0.765 2.45-1.42 0.483-0.449 0.913-0.952 1.28-1.5 0.412-0.636 0.762-1.31 1.05-2.01 0.589-1.64 1.08-3.31 1.47-5.01 0.442-1.69 0.971-3.36 1.58-5 0.502-1.34 1.1-2.64 1.8-3.89 0.472-0.841 1-1.65 1.58-2.42 0.206-0.274 0.383-0.49 0.491-0.612 0.0552-0.0731 0.118-0.14 0.186-0.201-0.0476 0.0783-0.1 0.154-0.157 0.225-0.103 0.147-0.27 0.348-0.491 0.627-0.558 0.785-1.07 1.6-1.53 2.45-0.674 1.25-1.26 2.55-1.75 3.89-0.564 1.51-1.08 3.2-1.57 4.99-0.399 1.7-0.902 3.38-1.51 5.03-0.289 0.712-0.649 1.39-1.07 2.03-0.378 0.554-0.822 1.06-1.32 1.51-0.717 0.662-1.58 1.14-2.53 1.4-0.326 0.09-0.663 0.136-1 0.137z" fill="#969595"/>
<path d="m46.1 142c0.108-0.797 0.159-1.6 0.152-2.41-0.0291-2.2-0.252-4.4-0.667-6.56l-0.805-4.47c-0.311-1.71-0.517-3.43-0.618-5.16-0.121-1.91 0.0191-3.83 0.417-5.7 0.226-0.984 0.554-1.94 0.981-2.86 0.442-0.943 0.99-1.83 1.63-2.65 1.31-1.59 2.76-3.06 4.34-4.37 1.51-1.3 2.94-2.59 4.25-3.92 2.29-2.32 4.37-4.84 6.2-7.54 1.24-1.81 2.36-3.7 3.36-5.66 0.353-0.691 0.618-1.23 0.785-1.61 0.0785-0.18 0.142-0.322 0.191-0.426 0.0274-0.0454 0.0473-0.0951 0.0589-0.147l-0.0786 0.142-0.206 0.412c-0.182 0.368-0.451 0.906-0.814 1.59-2.55 4.83-5.8 9.26-9.65 13.1-1.29 1.31-2.73 2.58-4.24 3.89-1.6 1.33-3.06 2.8-4.37 4.41-0.651 0.83-1.21 1.73-1.65 2.68-0.426 0.931-0.755 1.9-0.981 2.9-0.398 1.89-0.537 3.82-0.412 5.75 0.106 1.74 0.32 3.47 0.638 5.18 0.299 1.61 0.574 3.1 0.829 4.47 0.428 2.15 0.671 4.33 0.726 6.52 0 0.774 0 1.38-0.0442 1.78 0 0.196 0 0.353-0.0294 0.49-0.0295 0.138 0.0098 0.113 0.0098 0.113z" fill="#455a64"/>
<path d="m43.9 142c0.108-0.798 0.159-1.6 0.152-2.41-0.0282-2.2-0.252-4.39-0.667-6.55-0.245-1.37-0.491-2.86-0.8-4.47-0.314-1.71-0.52-3.43-0.618-5.16-0.124-1.91 0.0167-3.83 0.417-5.7 0.225-0.986 0.554-1.94 0.981-2.86 0.444-0.942 0.992-1.83 1.63-2.65 1.31-1.59 2.76-3.05 4.35-4.37 1.51-1.31 2.94-2.59 4.24-3.92 2.29-2.32 4.37-4.84 6.21-7.54 1.23-1.81 2.35-3.69 3.34-5.64 0.353-0.691 0.613-1.23 0.78-1.61 0.0834-0.181 0.147-0.318 0.191-0.426 0.0244-0.0476 0.0457-0.0967 0.0638-0.147-0.0297 0.0453-0.056 0.0928-0.0785 0.142-0.054 0.098-0.123 0.24-0.211 0.416-0.177 0.368-0.451 0.902-0.814 1.59-2.54 4.82-5.78 9.24-9.62 13.1-1.29 1.31-2.73 2.58-4.24 3.89-1.6 1.32-3.06 2.8-4.37 4.41-0.652 0.828-1.21 1.73-1.66 2.68-0.428 0.93-0.757 1.9-0.981 2.9-0.401 1.89-0.539 3.82-0.412 5.75 0.106 1.74 0.32 3.47 0.638 5.18 0.294 1.61 0.574 3.1 0.824 4.47 0.426 2.15 0.671 4.33 0.731 6.52 0 0.775 0 1.38-0.0442 1.78l-0.0294 0.466c-0.0058 0.045-0.0058 0.091 0 0.137z" fill="#455a64"/>
<path d="m33.9 232s-0.643-5.74 3.03-15.3c3.01-7.84 6.54-12.2 6.54-12.2l47.6-3.13 3.67 30.6z" fill="#262626"/>
<path d="m90.5 184c0.697-10.6 0-26.6 0-26.6l-7.85-13.2-10.3-1.62s-0.0294 7.23-5.44 8.43c-9.26 2.04-15.3-9.08-15.3-9.08-0.873 0-14 2.76-18.2 6.73-4.29 4.08-11.4 14.9-13.4 18 0 0-13.9 20.2-15.9 25.8-0.553 1.41-0.779 2.93-0.662 4.44 0.117 1.51 0.575 2.98 1.34 4.29 0.422 1.25 13.2 19.6 23.2 27l0.775-1.47 5.16-8.82-13.4-21.9 15.5-16.3 3.05-2.86 0.873 3.85 3.76 18.1s-7.49 14.9-8.54 22.7c0 0 36.8 12.7 59.5 6.41-0.0098 0-4.87-33.3-4.17-43.8z" fill="#ffd230"/>
<path d="m51.8 214s-6.23-1.68-6.87-1.33c-0.638 0.353-5.28 2.8-5.28 2.8-0.677 0.84-1.41 1.63-2.19 2.38 0 0-1.6 1.51-2.7 1.56-0.59 0.044-1.18-0.019-1.75-0.186l-4.31 7.57s2.56 2.45 3.93 2.41c1.37-0.044 8.83-3.18 8.83-3.18l1.82-0.392s6.81 0.98 7.36-1.06l0.103-0.583-6.69-1.31-2.55 0.147 4.51-1.16s6.38 0.309 6.98 0.206 1.36-0.95 1.17-1.47l-1.32-0.308s1.55-0.843 1.59-1.76l-5.89-1.59s3.78-1.42 3.25-2.74z" fill="#ffbf9d"/>
<path d="m53.5 220c-0.186-0.022-0.369-0.066-0.545-0.132-0.343-0.103-0.839-0.24-1.47-0.402-1.24-0.319-2.94-0.725-4.87-1.15-0.228-0.058-0.459-0.103-0.692-0.137-0.219-0.016-0.439 1e-3 -0.653 0.049-0.427 0.118-0.859 0.265-1.26 0.397-0.795 0.27-1.51 0.544-2.09 0.794-0.584 0.25-1.05 0.49-1.35 0.661-0.155 0.103-0.319 0.192-0.491 0.265 0.125-0.14 0.271-0.261 0.432-0.358 0.426-0.278 0.87-0.527 1.33-0.745 0.682-0.321 1.38-0.607 2.09-0.857 0.407-0.147 0.814-0.294 1.28-0.421 0.242-0.059 0.492-0.079 0.741-0.059 0.26 0 0.491 0.093 0.731 0.137 1.91 0.426 3.63 0.862 4.85 1.24 0.618 0.186 1.11 0.353 1.44 0.49 0.185 0.05 0.362 0.128 0.525 0.23z" fill="#ff9a6c"/>
<path d="m48.7 217c-0.0245 0.039-0.491-0.22-1.26-0.46-1.02-0.321-2.1-0.406-3.15-0.25s-2.06 0.55-2.95 1.15c-0.682 0.456-1.04 0.833-1.07 0.799 0.255-0.391 0.59-0.725 0.981-0.98 0.884-0.668 1.92-1.1 3.02-1.26 1.1-0.162 2.22-0.046 3.26 0.338 0.429 0.143 0.826 0.369 1.17 0.666z" fill="#ff9a6c"/>
<path d="m123 170-24.3-18.1-9.07-5.96-6.7-1.36 2.85 28.3h6.3l27.1 11.8 33.2 2.81 0.486-10.3z" fill="#ffd230"/>
<path d="m91 196c-0.0232-0.139-0.0363-0.28-0.0392-0.421 0-0.299-0.0295-0.696-0.0491-1.2-0.0392-1.05-0.0834-2.56-0.118-4.41-0.0344-1.85-0.0589-4.1-0.0638-6.57-0.0049-2.47 0-5.19 0-8.05 0-5.71-1.08-10.8-1.94-14.4-0.427-1.82-0.8-3.28-1.05-4.3-0.123-0.49-0.216-0.882-0.29-1.17-0.0372-0.134-0.0634-0.272-0.0785-0.411 0.0539 0.129 0.0982 0.261 0.132 0.397 0.0785 0.289 0.191 0.671 0.329 1.16 0.28 1.01 0.682 2.45 1.13 4.29 1.25 4.72 1.93 9.58 2.02 14.5 0.0442 2.86 0 5.58 0 8.05v6.57c0 1.87 0 3.36 0.0344 4.41v1.21c0.0061 0.14-4e-4 0.281-0.0197 0.421z" fill="#262626"/>
<g opacity=".3">
<path d="m90.8 173c0.978-3.67 1.01-7.54 0.0977-11.2s-2.75-7.09-5.33-9.88c2.76 6.6 4.53 13.6 5.28 20.7" fill="#262626"/>
</g>
<path d="m70.8 86.5c-15.2 1.36-15.8 19.9-17.8 34.6-2.89 20.9 12.4 25.4 12.4 25.4l-19-3.57s-10.4-4.21-10.3-15.8c0.0736-11.6 1.89-25.7 14-36.4 10.5-9.28 19.8-4.87 20.8-4.24z" fill="#de5836"/>
<path d="m85.6 142c-1.15-1.04-0.702-1.44-3.99-1.73-3.71-0.343-7.85 2.03-11.6 2.52s-7.64 0-10.7-2.07c-3.64-2.42-5.6-6.6-7.42-10.6l-8.93 7.35c-0.864 0.695-1.56 1.58-2.02 2.59-0.466 1.01-0.692 2.11-0.662 3.21-0.0145 0.38 0.0594 0.757 0.216 1.1 0.52 0.784 4.35-1.07 5.12-0.529 4.09 2.86 5.83 7.39 9.58 10.7 4.38 3.85 8.43 6.9 11.5 6.8s8.78-3.37 10.8-7.15c1.89-3.49 3.54-6.04 5.02-8.71 0.78-1.41 3.5 0.569 3.83-1.1 0.0841-0.437 0.0547-0.888-0.0853-1.31-0.14-0.422-0.386-0.801-0.714-1.1z" fill="#de5836"/>
<g fill="#262626">
<path d="m36 164c0.0474 0.112 0.0835 0.229 0.108 0.348l0.27 1.01c0.226 0.907 0.54 2.17 0.922 3.72 0.76 3.15 1.79 7.51 2.87 12.3 1.08 4.82 2.02 9.2 2.64 12.4 0.309 1.59 0.54 2.88 0.682 3.78 0.0621 0.428 0.111 0.771 0.147 1.03 0.0255 0.119 0.0371 0.241 0.0343 0.363-0.0388-0.115-0.0667-0.233-0.0834-0.353-0.049-0.26-0.113-0.598-0.196-1.02-0.186-0.917-0.442-2.19-0.761-3.76-0.667-3.16-1.63-7.54-2.71-12.4-1.08-4.82-2.08-9.16-2.8-12.3-0.348-1.56-0.638-2.83-0.844-3.74-0.0883-0.422-0.162-0.76-0.221-1.02-0.0299-0.118-0.0496-0.237-0.0589-0.358z"/>
<path d="m85.6 144c-0.0298 0.025-0.0628 0.047-0.0981 0.064l-0.304 0.176c-0.389 0.232-0.79 0.443-1.2 0.632-1.51 0.702-3.1 1.23-4.74 1.58-2.42 0.52-4.88 0.8-7.36 0.838-2.79 0.083-5.85-0.059-9.06-0.27-1.6-0.103-3.17-0.259-4.68-0.49-1.5-0.23-2.94-0.544-4.28-0.887-2.4-0.617-4.72-1.47-6.95-2.54-1.5-0.722-2.94-1.56-4.31-2.52-0.491-0.324-0.839-0.623-1.09-0.804l-0.275-0.22c-0.0638-0.049-0.0932-0.079-0.0883-0.084l0.103 0.064 0.294 0.196c0.255 0.171 0.613 0.456 1.11 0.764 1.38 0.924 2.83 1.74 4.33 2.45 2.23 1.04 4.55 1.87 6.93 2.48 1.34 0.333 2.77 0.627 4.26 0.862 1.49 0.235 3.05 0.382 4.65 0.49 3.2 0.211 6.26 0.358 9.03 0.289 2.46-0.03 4.92-0.296 7.33-0.794 1.62-0.327 3.21-0.829 4.73-1.49 0.55-0.216 0.937-0.456 1.22-0.583l0.314-0.152c0.0365-0.021 0.0763-0.036 0.118-0.044z"/>
<path d="m56.4 146-0.0933-0.058-0.27-0.196-1.03-0.765c-0.442-0.338-0.981-0.779-1.58-1.27-0.304-0.25-0.613-0.539-0.952-0.833-0.339-0.294-0.682-0.612-1.04-0.98-1.7-1.6-3.18-3.41-4.42-5.39-1.51-2.45-2.37-5.24-2.48-8.12-0.0309-2.86 0.361-5.71 1.16-8.46 0.672-2.54 1.4-4.78 2-6.68 0.594-1.9 1.05-3.4 1.39-4.48 0.152-0.514 0.275-0.926 0.368-1.22 0.0392-0.127 0.0736-0.23 0.103-0.313 0.0087-0.039 0.0236-0.075 0.0442-0.108v0.112l-0.0785 0.324-0.324 1.24c-0.294 1.07-0.741 2.61-1.32 4.51-0.574 1.9-1.29 4.15-1.96 6.68-0.777 2.73-1.16 5.55-1.13 8.38 0.12 2.84 0.965 5.6 2.45 8.02 1.23 1.97 2.69 3.78 4.36 5.39 0.348 0.352 0.692 0.676 1.03 0.98 0.334 0.303 0.633 0.592 0.932 0.847 0.604 0.49 1.11 0.956 1.55 1.3l0.981 0.803 0.255 0.216c0.0196 0.044 0.0491 0.068 0.0442 0.073z"/>
<path d="m70.8 86.5c0 0.0539-0.79 0.0931-2.01 0.446-0.714 0.21-1.41 0.477-2.08 0.799-0.815 0.407-1.6 0.87-2.35 1.39-1.35 0.962-2.62 2.04-3.78 3.23-0.893 0.911-1.42 1.5-1.47 1.47 0.0902-0.164 0.199-0.317 0.324-0.456 0.221-0.279 0.559-0.676 0.981-1.15 1.13-1.24 2.39-2.35 3.76-3.32 0.762-0.525 1.56-0.988 2.4-1.39 0.684-0.32 1.4-0.574 2.13-0.76 0.28-0.0785 0.566-0.139 0.854-0.181 0.215-0.0439 0.433-0.0701 0.652-0.0784 0.197-0.0239 0.396-0.0255 0.594-0.0049z"/>
</g>
<g opacity=".3">
<path d="m51.4 102c0.125-0.461 0.221-0.929 0.29-1.4 0.0157-0.182-0.0346-0.364-0.142-0.512-0.107-0.149-0.264-0.254-0.442-0.296-0.178-0.043-0.366-0.021-0.529 0.063-0.163 0.084-0.29 0.223-0.359 0.393-1.01 2.66-2.01 5.32-3.01 7.98-1.96 5.26-4 10.6-4.1 16.3-0.103 5.62 1.69 11.9 6.45 14.9l-1.38-2.45c-3.59-4.9-3.68-11.6-2.32-17.5 1.37-5.92 4.03-11.5 5.55-17.4z" fill="#262626"/>
</g>
<path d="m85.9 145c-0.0245 0 0.118-0.225 0.226-0.651 0.134-0.607 0.0779-1.24-0.162-1.81-0.361-0.847-1.03-1.52-1.88-1.89-1.04-0.453-2.18-0.622-3.3-0.49-1.14 0.118-2.26 0.312-3.37 0.578-1.03 0.236-1.96 0.49-2.71 0.721-0.751 0.23-1.37 0.436-1.8 0.578-0.216 0.085-0.437 0.153-0.662 0.206 0.198-0.123 0.408-0.223 0.628-0.299 0.417-0.172 1.02-0.402 1.78-0.657 0.761-0.255 1.68-0.529 2.71-0.779 1.12-0.284 2.26-0.486 3.41-0.603 1.17-0.133 2.36 0.051 3.43 0.534 0.895 0.399 1.6 1.13 1.96 2.04 0.234 0.608 0.263 1.28 0.0834 1.9-0.0492 0.172-0.12 0.336-0.211 0.49-0.0371 0.051-0.0817 0.095-0.132 0.132z" fill="#262626"/>
<g opacity=".3">
<path d="m80.8 146c-5.85 2.6-12.3 3.54-18.6 2.73-6.31-0.819-11.6-2.65-16.5-6.63 0 0 7.9 4.56 20.2 4.66 10.2 0.088 15-0.755 15-0.755z" fill="#262626"/>
</g>
</g>
</g>
<defs>
<clipPath id="a">
<rect width="329" height="245" fill="#fff"/>
</clipPath>
</defs>
</svg>
