<?xml version="1.0" encoding="UTF-8" standalone="no"?>
<svg
   width="492"
   height="310"
   viewBox="0 0 492 310"
   fill="none"
   version="1.1"
   id="svg4"
   sodipodi:docname="mission-bubble.svg"
   inkscape:version="1.1.2 (0a00cf5339, 2022-02-04)"
   xmlns:inkscape="http://www.inkscape.org/namespaces/inkscape"
   xmlns:sodipodi="http://sodipodi.sourceforge.net/DTD/sodipodi-0.dtd"
   xmlns="http://www.w3.org/2000/svg"
   xmlns:svg="http://www.w3.org/2000/svg">
  <defs
     id="defs8" />
  <sodipodi:namedview
     id="namedview6"
     pagecolor="#ffffff"
     bordercolor="#666666"
     borderopacity="1.0"
     inkscape:pageshadow="2"
     inkscape:pageopacity="0.0"
     inkscape:pagecheckerboard="0"
     showgrid="false"
     inkscape:zoom="1.1596774"
     inkscape:cx="338.45619"
     inkscape:cy="225.06259"
     inkscape:window-width="1920"
     inkscape:window-height="1043"
     inkscape:window-x="0"
     inkscape:window-y="0"
     inkscape:window-maximized="1"
     inkscape:current-layer="svg4" />
  <path
     d="M205.521 92.4508C252.755 86.5584 314.724 48.2594 339.804 29.8464C360.791 10.9363 412.302 -18.2983 450.446 16.0439C498.127 58.9718 493.515 151.252 488.295 194.229C483.075 237.206 405.103 302.863 167.575 309.316C-69.9535 315.769 6.72905 123.308 37.5761 99.2931C104.63 47.0912 146.479 99.8162 205.521 92.4508Z"
     fill="#FFEFF2"
     id="path2" />
  <g
     style="fill:none"
     id="g834"
     transform="translate(7.416678,246.83821)">
    <path
       d="M 47.8764,3.50942 C 46.2649,13.6938 37.398,15.3319 28.7644,14.1361 21.9738,13.1928 14.5307,11.9205 8.23528,15.6682 2.31067,19.196 -0.212174,26.1807 0.42896,32.8265 1.15671,40.3816 5.85475,46.5791 10.6336,52.081 13.4935,55.3727 18.3343,50.5292 15.4931,47.2569 10.8163,41.8747 5.32483,34.8068 7.55793,27.0646 c 2.36669,-8.2033 11.39457,-7.483 18.05847,-6.513 6.077,0.8829 12.4809,1.8069 18.2787,-0.9826 5.648,-2.7153 9.5529,-8.212 10.5283,-14.37588 0.681,-4.298368 -5.8576,-6.033638 -6.5508,-1.67719 z"
       fill="#de5836"
       id="path825" />
  </g>
  <g
     style="fill:none"
     id="g845"
     transform="translate(417.02458,31.627008)">
    <path
       d="M 7.38155,60.9889 C 14.2129,56.2186 21.6768,50.7988 24.0732,42.4138 c 2.7733,-1.6164 5.2625,-3.7833 7.2909,-6.14 2.7868,-3.2332 5.7739,-7.3235 7.898,-11.699 2.3711,-0.1321 4.7411,-0.5671 6.9343,-1.2015 C 56.1283,20.5088 64.4787,14.1182 70.3141,5.66832 72.4585,2.55053 67.3621,-0.360304 65.2336,2.72988 61.0398,8.81 55.1766,13.6608 48.3191,16.4549 c -2.0066,0.821 -4.3541,1.6133 -6.7606,2.0615 0.4624,-1.8071 0.7139,-3.6177 0.6925,-5.4019 C 42.1684,6.67365 36.943,-0.375747 29.8898,0.630868 22.2506,1.71451 19.2493,10.9516 22.8461,17.1474 c 2.2926,3.9288 5.8843,6.0629 9.9056,6.9519 -1.0138,1.7149 -2.0899,3.2965 -2.9927,4.6417 -1.3922,2.0563 -3.0946,4.199 -5.0712,6.0152 -0.5946,-4.757 -3.0815,-9.137 -7.8425,-11.0945 -5.5992,-2.2995 -13.18438,-0.6537 -15.5262,5.4468 -2.64779,6.8992 2.67143,14.2367 9.4458,15.7847 1.9129,0.434 3.8241,0.4886 5.688,0.2425 -2.9022,4.4941 -7.78664,7.8227 -12.04373,10.7933 -3.07221,2.1431 -0.13609,7.2294 2.97549,5.0591 z M 29.5015,16.1241 c -2.3117,-2.1338 -3.6016,-6.0646 -0.9205,-8.57289 2.9087,-2.71595 6.3776,0.10435 7.4136,3.14989 0.8531,2.5246 0.4154,5.3317 -0.6061,8.0753 -2.1769,-0.3 -4.2076,-1.0991 -5.887,-2.6523 z M 13.8354,39.3974 C 10.5639,39.254 7.29266,37.3207 6.61807,33.895 6.08976,31.2267 7.61662,29.1877 10.2297,28.6275 c 6.2908,-1.339 9.1355,4.6251 8.641,9.9073 -1.5767,0.6091 -3.2651,0.9382 -5.0353,0.8626 z"
       fill="#de5836"
       id="path836" />
  </g>
</svg>
