<?xml version="1.0" encoding="UTF-8"?>
<svg width="372" height="264" fill="none" version="1.1" viewBox="0 0 372 264" xmlns="http://www.w3.org/2000/svg">
<g transform="translate(-50.5)">
<g transform="matrix(.999 0 0 .999 96.7 28)" fill="none">
<path d="m3.5 80.8c-13.5 69.5 23 122 133 151 85 0 120-56 119-131-1-75-70.5-98.5-125-101-54.5-2.5-113 11-127 80.5z" fill="#8c0846"/>
</g>
<g transform="matrix(1.02 0 0 1.02 41.3 6.93)" clip-path="url(#a)">
<path d="m225 209c7.83-0.242 4.14-11.7 3.95-24.2-0.12-7.83-5.32-15.5-11-20.9-2.88-2.55-6.28-4.44-9.97-5.56-9.76-3.14-20.2-3.8-30.2-1.94 0 0-2.33 54.2 47.3 52.6z" fill="#455a64"/>
<path d="m247 74.6c-0.221 0.363-2.68 5.04-2.68 5.04l2.02-7.88c0.635-2.49-0.907-2.23-1.35-1.34-0.444 0.887-3.26 8.4-3.26 8.4 2.61-9.79 1.79-10.6 1.01-10.8-0.786-0.161-3.02 8.8-3.02 8.8-0.595-1.02-1.4-1.9-2.36-2.59-2.37-1.62-6.31 0-6.5 1.12-0.192 1.12 1.22 1.42 1.22 1.42 0.554-0.42 1.22-0.668 1.91-0.714s1.39 0.112 1.99 0.456c0.605 0.343 1.1 0.856 1.41 1.47 0.317 0.619 0.445 1.32 0.369 2.01-0.048 0.513-0.273 0.993-0.637 1.36-0.363 0.365-0.842 0.592-1.36 0.642s-1.03-0.08-1.45-0.368c-0.428-0.288-0.741-0.716-0.888-1.21-1.01-4.41-2.49-2.97-2.49-2.97l1.52 9.73-1.61 4.9-8.74 23.8-16.8-17.5s-9 19.9-9.21 20.6c-0.142 0.443 8.44 9.37 14.1 15.2 1.99 2.05 4.5 3.52 7.25 4.27 2.76 0.746 5.66 0.737 8.42-0.027 2.75-0.763 5.25-2.25 7.23-4.31 1.98-2.06 3.37-4.62 4.02-7.4l6.65-34.3 3.11-11.2 1.39-5.62c0.322-1.39-0.665-1.83-1.25-0.877z" fill="#ffbe9d"/>
<path d="m177 322s-6.35-5.67-17.8-6.14v-101h-4.26v101c-11 0.796-17.5 6.05-17.5 6.05h17.5v0.07h4.26v-0.07z" fill="#262626"/>
<path d="m150 109c-4.68-0.423-9.43-0.796-14 0.131-4.62 0.927-9.12 3.33-11.6 7.34s-2.55 9.07-2.55 13.8v59.8h53.4z" fill="#455a64"/>
<path d="m122 187c-0.242 11.8 0.856 21.4 9.56 26 6.51 3.48 14.4 3.56 21.9 3.55l32.5-0.051c3.28 0 6.81-0.07 9.49-1.85 1.41-1.01 2.5-2.4 3.15-4 0.651-1.6 0.834-3.36 0.526-5.07-0.504-3.36-2.51-6.38-4.94-8.9-9.37-9.76-24.2-12.6-38-15" fill="#455a64"/>
<path d="m162 53.9c0.118 0.374 0.124 0.774 0.018 1.15s-0.32 0.715-0.615 0.973c-0.295 0.258-0.659 0.424-1.05 0.478s-0.783-0.0059-1.14-0.173c-1.32-0.645-1.5-2.45-1.26-3.9s0.705-3.02 0.08-4.33c-0.611-0.942-1.38-1.77-2.28-2.45-0.698-0.692-1.23-1.54-1.54-2.47s-0.417-1.92-0.289-2.9c0.156-0.971 0.576-1.88 1.21-2.63s1.47-1.31 2.4-1.61c1.92-0.564 4.3 0 5.72-1.41 1.01-1.01 1.07-2.68 1.85-3.89 1.23-1.89 3.86-2.22 6.1-1.95 2.24 0.272 4.52 1.01 6.69 0.403 1.81-0.484 3.3-1.77 5.04-2.58 1.86-0.875 3.94-1.15 5.96-0.78 2.02 0.367 3.88 1.36 5.31 2.83s2.37 3.36 2.68 5.39c0.308 2.03-0.025 4.11-0.954 5.94-0.665 1.3-2.02 5.04-6.17 5.04" fill="#9e9e9e"/>
<path d="m161 38.3 0.061 3.02 0.604 44.9c0.071 5.21 4.61 9.3 10.2 9.19 5.63-0.121 10.2-4.48 10.2-9.76 0-5.52 0.131-11.3 0.131-11.3s7.12-1.19 8.6-10.5c0.736-4.62 0.504-12.2 0.111-18.4-0.081-1.32-0.429-2.61-1.02-3.8-0.593-1.18-1.42-2.23-2.43-3.09-1.01-0.855-2.18-1.5-3.45-1.89s-2.6-0.519-3.91-0.38z" fill="#ffbe9d"/>
<g fill="#262626">
<path d="m189 50.7c3e-3 0.31-0.116 0.609-0.33 0.833-0.215 0.224-0.509 0.355-0.819 0.366-0.151 0.0138-0.304-0.0032-0.449-0.0499-0.145-0.0468-0.279-0.122-0.393-0.222-0.115-0.0998-0.209-0.222-0.275-0.359-0.067-0.137-0.105-0.286-0.112-0.438-6e-3 -0.312 0.112-0.614 0.326-0.84 0.215-0.226 0.511-0.359 0.822-0.37 0.306-0.0193 0.607 0.0833 0.838 0.285 0.23 0.202 0.371 0.487 0.392 0.793z"/>
<path d="m190 49.4c-0.141 0.151-1.01-0.514-2.33-0.514s-2.23 0.645-2.36 0.494 0.081-0.353 0.484-0.655c0.558-0.381 1.22-0.585 1.89-0.584 0.667 0.0013 1.32 0.213 1.86 0.605 0.352 0.302 0.453 0.605 0.453 0.655z"/>
<path d="m177 50.7c3e-3 0.31-0.116 0.609-0.33 0.833-0.215 0.224-0.509 0.355-0.819 0.366-0.151 0.0123-0.303-0.0057-0.447-0.053-0.145-0.0473-0.278-0.123-0.392-0.222-0.115-0.0995-0.208-0.221-0.275-0.357-0.067-0.136-0.106-0.284-0.115-0.436-3e-3 -0.311 0.115-0.611 0.329-0.837 0.215-0.226 0.509-0.359 0.82-0.372 0.151-0.011 0.304 0.0083 0.448 0.0568 0.144 0.0484 0.277 0.125 0.392 0.225 0.114 0.1 0.207 0.222 0.274 0.359 0.067 0.137 0.106 0.285 0.115 0.437z"/>
<path d="m177 49.6c-0.152 0.161-1.01-0.504-2.34-0.504-1.33 0-2.22 0.645-2.36 0.484-0.141-0.161 0.081-0.343 0.494-0.645 0.552-0.386 1.21-0.59 1.88-0.585 0.669 0.0013 1.32 0.213 1.86 0.605 0.393 0.302 0.524 0.584 0.454 0.645z"/>
<path d="m182 59.1c0.678-0.209 1.38-0.334 2.09-0.373 0.332 0 0.634-0.101 0.695-0.322 0.031-0.351-0.047-0.702-0.222-1.01-0.302-0.786-0.625-1.62-1.01-2.49-0.894-2.11-1.62-4.29-2.18-6.52 1.07 2.03 1.97 4.15 2.7 6.33 0.323 0.877 0.625 1.71 0.928 2.51 0.201 0.395 0.261 0.846 0.171 1.28-0.048 0.116-0.122 0.22-0.217 0.304-0.094 0.0837-0.206 0.145-0.327 0.18-0.181 0.048-0.367 0.0751-0.555 0.0806-0.688 0.0958-1.38 0.106-2.08 0.0303z"/>
</g>
<path d="m183 74.3c-4.37 0.0604-8.68-1.09-12.4-3.33 0 0 3.02 6.38 12.3 5.51z" fill="#eb996e"/>
<g fill="#262626">
<path d="m178 60c0.212 0 0.212 1.38 1.4 2.37 1.19 0.988 2.67 0.836 2.68 1.01 0.01 0.171-0.323 0.272-0.947 0.292-0.818 0.0081-1.61-0.27-2.25-0.786-0.613-0.503-1-1.23-1.09-2.02-0.051-0.534 0.111-0.877 0.201-0.867z"/>
<path d="m177 44.6c-0.131 0.343-1.41 0.181-2.91 0.363-1.5 0.181-2.72 0.595-2.92 0.282-0.091-0.151 0.121-0.484 0.615-0.816 0.65-0.424 1.39-0.683 2.17-0.756 0.769-0.094 1.55-0.0043 2.28 0.262 0.544 0.222 0.827 0.494 0.776 0.665z"/>
<path d="m189 45.6c-0.231 0.292-1.11 0-2.18 0-1.07 0-1.96 0.191-2.17-0.111-0.091-0.151 0.05-0.433 0.443-0.716 0.525-0.336 1.14-0.501 1.76-0.474 0.625 0.0065 1.23 0.211 1.73 0.584 0.373 0.282 0.494 0.574 0.403 0.716z"/>
</g>
<g fill="#9e9e9e">
<path d="m192 41.3s-4.75 2.48-11.1-0.454c-4.18-1.92-9.01-2.77-10.1-1.91-1.07 0.857-1.12 5.11-5.16 6.48 0 0 0.534 8.06-2.7 7.89-3.24-0.171-2.74-16.4-2.74-16.4l8.9-0.474 8.56-1.9 8.15 0.887 6.33 1.52z"/>
<path d="m160 34.6c0-0.121 0.715-0.403 1.61-0.0806s1.3 1.01 1.19 1.09c-0.111 0.0806-0.605-0.373-1.35-0.635-0.746-0.262-1.42-0.232-1.45-0.373z"/>
<path d="m162 31.9c0.151 0 0.1 0.957 0.272 2.02 0.171 1.06 0.635 1.89 0.524 2.02-0.111 0.121-0.827-0.665-1.01-1.89-0.179-0.715-0.104-1.47 0.212-2.14z"/>
</g>
<path d="m163 50c-0.131-0.0605-5.37-1.83-5.42 3.59-0.05 5.42 5.39 4.35 5.4 4.2 0.01-0.151 0.02-7.79 0.02-7.79z" fill="#ffbe9d"/>
<path d="m161 55.7s-0.09 0.0705-0.251 0.141c-0.228 0.085-0.478 0.085-0.706 0-0.339-0.233-0.611-0.551-0.788-0.923s-0.253-0.783-0.22-1.19c-0.013-0.462 0.08-0.92 0.272-1.34 0.053-0.169 0.145-0.324 0.27-0.45 0.124-0.126 0.277-0.221 0.446-0.276 0.11-0.0263 0.225-0.0135 0.326 0.0361 0.101 0.0497 0.182 0.133 0.228 0.236 0.071 0.151 0 0.262 0.071 0.262 0.07 0 0.111-0.0807 0.07-0.312-0.03-0.135-0.104-0.256-0.211-0.343-0.147-0.112-0.331-0.163-0.514-0.141-0.226 0.0407-0.438 0.139-0.614 0.286-0.177 0.147-0.313 0.336-0.394 0.551-0.237 0.464-0.355 0.98-0.343 1.5-0.03 0.482 0.082 0.962 0.322 1.38s0.598 0.759 1.03 0.977c0.145 0.0434 0.299 0.0533 0.449 0.0288 0.15-0.0244 0.293-0.0825 0.417-0.17 0.131-0.121 0.162-0.242 0.141-0.252z" fill="#eb996e"/>
<path d="m138 108s-2.15 64.8-2.02 71l67.6-0.787-5.56-34.4v-22.4l7.59 9.62 16.1-18.8-18.9-20c-3.53-3.69-7.88-6.5-12.7-8.21-2.55-0.911-5.23-1.42-7.94-1.52-6.25 1.98-13 1.98-19.2 0-0.776 0.101-1.85 0.202-3.22 0.363h-0.241c-5.71 0.719-11 3.42-14.9 7.64-3.92 4.22-6.22 9.68-6.52 15.4z" fill="#ffd230"/>
<path d="m198 122c-0.265-2.96-0.353-5.94-0.262-8.92-0.091-2.98-3e-3 -5.95 0.262-8.92 0.259 2.96 0.347 5.94 0.262 8.92 0.085 2.98-2e-3 5.95-0.262 8.92z" fill="#262626"/>
<g opacity=".2">
<path d="m198 118c3.08 3.73 6.45 7.21 10.1 10.4l-2.47 2.95-7.59-9.58z" fill="#262626"/>
</g>
<path d="m160 83.2s-22.8 0.171-25.6 24.2l-1.42 17.9 20.7-0.403z" fill="#ffd230"/>
<g fill="#262626">
<path d="m155 104 3.28 28.7-7.39 4.46 0.726-12.2 2-0.04z" opacity=".2"/>
<path d="m133 125c0.132-0.031 0.267-0.048 0.403-0.05l1.15-0.061 4.31-0.151 15-0.393-0.242 0.232c0.222-3.44 0.464-7.2 0.716-11.1 0.282-4.41 0.604-8.63 0.816-12.4 0.106-1.8-0.019-3.6-0.373-5.36-0.32-1.52-0.966-2.96-1.89-4.21-0.761-1.03-1.79-1.84-2.97-2.33-0.895-0.378-1.86-0.546-2.83-0.494-0.83 0.0708-1.64 0.293-2.39 0.655l0.131-0.101c0.134-0.0926 0.276-0.174 0.424-0.242 0.566-0.285 1.18-0.46 1.81-0.514 1.01-0.0898 2.02 0.055 2.96 0.423 1.25 0.483 2.34 1.3 3.16 2.37 0.983 1.28 1.67 2.76 2.02 4.34 0.384 1.8 0.53 3.64 0.434 5.47-0.182 3.85-0.494 8.06-0.776 12.5-0.262 3.92-0.514 7.68-0.746 11.1v0.232h-0.232l-15 0.202h-5.47c-0.137 6e-3 -0.273-0.011-0.403-0.051z"/>
<path d="m139 180s84-24.5 91.5-20.9c7.58 3.6 39 91.4 39 91.4l-24.1 11.7-30.6-74.9s-59.7 23.2-69.2 21.2c-9.58-1.94-6.57-28.6-6.57-28.6z"/>
<path d="m174 178c1.2 0.393 47.2 15.5 50.4 21.4 3.16 5.96-1.5 113-1.5 113l-29.9-0.05 2.02-102-50.4-1.27z"/>
</g>
<path d="m145 209c0.251-2e-3 0.501-0.033 0.746-0.091l2.11-0.372c1.82-0.343 4.45-0.857 7.7-1.55 6.49-1.38 15.4-3.47 25.2-6.27 4.87-1.42 9.46-2.89 13.6-4.32 4.15-1.43 7.84-2.86 10.9-4.17 1.54-0.624 2.91-1.24 4.11-1.78 1.2-0.545 2.24-1.01 3.02-1.44l1.9-1.01c0.229-0.097 0.446-0.223 0.644-0.373-0.24 0.067-0.473 0.158-0.695 0.272l-1.96 0.857c-0.836 0.393-1.88 0.846-3.09 1.35s-2.59 1.11-4.13 1.7c-3.02 1.26-6.78 2.6-10.9 4.03s-8.74 2.86-13.6 4.27c-9.72 2.79-18.6 4.94-25.1 6.42l-7.66 1.74-2.06 0.575c-0.247 0.027-0.49 0.081-0.725 0.161z" fill="#455a64"/>
<path d="m225 223c0.127-0.485 0.205-0.981 0.232-1.48 0.111-1.08 0.252-2.44 0.423-4.03 0.171-1.59 0.343-3.79 0.554-6.05 0.338-2.48 0.338-4.99 0-7.47-0.513-2.51-1.84-4.78-3.77-6.46-1.54-1.36-3.27-2.47-5.15-3.3-1.58-0.716-2.91-1.18-3.83-1.49-0.464-0.193-0.947-0.334-1.44-0.423 0 0.111 2.02 0.806 5.09 2.3 1.81 0.849 3.48 1.97 4.96 3.32 1.82 1.62 3.07 3.78 3.56 6.17 0.317 2.43 0.317 4.89 0 7.32-0.161 2.25-0.303 4.28-0.423 6.05-0.121 1.76-0.182 3.02-0.242 4.08-0.044 0.49-0.03 0.984 0.04 1.47z" fill="#455a64"/>
<path d="m190 132-25.8 23.4c-6.19 5.61-17.4 7.05-24.3 2.39-4.17-2.77-5.04-7.86-5.84-12.8-1.55-9.07 0.454-29.1 0.393-28.5l18.3 0.433-0.856 19.6 31-17.6 0.554-0.675c0.343-0.867 0.726-1.9 1.11-3.12 0.342-1.07 0.495-2.19 0.454-3.32-0.015-1.26-0.16-2.52-0.433-3.75 0-0.081-0.061-0.192-0.101-0.262-0.074-0.162-0.115-0.336-0.121-0.514-0.044-0.233-0.022-0.474 0.064-0.694 0.086-0.221 0.233-0.413 0.424-0.554 0.19-0.141 0.417-0.226 0.653-0.244 0.237-0.018 0.473 0.031 0.683 0.142 0.907 0.564 2.13 3.38 2.16 7.05v0.171c0.121 3.71 3.56-0.927 4.84-2.59s5.48-6.62 6.3-6.62c1.19 0 1.42 1.31 0.101 2.94-1.32 1.63-4.94 6.81-4.03 7.47s7.29-7.92 7.29-7.92 1.09-2.02 2.14-1.34c1.92 1.31-5.56 9.9-6.29 10.7-0.514 0.554 0.433 1.31 0.947 0.685s6.2-8.71 8.15-7.4c1.5 1.01-6.05 7.12-6.35 9.47s5.28-5.24 6.68-4.22c0.513 0.373 0.846 0.736-2.95 4.62-3.12 2.9-6.39 5.64-9.81 8.18z" fill="#ffbe9d"/>
<path d="m171 213c7.82-0.514 4.14-11.7 3.95-24.2-0.121-7.83-5.32-15.5-11-20.9-2.88-2.55-6.28-4.46-9.97-5.57-9.76-3.14-20.2-3.8-30.2-1.94 0 0-14.8 56.7 47.3 52.7z" fill="#455a64"/>
<path d="m466 160h-385c-0.436 0-0.867 0.086-1.27 0.252-0.402 0.167-0.768 0.411-1.08 0.719-0.308 0.308-0.552 0.673-0.719 1.08-0.167 0.402-0.252 0.833-0.252 1.27 0 0.436 0.0858 0.867 0.252 1.27 0.167 0.403 0.411 0.768 0.719 1.08 0.308 0.308 0.673 0.552 1.08 0.719 0.402 0.166 0.833 0.252 1.27 0.252h18.3v155h7.92v-155h332v155h7.92v-155h19.3c0.436 0 0.867-0.086 1.27-0.252 0.402-0.167 0.768-0.411 1.08-0.719s0.552-0.673 0.718-1.08c0.167-0.402 0.253-0.833 0.253-1.27 0-0.435-0.086-0.866-0.253-1.27-0.166-0.403-0.41-0.768-0.718-1.08s-0.674-0.552-1.08-0.719c-0.402-0.166-0.833-0.252-1.27-0.252z" fill="#f2f2f2"/>
<path d="m266 220c-7.83-0.242-4.14-11.7-3.95-24.2 0.121-7.84 5.33-15.5 11-20.9 2.89-2.55 6.29-4.45 9.98-5.56 9.65-3.3 20.2-3.65 30.2-1.94-0.011-0.04 2.34 54.2-47.3 52.6z" fill="#de5836"/>
<path d="m266 220c-7.83-0.242-4.14-11.7-3.95-24.2 0.121-7.84 5.33-15.5 11-20.9 2.89-2.55 6.29-4.45 9.98-5.56 9.65-3.3 20.2-3.65 30.2-1.94-0.011-0.04 2.34 54.2-47.3 52.6z" fill="#262626" opacity=".3"/>
<path d="m337 114c4.68-0.423 9.44-0.796 14 0.131 4.6 0.928 9.07 3.33 11.6 7.34 2.51 4.01 2.54 9.07 2.54 13.8v59.8h-53.4z" fill="#de5836"/>
<path d="m365 193c0.222 11.8-0.806 21.4-8.97 26-6.11 3.47-13.5 3.55-20.5 3.54h-30.4c-3.08 0-6.39-0.071-8.91-1.86-2.77-1.96-3.93-5.67-3.45-9.07 0.631-3.36 2.24-6.45 4.63-8.9 8.79-9.76 22.7-12.6 35.6-15" fill="#de5836"/>
<path d="m342 176s5.45 34.9-8.83 39c-15.2 4.38-47.7 12.6-47.7 12.6l-2.45 85.5-23.8-0.867-2.28-96.3c0.078-1.67 0.552-3.29 1.38-4.74 0.83-1.45 1.99-2.68 3.39-3.59l34.4-31.6z" fill="#262626"/>
<path d="m213 265 22.3 8.59 30.2-62.8s51.2 6.05 65.9 4.03c5.25-0.715 11.5-3.46 14.6-7.44 5.7-7.28 5.96-17.2 4.89-26.4l-0.424-2.02-37.7-2.02-57.8 8.67c-2.53 0.441-4.92 1.5-6.95 3.08-2.03 1.58-3.64 3.64-4.68 5.99z" fill="#262626"/>
<path d="m262 209c-1.16 0.601-2.15 1.47-2.89 2.54-0.776 1.17-1.3 2.49-1.52 3.88-0.261 1.72-0.349 3.46-0.262 5.19 0.09 3.73 0.141 7.12 0.151 9.56v2.89c0.013 0.358-0.014 0.716-0.081 1.07-0.086-0.329-0.13-0.667-0.131-1.01 0-0.686-0.101-1.67-0.151-2.9-0.101-2.44-0.212-5.82-0.302-9.55-0.09-1.77 0.015-3.54 0.312-5.29 0.255-1.45 0.834-2.83 1.69-4.03 0.576-0.802 1.32-1.47 2.19-1.94 0.298-0.208 0.639-0.346 0.998-0.403z" fill="#455a64"/>
<path d="m333 215c-0.241 0.031-0.484 0.031-0.725 0l-2.09-0.07c-1.8-0.071-4.42-0.202-7.65-0.383-6.46-0.363-15.4-0.958-25.2-1.8-9.82-0.847-18.7-1.82-25.2-2.62-3.2-0.404-5.8-0.746-7.6-1.01l-2.02-0.313c-0.242-0.032-0.481-0.079-0.716-0.141 0.241-0.029 0.485-0.029 0.726 0l2.08 0.212 7.61 0.846c6.43 0.716 15.3 1.62 25.2 2.47 9.88 0.847 18.7 1.5 25.2 1.96l7.64 0.554 2.09 0.171c0.221 0.027 0.44 0.071 0.655 0.131z" fill="#455a64"/>
<path d="m333 79.2c0.948 1.64 3.31 1.91 5.04 1.17 1.66-0.902 3.14-2.1 4.37-3.54 1.35-1.32 3.02-2.57 4.86-2.67 1.42-0.0705 2.95 0.524 4.23-0.111 1.28-0.635 1.73-2.34 2.37-3.7 0.688-1.39 1.66-2.63 2.85-3.63 1.21-1.03 2.04-2.44 2.35-4 0.311-1.56 0.085-3.18-0.641-4.6-0.061-0.0907-0.111-0.192-0.171-0.292-1.02-1.95-2.73-3.44-4.8-4.2-1.71-0.544-3.74-0.443-5.04-1.65-1.53-1.4-1.4-3.9-2.64-5.56-1.07-1.22-2.55-2.01-4.16-2.2-1.6-0.191-3.18-0.528-4.72-1.01-0.765-0.245-1.45-0.692-1.98-1.29-0.533-0.601-0.893-1.33-1.04-2.12" fill="#fff"/>
<path d="m324 44.8c-0.59-1.88-1.69-3.55-3.18-4.84-1.49-1.28-3.31-2.12-5.26-2.43-1.94-0.303-3.94-0.0561-5.75 0.713-1.81 0.769-3.37 2.03-4.5 3.64-1.01 1.37-1.65 3.02-3.02 3.95-1.21 0.786-2.72 0.887-4.03 1.4-1.43 0.6-2.62 1.66-3.37 3.02s-1.03 2.92-0.784 4.45c0.342 1.79 1.41 3.54 1.01 5.32-0.544 2.44-3.62 3.87-3.71 6.37-0.061 1.68 1.32 3.02 2.65 4.1 1.33 1.08 2.82 2.16 3.18 3.81 0.075 1.11 0.075 2.23 0 3.34 0.137 1.19 0.709 2.28 1.61 3.07s2.06 1.22 3.25 1.21c1.27-0.0605 2.69-0.605 3.71 0.161 0.373 0.382 0.71 0.797 1.01 1.24 1.18 1.3 3.33 1.26 4.89 0.443 1.49-0.943 2.82-2.12 3.93-3.49 1.13-1.38 2.69-2.33 4.42-2.71" fill="#fff"/>
<path d="m334 49.7-0.061 2.95-0.594 44.2c-0.071 5.14-4.54 9.17-10.1 9.07-5.55-0.111-10.1-4.42-10.1-9.6 0-5.44-0.131-11.2-0.131-11.2s-7.06-1.17-8.48-10.3c-0.725-4.56-0.493-12-0.11-18.1 0.081-1.3 0.425-2.57 1.01-3.74 0.586-1.17 1.4-2.2 2.4-3.04s2.15-1.47 3.4-1.86c1.25-0.383 2.56-0.51 3.86-0.373z" fill="#ffb29d"/>
<g fill="#262626">
<path d="m307 62c-3e-3 0.307 0.115 0.602 0.328 0.823 0.213 0.221 0.504 0.349 0.81 0.356 0.294 0.0253 0.586-0.0664 0.812-0.255 0.227-0.189 0.37-0.459 0.398-0.753 2e-3 -0.305-0.114-0.599-0.325-0.819s-0.499-0.35-0.804-0.36c-0.295-0.028-0.59 0.0624-0.818 0.251-0.229 0.189-0.373 0.461-0.401 0.756z"/>
<path d="m306 60.6c0.141 0.151 1.01-0.504 2.3-0.504s2.19 0.645 2.33 0.484c0.141-0.161-0.08-0.343-0.483-0.635-0.547-0.381-1.2-0.582-1.86-0.574-0.658-0.0038-1.3 0.201-1.83 0.584-0.383 0.302-0.514 0.574-0.443 0.645z"/>
<path d="m319 62c-3e-3 0.305 0.114 0.599 0.325 0.819 0.211 0.22 0.499 0.35 0.804 0.36 0.146 0.0138 0.293-0.0013 0.432-0.0445 0.14-0.0433 0.27-0.114 0.383-0.208 0.112-0.0937 0.205-0.209 0.273-0.338 0.067-0.13 0.109-0.272 0.121-0.417 6e-3 -0.306-0.11-0.601-0.321-0.822-0.212-0.221-0.502-0.349-0.807-0.357-0.294-0.0253-0.586 0.0664-0.812 0.255-0.227 0.189-0.37 0.459-0.398 0.753z"/>
<path d="m319 60.9c0.152 0.151 1.01-0.504 2.3-0.504s2.2 0.635 2.33 0.484c0.131-0.151-0.08-0.353-0.484-0.645-0.547-0.378-1.2-0.579-1.86-0.574-0.656-0.0051-1.3 0.204-1.82 0.595-0.393 0.292-0.524 0.574-0.454 0.645z"/>
<path d="m314 70.2c-0.655-0.202-1.33-0.324-2.02-0.363-0.323 0-0.635-0.101-0.686-0.322-0.028-0.333 0.046-0.667 0.212-0.957 0.302-0.776 0.625-1.59 0.957-2.46 0.882-2.08 1.6-4.23 2.15-6.42-1.05 2.01-1.94 4.09-2.66 6.24-0.322 0.857-0.624 1.68-0.917 2.47-0.203 0.39-0.261 0.841-0.161 1.27 0.046 0.114 0.117 0.215 0.207 0.297 0.091 0.0821 0.2 0.142 0.317 0.176 0.181 0.0452 0.367 0.0689 0.554 0.0706 0.68 0.0868 1.37 0.0868 2.05 0z"/>
</g>
<path d="m313 85.2c4.31 0.0631 8.55-1.07 12.3-3.28 0 0-2.97 6.29-12.1 5.43z" fill="#e8947e"/>
<path d="m315 73.3c0.239-0.297 0.549-0.529 0.901-0.675 0.352-0.146 0.736-0.202 1.12-0.161 0.278 0.0215 0.549 0.101 0.796 0.233 0.246 0.132 0.462 0.313 0.635 0.533 0.169 0.21 0.269 0.466 0.287 0.735s-0.047 0.536-0.186 0.767c-0.201 0.229-0.466 0.392-0.761 0.467-0.295 0.0756-0.606 0.0603-0.892-0.0438-0.602-0.219-1.15-0.562-1.61-1.01-0.145-0.0981-0.268-0.225-0.362-0.373-0.05-0.0673-0.076-0.148-0.076-0.232 0-0.0834 0.026-0.164 0.076-0.232" fill="#e8947e"/>
<g fill="#262626">
<path d="m318 71.1c-0.202 0-0.202 1.36-1.38 2.34-1.18 0.978-2.63 0.816-2.64 1.01-0.01 0.192 0.322 0.272 0.937 0.282 0.803 0.012 1.58-0.259 2.21-0.766 0.6-0.486 0.983-1.19 1.07-1.96 0.061-0.554-0.1-0.917-0.191-0.907z"/>
<path d="m318 55.9c0.121 0.343 1.38 0.181 2.86 0.363 1.48 0.181 2.68 0.584 2.88 0.272 0.091-0.141-0.12-0.464-0.604-0.796-0.643-0.413-1.37-0.671-2.13-0.755-0.759-0.0839-1.53 0.0089-2.24 0.271-0.544 0.212-0.826 0.484-0.766 0.645z"/>
<path d="m307 57c0.222 0.292 1.09 0 2.14 0s1.94 0.192 2.14-0.111c0.091-0.141-0.05-0.433-0.433-0.705-0.521-0.328-1.13-0.49-1.74-0.464-0.613 0.0092-1.21 0.21-1.7 0.574-0.373 0.272-0.494 0.574-0.393 0.706z"/>
<path d="m324 42.6c-0.071 0-0.172 0-0.283-0.131l-0.554-0.544 0.847 0.322c0.147 0.0623 0.298 0.113 0.453 0.151 0.353 0.101 0.685 0 0.756 0.181s-0.302 0.474-0.877 0.333c-0.236-0.0564-0.443-0.196-0.584-0.393l0.292-0.222c0.03 0.151 0.01 0.272-0.05 0.302z"/>
</g>
<path d="m324 43.6c-0.823 0.943-1.4 2.08-1.68 3.3s-0.244 2.49 0.092 3.7c0.39 1.22 1.06 2.34 1.96 3.25s2.01 1.6 3.23 2.01c0.604 0.202 1.32 0.413 1.55 1.01 0.115 0.514 0.025 1.05-0.252 1.5-0.569 1.54-0.613 3.22-0.124 4.79 0.488 1.57 1.48 2.93 2.82 3.87-0.319 1.69-0.209 3.42 0.319 5.06 0.529 1.63 1.46 3.11 2.7 4.28 0-1.58 1.18-2.93 2.48-3.92 1.39-0.856 2.69-1.84 3.89-2.95 0.848-0.958 1.38-2.15 1.53-3.42 0.15-1.27-0.093-2.56-0.694-3.68-0.468-0.617-0.764-1.35-0.857-2.12 0-0.907 0.826-1.59 1.45-2.28 1.35-1.53 2.08-3.52 2.02-5.56-0.056-2.04-0.886-3.99-2.32-5.44-0.696-0.675-1.51-1.23-2.16-1.96-0.732-0.987-1.4-2.02-2.02-3.08-1.16-1.54-2.72-2.73-4.52-3.43s-3.76-0.87-5.65-0.504c-3.8 0.776-6.15 4.47-5.34 8.65" fill="#fff"/>
<g fill="#f2f2f2">
<path d="m323 44.8c-0.017 1.72-0.38 3.41-1.07 4.99-0.352 0.782-0.889 1.47-1.56 1.99-0.677 0.527-1.47 0.881-2.32 1.03-1.66 0.192-3.26-0.665-4.87-1.12-2.12-0.595-4.76-0.312-5.98 1.51-0.857 1.27-1.01 4.21-3.02 5.04-1.43 0.584-2.32-1.07-3.72-0.423-2.34 1.07-1.94 5.11-4.3 6.14 0.756-1.96 0.393-4.13 0.373-6.22s0.554-4.47 2.4-5.47c1.08-0.394 2.19-0.714 3.32-0.957 1.69-0.625 2.87-2.15 4.1-3.49 1.23-1.34 2.77-2.64 4.59-2.59s3.28 1.31 5.04 1.23c1.4-0.0705 2.59-1.01 3.85-1.62 1.26-0.615 3.02-0.806 3.88 0.302"/>
<path d="m341 47.2s-0.252-0.192-0.735-0.403c-0.69-0.28-1.44-0.364-2.18-0.242-1.1 0.232-2.16 0.598-3.18 1.09-1.32 0.59-2.75 0.863-4.19 0.796-1.44-0.0816-2.84-0.51-4.08-1.25-1-0.61-1.87-1.42-2.55-2.38-0.461-0.635-0.824-1.33-1.08-2.08-0.115-0.264-0.177-0.548-0.181-0.836 0.424 0.947 0.944 1.85 1.55 2.69 0.691 0.874 1.54 1.61 2.5 2.18 1.18 0.682 2.51 1.08 3.87 1.15 2.95 0.262 5.23-1.6 7.3-1.72 0.795-0.102 1.6 0.0454 2.31 0.423 0.494 0.282 0.665 0.564 0.645 0.585z"/>
<path d="m293 65.4c0.574 0.0781 1.15 0.122 1.73 0.131 1.58-0.0541 3.1-0.64 4.31-1.66 0.815-0.703 1.44-1.6 1.81-2.61 0.399-1.18 0.62-2.42 0.655-3.67 0.081-1.33 0.061-2.75 0.262-4.22 0.148-1.56 0.743-3.04 1.71-4.27 0.513-0.627 1.17-1.12 1.91-1.44 0.732-0.295 1.52-0.403 2.31-0.312 1.51 0.161 2.83 0.716 4.13 0.846 2.33 0.286 4.69-0.252 6.67-1.52 1.32-0.872 2.44-2.03 3.26-3.39 0.574-1.01 0.776-1.57 0.816-1.55-0.012 0.153-0.05 0.302-0.111 0.443-0.148 0.416-0.326 0.82-0.534 1.21-0.768 1.44-1.88 2.67-3.22 3.59-2.04 1.37-4.49 1.98-6.93 1.7-1.37-0.141-2.71-0.675-4.11-0.816-0.701-0.0824-1.41 0.0111-2.07 0.272-0.664 0.294-1.25 0.74-1.71 1.3-0.91 1.16-1.47 2.56-1.6 4.03-0.201 1.42-0.191 2.83-0.292 4.18-0.051 1.29-0.299 2.57-0.736 3.79-0.418 1.08-1.11 2.02-2.02 2.74-1.28 1.05-2.89 1.61-4.54 1.58-0.439-7e-3 -0.875-0.0645-1.3-0.171-0.262-0.111-0.413-0.181-0.403-0.181z"/>
<path d="m304 66.1c-0.014 0.483-0.149 0.954-0.393 1.37-0.986 2.13-2.76 3.8-4.95 4.65-0.837 0.302-1.38 0.363-1.4 0.292 1.43-0.653 2.77-1.5 3.97-2.52 1.08-1.14 2.02-2.41 2.77-3.79z"/>
<path d="m358 65.3c-0.025-0.634-0.137-1.26-0.332-1.86-0.244-0.696-0.625-1.34-1.12-1.88-0.642-0.725-1.47-1.26-2.39-1.56-1.16-0.248-2.35-0.248-3.51 0-0.684 0.107-1.38 0.138-2.07 0.0907-0.759-0.0695-1.48-0.353-2.09-0.816-1.23-1.01-1.87-2.46-2.79-3.7-0.422-0.66-1.01-1.2-1.71-1.55-0.699-0.354-1.48-0.515-2.26-0.466-1.62 0.14-3.23 0.424-4.8 0.847-2.09 0.373-4.24 0.123-6.18-0.717-1.95-0.84-3.6-2.23-4.76-4.01-0.963-1.51-1.53-3.25-1.64-5.04-0.038-0.48-0.038-0.962 0-1.44 5e-3 -0.168 0.036-0.335 0.091-0.494 0 0 0 0.695 0.09 1.91 0.197 1.72 0.798 3.37 1.75 4.81 1.14 1.68 2.74 2.99 4.61 3.77 1.87 0.784 3.93 1.01 5.92 0.643 1.6-0.44 3.24-0.73 4.89-0.867 0.868-0.045 1.73 0.143 2.5 0.546s1.42 1 1.88 1.74c0.947 1.31 1.58 2.74 2.68 3.62 0.553 0.366 1.18 0.614 1.83 0.73 0.654 0.116 1.32 0.0975 1.97-0.0549 1.22-0.234 2.47-0.203 3.67 0.0907 0.851 0.298 1.62 0.792 2.24 1.44 0.624 0.649 1.09 1.44 1.35 2.3 0.139 0.464 0.207 0.947 0.202 1.43 9e-3 0.166-4e-3 0.332-0.041 0.494z"/>
<path d="m352 71.8c-0.114 0.185-0.27 0.34-0.456 0.452s-0.396 0.178-0.613 0.193c-0.506 0.0638-1.02-0.0202-1.48-0.242-0.591-0.324-1.08-0.81-1.4-1.4-0.374-0.69-0.688-1.41-0.937-2.16-0.257-0.817-0.687-1.57-1.26-2.21-0.713-0.606-1.6-0.96-2.54-1.01-1.01-0.101-2.07-0.131-3.14-0.192-2.06-0.0182-4.1-0.376-6.05-1.06-1.63-0.577-3.01-1.68-3.93-3.14-0.605-0.988-0.887-2.14-0.806-3.3 0.026-0.309 0.091-0.614 0.191-0.907 0.081-0.202 0.131-0.302 0.141-0.292s-0.111 0.433-0.121 1.21c-8e-3 1.1 0.307 2.17 0.907 3.09 0.916 1.35 2.25 2.36 3.79 2.88 1.91 0.649 3.91 0.989 5.93 1.01 1.08 0.0605 2.14 0.0907 3.17 0.202 1.04 0.0627 2.03 0.474 2.81 1.17 0.612 0.676 1.06 1.48 1.32 2.36 0.224 0.731 0.507 1.44 0.846 2.13 0.272 0.548 0.695 1.01 1.22 1.32 0.404 0.219 0.861 0.323 1.32 0.302 0.393-0.0388 0.769-0.181 1.09-0.413z"/>
</g>
<path d="m258 123-4.09-5.04c-2.48-3.76 0.494-5.72 0.796-6.55 0.387-1.29 1.05-2.49 1.94-3.5l-0.917-1.55c-1.15-1.59-2.18-3.26-3.09-4.99-0.353-1.01 1.38-1.78 2.02-0.937 1.45 1.94 3.95 5.19 5.04 6.32 1.43 1.49 4.9 5.5 5.41 1.94 0.514-3.56-0.342-5.18-0.413-6.2-0.07-1.02 1.94-2.09 2.33 0 0.151 0.897 0.635 2.39 0.917 4.57 0.121 1.01 0.071 2.25 0.172 3.21 0.131 1.14 1.53 4.99 1.67 5.8z" fill="#ffb29d"/>
<path d="m295 103-13.5 33.7-11-22.1-14 8.32 13.6 27.8c1.1 2.2 2.81 4.04 4.93 5.28 2.12 1.24 4.56 1.84 7.02 1.72 1.85-0.114 3.64-0.666 5.24-1.61 1.59-0.944 2.94-2.25 3.92-3.82 4.97-7.91 12.7-26.9 12.7-26.9 0.01 0.967-8.98-22.5-8.98-22.5z" fill="#455a64"/>
<path d="m345 130 6.81-29.5c-7.05-6.79-17.8-7.36-17.8-7.36l-3.52 2.36c-2.11 1.42-4.62 2.14-7.16 2.07-2.54-0.0722-5-0.936-7.03-2.47l-2.59-1.96c-8.34 1.01-14.4 3.81-17.9 9.73l3.69 29.3 4.29 14.1-8.38 30.6 56.1 2.39-10.3-35.6c-0.444 0.766 3.88-13.7 3.88-13.7" fill="#455a64"/>
<path d="m346 135c-0.087-0.481-0.205-0.955-0.352-1.42-0.242-0.907-0.585-2.23-0.907-3.88-0.869-4.31-1.21-8.71-1.01-13.1 0.083-2.41 0.421-4.8 1.01-7.14 0.47-1.9 1.34-3.68 2.55-5.21 0.832-1.03 1.86-1.89 3.02-2.53 0.826-0.433 1.34-0.574 1.32-0.615-0.02-0.04-0.131 0-0.373 0.081-0.347 0.097-0.684 0.225-1.01 0.383-1.21 0.601-2.29 1.45-3.15 2.49-1.28 1.55-2.2 3.36-2.7 5.3-0.595 2.36-0.933 4.78-1.01 7.22-0.225 4.41 0.131 8.83 1.06 13.2 0.373 1.65 0.756 2.96 1.01 3.87 0.141 0.444 0.272 0.786 0.353 1.01 0.08 0.222 0.171 0.403 0.191 0.393z" fill="#262626"/>
<path d="m323 174c-3.04 2.08-6.2 4-9.45 5.74-4.14 1.96-4.33 1.6-4.5 1.09-0.433-1.39 7.14-3.74 5.2-4.17-1.94-0.434-8.91 3.94-9.3 2.47-0.504-1.92 7.48-4.23 8.13-4.48s0.312-1.2-0.272-0.947c-0.836 0.363-9.74 3.97-10.3 2.09-0.293-1.01 1.65-1.33 1.65-1.33s8.6-2.77 8.32-3.65c-0.282-0.877-5.38 0.564-7.06 1.17-1.67 0.604-2.65 0.07-2.32-0.887 0.222-0.645 5.33-2.64 7-3.2s6.32-2.02 3.4-3.15c-2.92-1.14-4.76-3.02-4.9-3.9-0.141-0.876 1.01-1.33 1.71-0.645 0.815 0.669 1.72 1.22 2.68 1.65 0.764 0.372 1.58 0.614 2.43 0.716 0.725 0.09 1.38 0.141 1.96 0.181l6.21 0.474 3.13 8.21z" fill="#ffb29d"/>
<path d="m350 99.3c3.52 2.82 6.09 6.66 7.35 11 1.38 4.52 5.33 19.8 8.24 31.1 0.915 3.57 0.439 7.36-1.33 10.6-1.77 3.24-4.7 5.68-8.2 6.84l-32.9 17.8-5.36-13.9 28.8-18.9-6.96-25.8c-1.15-3.92-1.64-7.91-0.201-11.7 1.44-3.83 4.45-7.67 10.5-6.94z" fill="#455a64"/>
<g fill="#262626">
<path d="m358 158-0.152 0.111-0.483 0.272-1.86 1.01-7.05 3.86-25.1 13.5-0.232 0.131-0.101-0.252c-1.66-4.3-3.49-8.98-5.38-13.9l-0.081-0.192 0.181-0.111 12.9-8.5 15.9-10.4-0.101 0.272c-1.89-7.1-3.3-13.8-4.64-19.8-0.333-1.5-0.645-2.96-1.01-4.36-0.335-1.36-0.588-2.74-0.756-4.13-0.236-2.49-0.024-5.01 0.625-7.43 0.533-1.99 1.62-3.78 3.12-5.18 1.15-1.02 2.57-1.69 4.09-1.92 0.941-0.148 1.9-0.09 2.82 0.171 0.317 0.087 0.621 0.212 0.907 0.373 0 0-0.312-0.131-0.927-0.292-0.912-0.216-1.86-0.243-2.78-0.081-1.47 0.26-2.84 0.931-3.94 1.94-1.46 1.38-2.51 3.14-3.02 5.09-0.614 2.38-0.801 4.85-0.554 7.3 0.177 1.38 0.44 2.74 0.786 4.08 0.312 1.41 0.635 2.86 1.01 4.35 1.36 5.98 2.81 12.7 4.71 19.8l0.05 0.181-0.151 0.101-15.9 10.5-12.9 8.5 0.101-0.303c1.88 4.9 3.69 9.58 5.35 13.9l-0.332-0.121 25.2-13.3 7.15-3.74 1.9-1.01 0.494-0.242z"/>
<path d="m304 110c0.079 0.439 0.099 0.886 0.061 1.33-0.059 1.22-0.262 2.42-0.605 3.59-0.512 1.71-1.11 3.39-1.8 5.04-0.865 1.99-1.54 4.07-2.02 6.19-0.372 2.13-0.372 4.31 0 6.44 0.291 1.75 0.705 3.48 1.24 5.18 0.453 1.45 0.857 2.62 1.13 3.43 0.164 0.414 0.289 0.842 0.373 1.28-0.237-0.375-0.426-0.778-0.565-1.2-0.332-0.797-0.786-1.94-1.29-3.39-0.592-1.7-1.05-3.45-1.36-5.22-0.394-2.19-0.394-4.43 0-6.62 0.46-2.15 1.14-4.25 2.02-6.27 0.776-1.86 1.46-3.55 1.9-5.04 0.469-1.54 0.776-3.13 0.917-4.74z"/>
<path d="m347 143c0-0.06 0.333-0.201 0.938-0.191 0.788 0.025 1.56 0.262 2.22 0.686 0.664 0.424 1.2 1.02 1.56 1.72 0.262 0.545 0.282 0.917 0.222 0.938-0.54-0.85-1.22-1.6-2.02-2.22-0.91-0.484-1.9-0.802-2.92-0.938z"/>
</g>
<path d="m255 113c0.406 0.481 0.783 0.985 1.13 1.51 0.416 0.527 0.871 1.02 1.36 1.48 0.334 0.283 0.614 0.625 0.826 1.01 0.134 0.238 0.188 0.511 0.155 0.781s-0.15 0.523-0.336 0.721c-0.201 0.165-0.44 0.277-0.695 0.326-0.255 0.05-0.519 0.035-0.766-0.044-0.425-0.108-0.825-0.296-1.18-0.554-0.575-0.416-1.06-0.94-1.44-1.54-0.384-0.515-0.665-1.1-0.826-1.72 0.416 0.473 0.793 0.978 1.13 1.51 0.391 0.53 0.868 0.989 1.41 1.36 0.308 0.203 0.649 0.353 1.01 0.443 0.168 0.056 0.347 0.071 0.522 0.045s0.342-0.093 0.486-0.196c0.107-0.123 0.173-0.277 0.187-0.44 0.015-0.163-0.022-0.326-0.106-0.467-0.185-0.326-0.423-0.619-0.706-0.866-0.489-0.5-0.93-1.04-1.32-1.62-0.396-0.513-0.681-1.1-0.836-1.73z" fill="#e8947e"/>
<path d="m257 110c0.644 0.551 1.23 1.17 1.74 1.84l1.76 2.08c0.322 0.403 0.675 0.776 1.01 1.28 0.184 0.273 0.295 0.589 0.322 0.917 0.013 0.369-0.113 0.728-0.353 1.01-0.214 0.256-0.495 0.449-0.811 0.557-0.316 0.109-0.656 0.128-0.982 0.058-0.575-0.116-1.1-0.396-1.52-0.806-0.631-0.667-1.21-1.38-1.74-2.13-0.551-0.635-1.03-1.33-1.42-2.08 0.63 0.558 1.2 1.18 1.71 1.84 0.556 0.702 1.15 1.38 1.77 2.02 0.359 0.331 0.802 0.557 1.28 0.655 0.238 0.052 0.486 0.038 0.717-0.04s0.436-0.217 0.593-0.403c0.151-0.182 0.234-0.41 0.234-0.645 0-0.236-0.083-0.464-0.234-0.645-0.282-0.424-0.655-0.847-0.957-1.25l-1.67-2.15c-0.559-0.65-1.05-1.36-1.45-2.12z" fill="#e8947e"/>
<path d="m282 143c-0.319-2.12-0.281-4.27 0.111-6.37 0.306 2.12 0.269 4.27-0.111 6.37z" fill="#262626"/>
<path d="m316 220c-7.83-0.242-4.14-11.7-3.95-24.2 0.121-7.84 5.33-15.5 11-20.9 2.88-2.55 6.28-4.44 9.97-5.56 9.66-3.3 20.2-3.65 30.2-1.94 0-0.04 2.35 54.2-47.3 52.6z" fill="#de5836"/>
<g fill="#455a64">
<path d="m115 218c7.83-0.252 4.14-11.7 3.95-24.2-0.121-7.83-5.32-15.5-11-20.9-2.88-2.55-6.28-4.45-9.97-5.57-9.76-3.14-20.2-3.8-30.2-1.94 0 0-2.35 54.2 47.3 52.7z"/>
<path d="m37.1 113c-4.68-0.424-9.44-0.786-14 0.131s-9.07 3.32-11.6 7.34c-2.51 4.01-2.54 9.07-2.54 13.8v59.8h53.4z"/>
<path d="m8.97 191c-0.222 11.8 0.806 21.4 8.97 26 6.11 3.47 13.5 3.55 20.5 3.54h30.4c3.08 0 6.39-0.081 8.91-1.85 2.77-1.97 3.93-5.68 3.45-9.07-0.628-3.36-2.24-6.46-4.63-8.9-8.79-9.76-22.7-12.7-35.6-15"/>
</g>
<path d="m49.7 87c-3.07-1.72-6.32-3.07-9.71-4.03-3.42-0.962-7.06-0.691-10.3 0.766-2.37 1.37-4.47 3.17-6.19 5.31-2.09 2.3-4.27 4.79-4.69 7.87-0.134 1.38 0.0453 2.76 0.523 4.06 0.478 1.3 1.24 2.47 2.24 3.43 2.02 1.91 4.58 3.17 7.33 3.6 4.45 0.806 9.04-0.013 12.9-2.31 5.14-3.02 8.9-8.58 14.7-9.99" fill="#de5836"/>
<g opacity=".5">
<path d="m46.8 86.4c-3.14-1.49-6.54-2.34-10-2.51-3.48-0.164-6.93 0.778-9.85 2.69-1.29 0.897-2.53 2.31-2.22 3.84 0.312 1.53 1.79 2.28 3.24 2.56 3.47 0.655 6.93-0.917 10.1-2.45l8.43-4.03" fill="#262626"/>
</g>
<g opacity=".2">
<path d="m19.1 95.7c-0.107 0.544-0.0997 1.1 0.0202 1.65s0.35 1.05 0.677 1.5c0.326 0.448 0.742 0.825 1.22 1.11 0.478 0.281 1.01 0.459 1.56 0.525 1.43 0.101 2.85-0.29 4.03-1.11 1.21-0.736 2.29-1.66 3.53-2.35 1.2-0.755 2.64-1.02 4.03-0.746-4.22 2.39-7.68 5.92-10 10.2-3.02-1.8-4.85-4.1-5.37-7.35-0.208-1.14-0.104-2.32 0.302-3.41z" fill="#262626"/>
</g>
<path d="m77.3 72.3c1.96-0.564 2.91-2.8 3.08-4.83 0.171-2.03-0.151-4.1 0.393-6.05 0.393-1.39 1.22-2.66 1.33-4.1 0.111-1.44-0.635-3.02-0.675-4.61-0.0604-2.17 1.25-4.18 1.28-6.36 0.0163-0.757-0.124-1.51-0.412-2.21-0.288-0.7-0.718-1.33-1.26-1.86-0.545-0.526-1.19-0.934-1.9-1.2-0.71-0.264-1.47-0.378-2.22-0.336s-1.5 0.241-2.17 0.583c-0.676 0.342-1.27 0.82-1.76 1.4s-0.838 1.26-1.05 1.99-0.263 1.49-0.162 2.24" fill="#474646"/>
<path d="m47.4 47.7v3.02l0.605 44.9c0.0705 5.21 4.61 9.3 10.2 9.19 5.63-0.121 10.2-4.48 10.2-9.76 0-5.52 0.141-11.3 0.141-11.3s7.12-1.19 8.6-10.5c0.726-4.62 0.494-12.2 0.111-18.4-0.0825-1.32-0.431-2.61-1.03-3.8-0.594-1.18-1.42-2.23-2.43-3.09-1.01-0.855-2.18-1.5-3.45-1.89s-2.6-0.519-3.91-0.38z" fill="#a3705d"/>
<g fill="#262626">
<path d="m75.4 60.1c0.0028 0.31-0.116 0.609-0.33 0.833-0.215 0.224-0.508 0.355-0.818 0.366-0.151 0.0124-0.303-0.0056-0.448-0.0529-0.144-0.0473-0.277-0.123-0.392-0.222-0.114-0.0995-0.208-0.221-0.275-0.357-0.0669-0.136-0.106-0.284-0.115-0.436-0.0029-0.311 0.115-0.612 0.33-0.837s0.508-0.359 0.819-0.372c0.152-0.0109 0.304 0.0084 0.448 0.0568 0.144 0.0485 0.277 0.125 0.392 0.225 0.114 0.1 0.208 0.222 0.274 0.359 0.0668 0.137 0.106 0.285 0.115 0.437z"/>
<path d="m75.7 58.8c-0.151 0.151-1.06-0.514-2.34-0.514s-2.22 0.645-2.36 0.494c-0.141-0.151 0.0806-0.353 0.494-0.655 0.554-0.382 1.21-0.586 1.88-0.585 0.67 0.0013 1.32 0.213 1.86 0.605 0.393 0.262 0.524 0.584 0.454 0.655z"/>
<path d="m62.6 60.1c0.0041 0.154-0.0226 0.308-0.0782 0.452-0.0557 0.144-0.139 0.276-0.246 0.387-0.107 0.112-0.235 0.201-0.376 0.262s-0.294 0.095-0.448 0.0976c-0.151 0.0124-0.302-0.0057-0.446-0.0531s-0.276-0.123-0.39-0.223c-0.114-0.0997-0.206-0.221-0.272-0.357-0.0659-0.136-0.104-0.284-0.111-0.435-0.0055-0.31 0.11-0.611 0.323-0.836 0.213-0.226 0.505-0.36 0.816-0.373 0.152-0.0123 0.305 6e-3 0.45 0.0539 0.145 0.0479 0.279 0.124 0.393 0.225 0.115 0.101 0.208 0.223 0.274 0.36s0.104 0.287 0.112 0.439z"/>
<path d="m63.1 59c-0.151 0.161-1.01-0.504-2.33-0.504s-2.23 0.645-2.37 0.484c-0.141-0.161 0.0806-0.343 0.494-0.645 0.555-0.387 1.22-0.591 1.89-0.584 0.666 0.0013 1.32 0.213 1.85 0.605 0.393 0.302 0.524 0.584 0.454 0.645z"/>
<path d="m67.8 68.5c0.674-0.212 1.37-0.337 2.08-0.373 0.333 0 0.645-0.101 0.695-0.322 0.0363-0.351-0.0415-0.704-0.222-1.01-0.302-0.786-0.625-1.62-1.01-2.49-0.9-2.11-1.62-4.29-2.17-6.52 1.06 2.03 1.96 4.15 2.69 6.33l0.927 2.51c0.198 0.399 0.258 0.853 0.171 1.29-0.0503 0.114-0.125 0.216-0.219 0.298-0.094 0.0819-0.205 0.142-0.325 0.176-0.181 0.0487-0.367 0.0758-0.554 0.0807-0.685 0.0963-1.38 0.106-2.07 0.0302z"/>
</g>
<path d="m68.6 83.7c-4.38 0.066-8.69-1.09-12.4-3.33 0 0 3.02 6.38 12.3 5.51z" fill="#85503b"/>
<path d="m67.2 71.6c-0.245-0.308-0.563-0.549-0.926-0.701-0.363-0.152-0.759-0.209-1.15-0.166-0.282 0.0272-0.556 0.111-0.805 0.246-0.249 0.135-0.469 0.319-0.646 0.54-0.173 0.214-0.276 0.476-0.294 0.75-0.0181 0.274 0.0493 0.548 0.193 0.782 0.207 0.229 0.478 0.392 0.777 0.467 0.3 0.0753 0.615 0.0602 0.906-0.0436 0.607-0.222 1.16-0.565 1.63-1.01 0.146-0.104 0.273-0.234 0.373-0.383 0.0472-0.07 0.0724-0.152 0.0724-0.237s-0.0252-0.167-0.0724-0.237" fill="#85503b"/>
<g fill="#262626">
<path d="m64 69.4c0.212 0 0.212 1.38 1.41 2.37 1.2 0.988 2.67 0.836 2.68 1.01 0.01 0.171-0.333 0.272-0.957 0.292-0.815 0.0092-1.61-0.269-2.24-0.786-0.613-0.503-1-1.23-1.09-2.02 0-0.534 0.101-0.877 0.192-0.867z"/>
<path d="m63.4 54c-0.131 0.343-1.41 0.181-2.91 0.363s-2.72 0.595-2.92 0.282c-0.0907-0.151 0.121-0.484 0.615-0.816 0.65-0.424 1.39-0.683 2.17-0.756 0.769-0.0956 1.55-0.0058 2.28 0.262 0.554 0.222 0.826 0.494 0.776 0.665z"/>
<path d="m75.2 55c-0.222 0.292-1.11 0-2.18 0-1.07 0-1.96 0.192-2.17-0.111-0.0907-0.141 0-0.433 0.443-0.716 0.525-0.336 1.14-0.501 1.76-0.474 0.64-0.0015 1.26 0.207 1.77 0.595 0.343 0.272 0.464 0.564 0.363 0.705z"/>
</g>
<path d="m56.5 40.8c0.307 2.77 1.12 5.47 2.4 7.95 0.652 1.23 1.58 2.3 2.7 3.13s2.42 1.39 3.8 1.64c2.15 0.282 4.28-0.454 6.33-1.17l5.92-2.09c1.19-0.342 2.31-0.881 3.32-1.59 0.962-0.859 1.66-1.97 2.02-3.21s0.356-2.55-0.0023-3.79c-0.537-1.72-1.52-3.27-2.84-4.49-1.32-1.22-2.94-2.08-4.7-2.48-3.54-0.751-7.23-0.327-10.5 1.21-3.24 1.53-6.28 3.44-9.07 5.69" fill="#474646"/>
<path d="m59.3 41-1.72-0.312c-0.746-1.12-1.79-2-3.02-2.54 0.198-0.278 0.366-0.575 0.504-0.887 0.47-1.27 0.438-2.66-0.0904-3.91s-1.51-2.24-2.75-2.77c-0.841-0.209-1.64-0.549-2.38-1.01-0.877-0.685-1.15-1.89-1.86-2.74-1.11-1.3-3.02-1.51-4.74-1.62-1.15-0.134-2.31-0.0791-3.44 0.161-0.567 0.12-1.1 0.376-1.54 0.746-0.446 0.37-0.795 0.844-1.02 1.38-0.403 1.14 0 2.5-0.574 3.57-0.574 1.07-1.73 1.43-2.6 2.17-2.02 1.7-1.91 4.93-0.685 7.24 0.822 1.5 2.02 2.75 3.47 3.65 1.45 0.897 3.11 1.4 4.82 1.47 0.374 0.0083 0.747-0.0085 1.12-0.0504-0.252 0.673-0.591 1.31-1.01 1.89-1.06 1.06-2.21 2.03-3.45 2.89-0.9 0.804-1.62 1.79-2.11 2.89-0.493 1.1-0.748 2.3-0.748 3.5 0 1.21 0.255 2.4 0.748 3.5 0.493 1.1 1.21 2.09 2.11 2.89 1.04 0.715 1.97 1.57 2.77 2.55 0.716 1.12 0.796 2.51 1.22 3.76 0.347 1 0.918 1.92 1.67 2.66 0.753 0.749 1.67 1.32 2.67 1.66 1.01 0.341 2.08 0.448 3.13 0.312s2.06-0.511 2.95-1.1c0.681-0.403 1.24-0.978 1.63-1.67 0.388-0.69 0.586-1.47 0.575-2.26-0.181-1.81-1.84-3.2-2.02-5.04-0.171-1.83 1.01-3.39 1.01-5.15-0.0706-2.02-1.85-3.83-1.46-5.81 0.393-1.99 2.55-2.84 4.08-4.08 1.13-0.95 1.99-2.19 2.47-3.59s0.576-2.9 0.269-4.35z" fill="#474646"/>
<path d="m51.8 39.4c-0.0506 0.446-0.214 0.873-0.474 1.24-0.55 0.922-1.28 1.72-2.16 2.35-0.867 0.64-1.86 1.09-2.91 1.32-0.796 0.161-1.31 0.131-1.32 0.0605 1.39-0.412 2.71-1.02 3.93-1.8 1.11-0.919 2.1-1.98 2.93-3.16z" fill="#de5836"/>
<path d="m38.5 82.2c0.181 0.294 0.38 0.576 0.595 0.847 0.636 0.684 1.52 1.09 2.45 1.13 0.679 0.0113 1.35-0.156 1.94-0.485 0.594-0.329 1.09-0.808 1.44-1.39 0.444-0.671 0.724-1.44 0.816-2.24 0.0786-0.405 0.0573-0.823-0.0621-1.22-0.119-0.395-0.333-0.755-0.623-1.05-0.275-0.25-0.636-0.384-1.01-0.373-0.18 0.0224-0.353 0.0858-0.505 0.185s-0.279 0.233-0.372 0.389c-0.393 0.635 0.262 1.38 0.947 1.44 0.348 0.0068 0.693-0.0586 1.01-0.192 0.321-0.134 0.611-0.332 0.851-0.584 0.464-0.436 0.825-0.97 1.06-1.56 0.34-0.873 0.41-1.83 0.202-2.74-0.151-0.645-0.343-1.01-0.302-1.01 0.247 0.263 0.421 0.586 0.504 0.937 0.298 0.958 0.277 1.99-0.0605 2.93-0.226 0.658-0.602 1.26-1.1 1.74-0.281 0.309-0.626 0.552-1.01 0.714-0.385 0.162-0.8 0.238-1.22 0.223-0.239-0.0226-0.47-0.0943-0.68-0.21-0.21-0.116-0.394-0.274-0.539-0.465-0.164-0.207-0.263-0.459-0.285-0.722-0.0215-0.264 0.0355-0.528 0.164-0.759 0.13-0.232 0.313-0.43 0.533-0.579 0.22-0.149 0.473-0.244 0.737-0.278 0.265-0.0198 0.531 0.0147 0.782 0.101 0.251 0.0866 0.482 0.224 0.679 0.402 0.356 0.348 0.62 0.778 0.77 1.25 0.149 0.475 0.179 0.979 0.0872 1.47-0.111 0.878-0.429 1.72-0.927 2.45-0.397 0.646-0.96 1.17-1.63 1.53-0.67 0.354-1.42 0.523-2.18 0.488-0.501-0.0377-0.99-0.179-1.43-0.415-0.444-0.236-0.834-0.561-1.15-0.956-0.171-0.21-0.304-0.449-0.393-0.705-0.101-0.202-0.121-0.292-0.101-0.302z" fill="#474646"/>
<path d="m37.6 72.5c0.132 0.451 0.333 0.879 0.595 1.27 0.306 0.387 0.71 0.686 1.17 0.867 0.569 0.206 1.18 0.244 1.77 0.111 1.11-0.27 2.09-0.892 2.81-1.77 0.584-0.665 0.897-1.14 1.01-1.1-0.113 0.494-0.349 0.951-0.685 1.33-0.716 1.03-1.8 1.75-3.02 2.02-0.674 0.148-1.38 0.0844-2.02-0.181-0.528-0.232-0.976-0.614-1.29-1.1-0.554-0.836-0.343-1.5-0.343-1.44z" fill="#474646"/>
<path d="m58 40.4c-0.0605 0-0.0806-0.151-0.0504-0.302l0.292 0.222c-0.144 0.199-0.355 0.339-0.595 0.393-0.574 0.141-1.01-0.222-0.887-0.343 0.121-0.121 0.403-0.0706 0.766-0.171 0.158-0.0383 0.313-0.0889 0.464-0.151l0.846-0.333-0.554 0.554c-0.121 0.111-0.222 0.161-0.282 0.131z" fill="#262626"/>
<g fill="#474646">
<path d="m64.9 26.4s0.0907 0.0705 0.232 0.252c0.181 0.269 0.327 0.56 0.433 0.867 0.255 0.718 0.319 1.49 0.183 2.24s-0.464 1.45-0.954 2.03c-0.49 0.583-1.12 1.03-1.84 1.29s-1.49 0.332-2.24 0.204c-0.554-0.0507-1.09-0.238-1.55-0.546-0.463-0.308-0.842-0.726-1.1-1.22-0.123-0.293-0.164-0.614-0.117-0.928 0.0461-0.314 0.177-0.61 0.379-0.855 0.196-0.251 0.447-0.454 0.733-0.594s0.601-0.212 0.92-0.212c0.613 0.044 1.19 0.299 1.64 0.722 0.446 0.422 0.733 0.987 0.81 1.6 0.13 1.09-0.158 2.19-0.806 3.07-0.557 0.744-1.2 1.42-1.91 2.02-0.609 0.546-1.26 1.04-1.94 1.49-0.984 0.66-2.07 1.15-3.21 1.46-0.412 0.136-0.846 0.194-1.28 0.171 1.54-0.383 2.99-1.04 4.29-1.94 0.651-0.458 1.27-0.96 1.85-1.5 0.68-0.597 1.29-1.27 1.8-2.02 0.569-0.786 0.821-1.76 0.706-2.72-0.0641-0.486-0.291-0.937-0.645-1.28-0.353-0.34-0.812-0.551-1.3-0.597-1.01 0-1.85 1.01-1.44 1.86 0.224 0.412 0.547 0.763 0.939 1.02 0.392 0.258 0.841 0.416 1.31 0.46 0.815 0.137 1.65 0.0243 2.4-0.323 0.75-0.347 1.38-0.912 1.8-1.62 0.542-1 0.675-2.18 0.373-3.28-0.131-0.385-0.286-0.762-0.464-1.13z"/>
<path d="m28.6 51.5c0.343 0.0926 0.68 0.207 1.01 0.343 0.922 0.318 1.9 0.442 2.87 0.363 0.703-0.0552 1.38-0.271 1.99-0.631 0.606-0.36 1.12-0.854 1.51-1.44 0.221-0.335 0.37-0.712 0.44-1.11 0.0693-0.395 0.0568-0.8-0.0368-1.19-0.0516-0.186-0.145-0.358-0.272-0.502-0.127-0.145-0.286-0.259-0.464-0.334-0.164-0.0761-0.346-0.103-0.525-0.0782-0.179 0.0251-0.346 0.101-0.483 0.219-0.112 0.139-0.186 0.306-0.212 0.483-0.0266 0.177-0.0054 0.358 0.0612 0.524 0.15 0.373 0.439 0.673 0.806 0.836 0.748 0.35 1.58 0.472 2.4 0.353 1.42-0.234 2.73-0.887 3.78-1.87 0.722-0.667 1.4-1.38 2.02-2.15 0.454-0.544 0.716-0.836 0.746-0.806-0.15 0.335-0.347 0.647-0.584 0.927-0.568 0.827-1.22 1.6-1.94 2.3-1.08 1.09-2.46 1.81-3.97 2.08-0.917 0.153-1.86 0.023-2.7-0.373-0.479-0.224-0.856-0.62-1.06-1.11-0.11-0.266-0.142-0.557-0.094-0.84 0.0481-0.283 0.175-0.548 0.366-0.762 0.213-0.198 0.48-0.327 0.768-0.372 0.287-0.0449 0.581-0.0031 0.845 0.12 0.245 0.106 0.463 0.267 0.638 0.469 0.174 0.202 0.301 0.442 0.37 0.7 0.116 0.459 0.133 0.937 0.0497 1.4s-0.265 0.908-0.533 1.3c-0.428 0.644-1 1.18-1.67 1.56-0.672 0.382-1.42 0.6-2.2 0.637-1.02 0.0495-2.04-0.137-2.97-0.544-0.342-0.109-0.662-0.276-0.947-0.494z"/>
<path d="m44.8 42.9s-0.433 0-1.21 0.0907c-1.09 0.128-2.18 0.323-3.25 0.584-1.62 0.423-3.31 0.505-4.96 0.242-2.06-0.354-3.92-1.46-5.22-3.09-0.628-0.838-1.06-1.81-1.27-2.83-0.207-1.03-0.184-2.09 0.0697-3.1 0.216-0.828 0.624-1.59 1.19-2.24 0.565-0.642 1.27-1.14 2.07-1.46 1.05-0.462 2.22-0.565 3.34-0.292 0.301 0.0717 0.589 0.187 0.857 0.343 0.181 0.101 0.272 0.161 0.262 0.181-0.01 0.0201-0.403-0.181-1.16-0.322-1.07-0.182-2.16-0.0343-3.14 0.423-0.722 0.319-1.36 0.799-1.87 1.4-0.508 0.604-0.872 1.32-1.06 2.08-0.22 0.944-0.232 1.92-0.0331 2.87 0.198 0.949 0.602 1.84 1.18 2.62 1.22 1.54 2.95 2.59 4.89 2.94 1.59 0.274 3.22 0.226 4.8-0.141 1.09-0.227 2.19-0.365 3.31-0.413 0.41-0.0372 0.823 3e-4 1.22 0.111z"/>
<path d="m52.3 37.8c0.884-0.271 1.69-0.751 2.35-1.4 0.768-0.786 1.22-1.83 1.26-2.93 0.0447-1.1-0.319-2.17-1.02-3.02-0.736-0.961-1.79-1.63-2.97-1.88-0.975-0.197-1.98-0.141-2.93 0.161-0.872 0.328-1.7 0.772-2.45 1.32 0 0 0.141-0.252 0.514-0.584 0.532-0.472 1.15-0.841 1.81-1.09 1-0.379 2.09-0.477 3.14-0.282 1.31 0.243 2.48 0.96 3.3 2.02 0.412 0.52 0.718 1.12 0.9 1.75 0.182 0.638 0.235 1.31 0.158 1.96-0.156 1.07-0.667 2.06-1.45 2.81-0.513 0.509-1.15 0.877-1.84 1.07-0.244 0.0922-0.507 0.123-0.766 0.0907z"/>
<path d="m80.3 58.5c-0.0605-0.0705 0.645-0.645 1.6-1.71 0.555-0.604 0.978-1.32 1.24-2.1 0.244-0.967 0.177-1.99-0.192-2.91-0.343-1.01-0.846-1.96-1.17-2.88-0.335-0.823-0.47-1.71-0.393-2.6 0.0527-0.6 0.273-1.17 0.635-1.65 0.272-0.333 0.474-0.443 0.494-0.423-0.441 0.619-0.702 1.35-0.756 2.11-0.017 0.824 0.144 1.64 0.474 2.4 0.333 0.877 0.847 1.8 1.22 2.89 0.4 1.03 0.454 2.16 0.151 3.21-0.302 0.835-0.792 1.59-1.43 2.21-0.535 0.593-1.17 1.09-1.87 1.46z"/>
</g>
<path d="m137 143-34.8-0.463-15.4-40.2c-3.58-6.05-9.74-8.86-18.2-9.88l-2.63 2.02c-2.06 1.55-4.56 2.43-7.14 2.5-2.58 0.0722-5.12-0.66-7.26-2.1l-3.57-2.39s-9.69 0.514-16.8 6.32h-0.0907c-3.57 2.86-6.18 6.76-7.46 11.2-1.39 4.58-5.4 20.1-8.35 31.6-0.932 3.63-0.452 7.47 1.34 10.8 1.8 3.29 4.77 5.77 8.33 6.94l9.61 3.18-4.73 14.3 57.5-0.766-7.97-32.4 0.947-2.37c1.48 3.02 3.82 7.61 5.31 10.6 1.42 2.81 3.63 5.14 6.36 6.7s5.86 2.3 9 2.11l37.6-3.34zm-103 0.927 3.09-11.4c1.24 4.19 3.48 11.8 3.14 11.3l-0.806 2.46z" fill="#de5836"/>
<path d="m63 168c2.48 1.7 5.05 3.26 7.7 4.68 3.39 1.6 3.54 1.31 3.67 0.887 0.353-1.14-5.83-3.02-4.24-3.41 1.58-0.383 7.27 3.22 7.59 2.02 0.413-1.56-6.05-3.45-6.64-3.65-0.595-0.202-0.242-1.01 0.232-0.776 0.685 0.302 7.95 3.24 8.36 1.71 0.242-0.857-1.34-1.1-1.34-1.1s-7.05-2.26-6.79-2.97c0.262-0.716 4.39 0.463 5.76 0.957s2.17 0.06 1.89-0.726c-0.181-0.524-4.34-2.15-5.71-2.61-1.37-0.463-5.16-1.66-2.77-2.57s3.89-2.49 4.03-3.18c0.141-0.696-0.826-1.09-1.39-0.524-0.666 0.541-1.4 0.992-2.19 1.34-0.634 0.307-1.32 0.505-2.02 0.585-0.595 0.08-1.12 0.12-1.59 0.151l-5.04 0.383-2.55 6.7z" fill="#a3705d"/>
<g fill="#262626">
<path d="m24.7 159h0.161l0.464 0.141 1.79 0.594 6.77 2.31 24 8.34-0.292 0.131c1.77-4.48 3.74-9.43 5.79-14.6l0.141 0.323-14.9-6.17-14.2-5.97-0.202-0.09 0.0604-0.222c1.91-7.12 3.38-13.9 4.76-19.9 0.343-1.52 0.675-3.02 1.01-4.42 0.347-1.36 0.617-2.74 0.806-4.13 0.261-2.49 0.0841-5-0.524-7.43-0.505-1.98-1.55-3.78-3.02-5.2-1.12-1.04-2.52-1.74-4.03-2.02-0.943-0.166-1.91-0.139-2.84 0.081-0.625 0.161-0.937 0.322-0.947 0.292 0.294-0.161 0.605-0.29 0.927-0.383 0.94-0.266 1.93-0.321 2.89-0.161 1.55 0.254 3 0.954 4.16 2.02 1.53 1.44 2.62 3.27 3.15 5.3 0.647 2.46 0.852 5.02 0.605 7.56-0.188 1.41-0.45 2.8-0.786 4.18l-1.01 4.42c-1.36 6.05-2.79 12.8-4.7 20l-0.151-0.302 14.2 5.96 14.8 6.23 0.232 0.091-0.0907 0.231c-2.08 5.21-4.03 10.1-5.85 14.6l-0.0807 0.202-0.202-0.071-24-8.52-6.73-2.44-1.77-0.655-0.443-0.182z"/>
<path d="m77.8 109c0.131 1.66 0.435 3.29 0.907 4.89 0.454 1.47 1.15 3.18 1.93 5.04 0.907 2.05 1.61 4.18 2.1 6.36 0.404 2.22 0.404 4.5 0 6.72-0.314 1.8-0.776 3.57-1.38 5.29-0.504 1.47-1.01 2.64-1.3 3.44-0.154 0.426-0.346 0.838-0.574 1.23 0.0766-0.446 0.205-0.883 0.383-1.3 0.272-0.816 0.685-2.02 1.14-3.48 0.546-1.72 0.967-3.48 1.26-5.26 0.378-2.16 0.378-4.38 0-6.54-0.476-2.15-1.15-4.25-2.02-6.28-0.706-1.68-1.32-3.4-1.83-5.15-0.347-1.18-0.553-2.41-0.615-3.64-0.0551-0.439-0.0551-0.882 0-1.32z"/>
<path d="m102 142c-0.556 1.02-1.25 1.96-2.07 2.79-0.715 0.91-1.51 1.75-2.39 2.51-0.161-0.111 0.746-1.4 2.02-2.85 0.682-0.937 1.5-1.76 2.44-2.45z"/>
<path d="m34.6 144c-1.09 0.138-2.16 0.402-3.18 0.786-0.69 0.309-1.31 0.762-1.8 1.33-0.373 0.453-0.524 0.796-0.605 0.776-0.0807-0.02 0-0.424 0.302-1.01 0.582-0.819 1.4-1.44 2.35-1.78 0.946-0.341 1.97-0.384 2.94-0.124z"/>
<path d="m38.8 94.2c0 0.0907-1.21 0.625-3.11 1.67-2.49 1.34-4.79 3.01-6.84 4.96-2.03 1.96-3.61 4.34-4.64 6.97-0.766 2.02-0.957 3.38-1.06 3.36-0.0117-0.318 0.0154-0.636 0.0806-0.947 0.134-0.863 0.344-1.71 0.625-2.54 0.957-2.73 2.54-5.2 4.62-7.22 2.08-1.99 4.46-3.65 7.05-4.92 1.01-0.474 1.79-0.836 2.38-1.01 0.278-0.16 0.582-0.272 0.897-0.332z"/>
<path d="m56.6 101c-0.656 0.178-1.34 0.219-2.02 0.121-1.68-0.159-3.3-0.689-4.75-1.55-1.47-0.841-2.72-2-3.68-3.4-0.423-0.552-0.726-1.19-0.887-1.86 0.0806 0 0.433 0.665 1.19 1.64 1.99 2.59 4.9 4.32 8.12 4.82 1.23 0.171 2.02 0.141 2.02 0.232z"/>
<path d="m70.8 94.2c-0.505 1.22-1.27 2.31-2.24 3.19-0.974 0.887-2.13 1.55-3.39 1.94-0.0605-0.141 1.49-0.897 3.02-2.33 1.53-1.43 2.48-2.88 2.61-2.8z"/>
<path d="m40.6 118s4.73 20.9 4.65 22.9c-0.285 2.33-0.74 4.64-1.36 6.91l-3.9-1.63 0.806-2.46-3.31-11.8z" opacity=".2"/>
</g>
<g opacity=".2">
<path d="m83.1 130 5.26 18c0.533 2.29 1.46 4.47 2.73 6.45 2.8 3.81 11.1 4.38 15.7 5.32l-6.8 0.614c-2.81-0.05-5.55-0.817-7.98-2.23s-4.45-3.42-5.88-5.83l-5.76-11.5z" fill="#262626"/>
</g>
<path d="m61.5 110c-0.318-1.56-0.464-3.15-0.433-4.75-0.151-1.59-0.124-3.19 0.0806-4.78 0.318 1.56 0.466 3.16 0.443 4.76 0.146 1.59 0.115 3.19-0.0907 4.77z" fill="#fff"/>
<path d="m65.3 108c-0.833-1.23-1.59-2.51-2.26-3.84-0.816-1.24-1.55-2.54-2.19-3.88 2.02 2.22 3.54 4.86 4.44 7.72z" fill="#fff"/>
<path d="m138 155 1.01 0.111c3.66 0.411 7.35 0.627 11 0.645 4.58-0.201 4.58-0.615 4.48-1.15-0.273-1.43-8.06 0-6.55-1.25 1.51-1.25 9.72-0.696 9.37-2.18-0.453-1.92-8.59-0.232-9.28-0.141-0.696 0.09-0.837-0.917-0.202-1.01 0.917-0.071 10.5-1.01 10.1-2.96-0.242-1.01-2.09-0.403-2.09-0.403s-8.89 1.58-9.07 0.675c-0.182-0.907 5.04-2.02 6.79-2.27 1.75-0.252 2.37-1.19 1.63-1.88-0.494-0.474-5.95 0.161-7.69 0.454-1.74 0.292-6.54 1.16-4.48-1.2 2.06-2.36 2.78-4.92 2.5-5.74-0.103-0.16-0.249-0.287-0.422-0.367-0.173-0.081-0.364-0.11-0.553-0.086s-0.367 0.101-0.513 0.223c-0.147 0.121-0.256 0.281-0.316 0.462-0.413 0.973-0.952 1.89-1.6 2.72-0.5 0.686-1.11 1.28-1.8 1.77-0.605 0.414-1.15 0.766-1.65 1.07l-1.8 1.19z" fill="#a3705d"/>
<path d="m59.3 176s-4.2 25 8.4 32c12.6 7.06 39.2 14.9 39.2 14.9l-2.91 90.1h21.9l7.94-97.6c0.135-1.65-0.116-3.31-0.733-4.85-0.617-1.54-1.58-2.91-2.82-4.02l-42.1-30.5z" fill="#262626"/>
<path d="m30.2 176s-5.31 22.7 7.3 29.7c12.6 7.02 35.6 16.1 35.6 16.1l-0.514 91.1h25.3l5.41-97.6c0.136-1.65-0.115-3.32-0.733-4.85-0.617-1.54-1.58-2.91-2.82-4.02l-36.1-30.5z" fill="#262626"/>
<g fill="#455a64">
<path d="m102 235c-0.028-0.261-0.028-0.524 0-0.786 0-0.554 0.081-1.3 0.141-2.23 0.131-1.94 0.343-4.75 0.504-8.21 0.241-4.05 0.18-8.11-0.181-12.1-0.136-2.37-0.916-4.66-2.26-6.62-1.54-2.05-3.28-3.94-5.2-5.63-7.91-7.05-15.6-12.8-21.1-17.1l-6.51-5.04-1.75-1.4c-0.208-0.155-0.404-0.327-0.584-0.514 0.233 0.122 0.452 0.267 0.655 0.434l1.8 1.32 6.61 4.9c5.55 4.17 13.3 9.91 21.2 17 1.94 1.72 3.71 3.64 5.26 5.72 0.755 1.01 1.32 2.14 1.65 3.36 0.317 1.15 0.54 2.32 0.666 3.5 0.339 4.07 0.362 8.15 0.07 12.2-0.211 3.48-0.484 6.28-0.675 8.21l-0.242 2.22c-0.018 0.264-0.052 0.527-0.101 0.786z"/>
<path d="m48.8 175c0.0148 0.256-0.0193 0.513-0.101 0.756-0.167 0.674-0.41 1.33-0.726 1.94-1.02 2.1-2.73 3.79-4.84 4.8-2.13 0.973-4.55 1.12-6.78 0.424-0.668-0.206-1.31-0.494-1.9-0.857-0.413-0.262-0.615-0.443-0.595-0.474 0.846 0.387 1.71 0.724 2.6 1.01 2.15 0.561 4.43 0.369 6.46-0.544 2-0.975 3.66-2.54 4.74-4.5 0.836-1.52 1.06-2.59 1.15-2.56z"/>
<path d="m79.2 213c-1.62 3.02-3.54 5.88-5.72 8.52 1.61-3.03 3.53-5.88 5.72-8.52z"/>
<path d="m81.5 218c-1.14 0.879-2.39 1.61-3.71 2.19-1.24 0.73-2.57 1.3-3.95 1.71 1.15-0.869 2.39-1.6 3.71-2.18 1.24-0.73 2.57-1.31 3.95-1.72z"/>
<path d="m116 216s0-0.111 0.111-0.272l0.121 0.111c-1.04 1.13-2.14 2.2-3.31 3.2-1.16 1.14-2.44 2.15-3.82 3.02 1.03-1.27 2.19-2.43 3.47-3.45 1.12-1.04 2.31-2.02 3.55-2.93l0.121 0.121c-0.141 0.151-0.212 0.201-0.242 0.191z"/>
<path d="m143 135 2.45 25.4h12.4l2.97-25.4z"/>
</g>
<path d="m143 141c0 0.241 1.48 12.8 1.48 12.8h15.1l1.45-12.8z" fill="#de5836"/>
<path d="m58.5 218c7.83-0.252 4.14-11.7 3.95-24.2-0.121-7.83-5.33-15.5-11-20.9-2.88-2.55-6.28-4.45-9.97-5.57-9.76-3.14-20.2-3.8-30.2-1.94 0 0-2.35 54.2 47.3 52.7z" fill="#455a64"/>
</g>
</g>
<defs>
<clipPath id="a">
<rect width="372" height="219" fill="#fff"/>
</clipPath>
</defs>
</svg>
