<?xml version="1.0" encoding="UTF-8" standalone="no"?>
<svg
   width="501"
   height="300"
   viewBox="0 0 501 300"
   fill="none"
   version="1.1"
   id="svg4"
   sodipodi:docname="ambition-bubble.svg"
   inkscape:version="1.1.2 (0a00cf5339, 2022-02-04)"
   xmlns:inkscape="http://www.inkscape.org/namespaces/inkscape"
   xmlns:sodipodi="http://sodipodi.sourceforge.net/DTD/sodipodi-0.dtd"
   xmlns="http://www.w3.org/2000/svg"
   xmlns:svg="http://www.w3.org/2000/svg">
  <defs
     id="defs8" />
  <sodipodi:namedview
     id="namedview6"
     pagecolor="#ffffff"
     bordercolor="#666666"
     borderopacity="1.0"
     inkscape:pageshadow="2"
     inkscape:pageopacity="0.0"
     inkscape:pagecheckerboard="0"
     showgrid="false"
     inkscape:zoom="1.6946993"
     inkscape:cx="216.85264"
     inkscape:cy="183.51339"
     inkscape:window-width="1920"
     inkscape:window-height="1043"
     inkscape:window-x="0"
     inkscape:window-y="0"
     inkscape:window-maximized="1"
     inkscape:current-layer="svg4" />
  <path
     d="M110.25 56.9994C134.387 59.2427 230.676 27.6497 275.804 11.5728C414.281 -24.3199 461.472 30.6407 489.322 76.0674C517.172 121.494 490.096 263.382 461.472 283.572C432.848 303.761 155.12 307.126 83.9471 283.572C12.7744 260.017 7.35904 191.036 0.396494 138.319C-6.56605 85.6014 80.079 54.1953 110.25 56.9994Z"
     fill="#F3F9FF"
     id="path2" />
  <g
     style="fill:none"
     id="g834"
     transform="translate(12.554321,42.062346)">
    <path
       d="m 2.18836,6.5217 c 9.42034,4.1924 8.70764,13.1812 5.31805,21.2111 -2.66868,6.315 -5.82409,13.1753 -3.83346,20.2262 1.87417,6.6358 7.96795,10.8804 14.55325,11.9812 7.4861,1.2524 14.6883,-1.6815 21.2396,-4.8735 3.9197,-1.9105 0.4941,-7.84 -3.402,-5.9425 -6.4093,3.1244 -14.6576,6.5995 -21.5581,2.4386 C 7.19447,47.1536 10.2269,38.6198 12.8886,32.434 15.3142,26.7926 17.8642,20.846 16.6703,14.5239 15.5094,8.36553 11.2106,3.171 5.50918,0.633542 1.53353,-1.13676 -1.83493,4.72993 2.19368,6.52701 Z"
       fill="#89bffa"
       id="path825" />
  </g>
  <g
     style="fill:none"
     id="g845"
     transform="translate(392.07481,233.39684)">
    <path
       d="m 1.9273,26.5987 c 9.2443,4.3251 19.565,8.9236 29.9276,6.3302 3.4132,1.952 7.2364,3.2655 10.9788,3.9738 5.1366,0.976 11.3051,1.6397 17.2476,1.213 1.5923,2.4345 3.5053,4.6821 5.5215,6.6202 9.1216,8.7814 21.0151,13.7256 33.5528,14.7407 4.6204,0.3653 4.5874,-6.8238 0.0056,-7.1891 C 90.1427,51.5625 81.406,48.3137 74.242,42.7504 72.1422,41.1246 69.8638,39.1196 67.9146,36.8413 70.1148,36.225 72.1896,35.3829 74.0691,34.2674 80.851,30.235 85.1288,20.3745 79.7412,13.5089 73.9129,6.0688 62.276,8.54231 57.9062,16.1525 c -2.7635,4.8382 -2.8277,9.9554 -1.3079,14.7658 -2.44,-0.0251 -4.7769,-0.198 -6.7568,-0.3319 -3.034,-0.2175 -6.3497,-0.7111 -9.4869,-1.6955 4.6821,-3.5443 7.8053,-8.865 6.966,-15.1143 C 46.3306,6.42853 39.9391,-0.609949 32.0333,0.642144 23.093,2.05877 18.567,12.1954 21.074,20.3298 c 0.7111,2.2951 1.8238,4.3559 3.2264,6.1824 C 17.7555,26.186 11.2329,23.0432 5.47442,20.3466 1.31937,18.4001 -2.27795,24.6299 1.93009,26.6015 Z M 63.068,22.5858 c 0.8477,-3.759 4.2275,-7.5348 8.5304,-6.227 4.6625,1.4222 3.7953,6.8294 1.1991,9.7937 -2.1556,2.4512 -5.4016,3.7061 -8.9376,4.3028 -1.015,-2.493 -1.411,-5.1366 -0.7919,-7.8695 z M 28.7846,20.2211 c -1.8517,-3.5583 -1.8043,-8.2125 1.4166,-11.02624 2.507,-2.19465 5.6051,-1.82377 7.7998,0.60513 5.2733,5.85331 0.6888,12.52371 -5.2175,15.23421 -1.6119,-1.2995 -2.995,-2.889 -3.9989,-4.8131 z"
       fill="#89bffa"
       id="path836" />
  </g>
</svg>
